%TF.GenerationSoftware,KiCad,Pcbnew,(6.0.5)*%
%TF.CreationDate,2022-11-09T18:14:35+05:30*%
%TF.ProjectId,USBNightLightV1,5553424e-6967-4687-944c-696768745631,rev?*%
%TF.SameCoordinates,Original*%
%TF.FileFunction,Copper,L1,Top*%
%TF.FilePolarity,Positive*%
%FSLAX46Y46*%
G04 Gerber Fmt 4.6, Leading zero omitted, Abs format (unit mm)*
G04 Created by KiCad (PCBNEW (6.0.5)) date 2022-11-09 18:14:35*
%MOMM*%
%LPD*%
G01*
G04 APERTURE LIST*
%TA.AperFunction,EtchedComponent*%
%ADD10C,0.300000*%
%TD*%
%TA.AperFunction,SMDPad,CuDef*%
%ADD11R,1.500000X1.000000*%
%TD*%
%TA.AperFunction,ComponentPad*%
%ADD12R,1.700000X1.700000*%
%TD*%
%TA.AperFunction,ComponentPad*%
%ADD13O,1.700000X1.700000*%
%TD*%
%TA.AperFunction,ComponentPad*%
%ADD14C,1.600000*%
%TD*%
%TA.AperFunction,ComponentPad*%
%ADD15O,1.600000X1.600000*%
%TD*%
%TA.AperFunction,ComponentPad*%
%ADD16R,1.130000X1.130000*%
%TD*%
%TA.AperFunction,ComponentPad*%
%ADD17C,1.130000*%
%TD*%
%TA.AperFunction,SMDPad,CuDef*%
%ADD18R,1.200000X2.300000*%
%TD*%
%TA.AperFunction,SMDPad,CuDef*%
%ADD19R,0.200000X0.200000*%
%TD*%
%TA.AperFunction,ViaPad*%
%ADD20C,0.800000*%
%TD*%
%TA.AperFunction,Conductor*%
%ADD21C,0.250000*%
%TD*%
G04 APERTURE END LIST*
D10*
%TO.C,J1*%
X148919025Y-71296100D02*
X148919025Y-69496100D01*
X149919025Y-69496100D02*
X149919025Y-71296100D01*
X137219025Y-71296100D02*
X137219025Y-69496100D01*
X138219025Y-69496100D02*
X138219025Y-71296100D01*
X149919025Y-69496100D02*
G75*
G03*
X149419025Y-68996100I-500001J-1D01*
G01*
X148919025Y-71296100D02*
G75*
G03*
X149419025Y-71796100I500001J1D01*
G01*
X149419025Y-68996100D02*
G75*
G03*
X148919025Y-69496100I1J-500001D01*
G01*
X149419025Y-71796100D02*
G75*
G03*
X149919025Y-71296100I-1J500001D01*
G01*
X137719025Y-71796100D02*
G75*
G03*
X138219025Y-71296100I0J500000D01*
G01*
X137219025Y-71296100D02*
G75*
G03*
X137719025Y-71796100I500000J0D01*
G01*
X138219025Y-69496100D02*
G75*
G03*
X137719025Y-68996100I-500000J0D01*
G01*
X137719025Y-68996100D02*
G75*
G03*
X137219025Y-69496100I0J-500000D01*
G01*
%TD*%
D11*
%TO.P,D5,1,VSS*%
%TO.N,GND*%
X146019000Y-86713000D03*
%TO.P,D5,2,DIN*%
%TO.N,Net-(D4-Pad4)*%
X146019000Y-83513000D03*
%TO.P,D5,3,VDD*%
%TO.N,VCC*%
X141119000Y-83513000D03*
%TO.P,D5,4,DOUT*%
%TO.N,Net-(D5-Pad4)*%
X141119000Y-86713000D03*
%TD*%
%TO.P,D3,1,VSS*%
%TO.N,GND*%
X156978000Y-79313000D03*
%TO.P,D3,2,DIN*%
%TO.N,Net-(D2-Pad4)*%
X156978000Y-76113000D03*
%TO.P,D3,3,VDD*%
%TO.N,VCC*%
X152078000Y-76113000D03*
%TO.P,D3,4,DOUT*%
%TO.N,Net-(D3-Pad4)*%
X152078000Y-79313000D03*
%TD*%
D12*
%TO.P,J5,1,Pin_1*%
%TO.N,GPIO0*%
X120142000Y-85095000D03*
D13*
%TO.P,J5,2,Pin_2*%
%TO.N,GND*%
X120142000Y-82555000D03*
%TD*%
D11*
%TO.P,D4,1,VSS*%
%TO.N,GND*%
X135060000Y-86713000D03*
%TO.P,D4,2,DIN*%
%TO.N,Net-(D3-Pad4)*%
X135060000Y-83513000D03*
%TO.P,D4,3,VDD*%
%TO.N,VCC*%
X130160000Y-83513000D03*
%TO.P,D4,4,DOUT*%
%TO.N,Net-(D4-Pad4)*%
X130160000Y-86713000D03*
%TD*%
%TO.P,D8,1,VSS*%
%TO.N,GND*%
X146019000Y-94113000D03*
%TO.P,D8,2,DIN*%
%TO.N,Net-(D7-Pad4)*%
X146019000Y-90913000D03*
%TO.P,D8,3,VDD*%
%TO.N,VCC*%
X141119000Y-90913000D03*
%TO.P,D8,4,DOUT*%
%TO.N,Net-(D8-Pad4)*%
X141119000Y-94113000D03*
%TD*%
%TO.P,D2,1,VSS*%
%TO.N,GND*%
X146019000Y-79313000D03*
%TO.P,D2,2,DIN*%
%TO.N,Net-(D1-Pad4)*%
X146019000Y-76113000D03*
%TO.P,D2,3,VDD*%
%TO.N,VCC*%
X141119000Y-76113000D03*
%TO.P,D2,4,DOUT*%
%TO.N,Net-(D2-Pad4)*%
X141119000Y-79313000D03*
%TD*%
D14*
%TO.P,R3,1*%
%TO.N,3.3V*%
X127000000Y-84074000D03*
D15*
%TO.P,R3,2*%
%TO.N,GPIO0*%
X127000000Y-76454000D03*
%TD*%
D12*
%TO.P,J4,1,Pin_1*%
%TO.N,Net-(J4-Pad1)*%
X120142000Y-94488000D03*
%TD*%
D16*
%TO.P,IC1,1,1~{OE}*%
%TO.N,GND*%
X160114000Y-84328000D03*
D17*
%TO.P,IC1,2,1A*%
%TO.N,DataI{slash}P*%
X160114000Y-86868000D03*
%TO.P,IC1,3,1Y*%
%TO.N,DataO{slash}P*%
X160114000Y-89408000D03*
%TO.P,IC1,4,2~{OE}*%
%TO.N,unconnected-(IC1-Pad4)*%
X160114000Y-91948000D03*
%TO.P,IC1,5,2A*%
%TO.N,unconnected-(IC1-Pad5)*%
X160114000Y-94488000D03*
%TO.P,IC1,6,2Y*%
%TO.N,unconnected-(IC1-Pad6)*%
X160114000Y-97028000D03*
%TO.P,IC1,7,GND*%
%TO.N,GND*%
X160114000Y-99568000D03*
%TO.P,IC1,8,3Y*%
%TO.N,unconnected-(IC1-Pad8)*%
X168054000Y-99568000D03*
%TO.P,IC1,9,3A*%
%TO.N,unconnected-(IC1-Pad9)*%
X168054000Y-97028000D03*
%TO.P,IC1,10,3~{OE}*%
%TO.N,unconnected-(IC1-Pad10)*%
X168054000Y-94488000D03*
%TO.P,IC1,11,4Y*%
%TO.N,unconnected-(IC1-Pad11)*%
X168054000Y-91948000D03*
%TO.P,IC1,12,4A*%
%TO.N,unconnected-(IC1-Pad12)*%
X168054000Y-89408000D03*
%TO.P,IC1,13,4~{OE}*%
%TO.N,unconnected-(IC1-Pad13)*%
X168054000Y-86868000D03*
%TO.P,IC1,14,VCC*%
%TO.N,VCC*%
X168054000Y-84328000D03*
%TD*%
D12*
%TO.P,J3,1,Pin_1*%
%TO.N,Net-(J3-Pad1)*%
X120142000Y-90424000D03*
%TD*%
D14*
%TO.P,R4,1*%
%TO.N,Net-(R4-Pad1)*%
X123698000Y-94234000D03*
D15*
%TO.P,R4,2*%
%TO.N,GND*%
X123698000Y-86614000D03*
%TD*%
D12*
%TO.P,J2,1,Pin_1*%
%TO.N,Net-(J2-Pad1)*%
X120142000Y-77216000D03*
%TD*%
D11*
%TO.P,D9,1,VSS*%
%TO.N,GND*%
X156978000Y-94113000D03*
%TO.P,D9,2,DIN*%
%TO.N,Net-(D8-Pad4)*%
X156978000Y-90913000D03*
%TO.P,D9,3,VDD*%
%TO.N,VCC*%
X152078000Y-90913000D03*
%TO.P,D9,4,DOUT*%
%TO.N,unconnected-(D9-Pad4)*%
X152078000Y-94113000D03*
%TD*%
%TO.P,D6,1,VSS*%
%TO.N,GND*%
X156978000Y-86713000D03*
%TO.P,D6,2,DIN*%
%TO.N,Net-(D5-Pad4)*%
X156978000Y-83513000D03*
%TO.P,D6,3,VDD*%
%TO.N,VCC*%
X152078000Y-83513000D03*
%TO.P,D6,4,DOUT*%
%TO.N,Net-(D6-Pad4)*%
X152078000Y-86713000D03*
%TD*%
D14*
%TO.P,R2,1*%
%TO.N,3.3V*%
X123698000Y-84074000D03*
D15*
%TO.P,R2,2*%
%TO.N,Net-(R2-Pad2)*%
X123698000Y-76454000D03*
%TD*%
D14*
%TO.P,R5,1*%
%TO.N,3.3V*%
X127508000Y-73152000D03*
D15*
%TO.P,R5,2*%
%TO.N,Net-(J4-Pad1)*%
X135128000Y-73152000D03*
%TD*%
D18*
%TO.P,J1,1,VBUS*%
%TO.N,VCC*%
X140069025Y-73146100D03*
%TO.P,J1,2,D-*%
%TO.N,unconnected-(J1-Pad2)*%
X142569025Y-73146100D03*
%TO.P,J1,3,D+*%
%TO.N,unconnected-(J1-Pad3)*%
X144569025Y-73146100D03*
%TO.P,J1,4,GND*%
%TO.N,GND*%
X147069025Y-73146100D03*
D19*
%TO.P,J1,5,SHIELD*%
X149419025Y-71796100D03*
%TO.P,J1,6,SHIELD*%
X137719025Y-71796100D03*
%TD*%
D11*
%TO.P,D1,1,VSS*%
%TO.N,GND*%
X135060000Y-79313000D03*
%TO.P,D1,2,DIN*%
%TO.N,DataO{slash}P*%
X135060000Y-76113000D03*
%TO.P,D1,3,VDD*%
%TO.N,VCC*%
X130160000Y-76113000D03*
%TO.P,D1,4,DOUT*%
%TO.N,Net-(D1-Pad4)*%
X130160000Y-79313000D03*
%TD*%
%TO.P,D7,1,VSS*%
%TO.N,GND*%
X135060000Y-94113000D03*
%TO.P,D7,2,DIN*%
%TO.N,Net-(D6-Pad4)*%
X135060000Y-90913000D03*
%TO.P,D7,3,VDD*%
%TO.N,VCC*%
X130160000Y-90913000D03*
%TO.P,D7,4,DOUT*%
%TO.N,Net-(D7-Pad4)*%
X130160000Y-94113000D03*
%TD*%
D12*
%TO.P,J6,1,Pin_1*%
%TO.N,DataI{slash}P*%
X120142000Y-98552000D03*
%TD*%
D14*
%TO.P,R1,1*%
%TO.N,3.3V*%
X127000000Y-86614000D03*
D15*
%TO.P,R1,2*%
%TO.N,Net-(R1-Pad2)*%
X127000000Y-94234000D03*
%TD*%
D20*
%TO.N,GND*%
X159060000Y-78650000D03*
%TO.N,Net-(J4-Pad1)*%
X158170000Y-70510000D03*
%TO.N,GND*%
X151675900Y-73146100D03*
%TO.N,VCC*%
X137668000Y-73406000D03*
X153924000Y-76200000D03*
X153924000Y-79502000D03*
%TO.N,GND*%
X137774162Y-88689269D03*
X133350000Y-84836000D03*
X121926799Y-84334799D03*
X137160000Y-78994000D03*
X125984000Y-77978000D03*
X133667312Y-94539286D03*
X129809989Y-88900000D03*
X137922000Y-92563989D03*
%TO.N,DataO{slash}P*%
X143510000Y-77216000D03*
%TO.N,Net-(D5-Pad4)*%
X151130000Y-80863498D03*
X154940000Y-83312000D03*
%TO.N,Net-(D6-Pad4)*%
X140970000Y-88900000D03*
X138430000Y-90678000D03*
%TO.N,Net-(D8-Pad4)*%
X147818011Y-92456000D03*
X146050000Y-92456000D03*
%TO.N,DataI{slash}P*%
X162560000Y-86868000D03*
%TO.N,Net-(J2-Pad1)*%
X134620000Y-98298000D03*
X149352000Y-96063011D03*
%TO.N,Net-(J3-Pad1)*%
X148340299Y-84078299D03*
X123190000Y-90424000D03*
X143624850Y-81813982D03*
X148844000Y-85852000D03*
X147569701Y-82799701D03*
X128016000Y-90424000D03*
%TO.N,Net-(J4-Pad1)*%
X158462201Y-81821799D03*
X157734000Y-84836000D03*
%TO.N,Net-(R2-Pad2)*%
X132842000Y-96063011D03*
%TO.N,Net-(R4-Pad1)*%
X138528649Y-91769646D03*
%TD*%
D21*
%TO.N,GND*%
X158397000Y-79313000D02*
X159060000Y-78650000D01*
X156978000Y-79313000D02*
X158397000Y-79313000D01*
%TO.N,Net-(J4-Pad1)*%
X157587777Y-81821799D02*
X158462201Y-81821799D01*
X155903489Y-80137511D02*
X157587777Y-81821799D01*
X156051978Y-78340000D02*
X155903489Y-78488489D01*
X158170000Y-76820022D02*
X156650022Y-78340000D01*
X156650022Y-78340000D02*
X156051978Y-78340000D01*
X158170000Y-70510000D02*
X158170000Y-76820022D01*
X155903489Y-78488489D02*
X155903489Y-80137511D01*
%TO.N,VCC*%
X152078000Y-83513000D02*
X152078000Y-81348000D01*
X130160000Y-83513000D02*
X129085489Y-84587511D01*
X140044489Y-89838489D02*
X140044489Y-84587511D01*
X141943511Y-75288489D02*
X141119000Y-76113000D01*
X131851000Y-74422000D02*
X136652000Y-74422000D01*
X152078000Y-81348000D02*
X153924000Y-79502000D01*
X151253489Y-75288489D02*
X141943511Y-75288489D01*
X129085489Y-77187511D02*
X130160000Y-76113000D01*
X136652000Y-74422000D02*
X137668000Y-73406000D01*
X129085489Y-84587511D02*
X129085489Y-89838489D01*
X138938000Y-74168000D02*
X139047125Y-74168000D01*
X153924000Y-76200000D02*
X152165000Y-76200000D01*
X129085489Y-89838489D02*
X130160000Y-90913000D01*
X130160000Y-76113000D02*
X131851000Y-74422000D01*
X152078000Y-83513000D02*
X153152511Y-84587511D01*
X134189511Y-89838489D02*
X140044489Y-89838489D01*
X153152511Y-89838489D02*
X152078000Y-90913000D01*
X153152511Y-84587511D02*
X153152511Y-89838489D01*
X130160000Y-83513000D02*
X129085489Y-82438489D01*
X152165000Y-76200000D02*
X152078000Y-76113000D01*
X139047125Y-74168000D02*
X140069025Y-73146100D01*
X140044489Y-84587511D02*
X141119000Y-83513000D01*
X141119000Y-90913000D02*
X140044489Y-89838489D01*
X130160000Y-90913000D02*
X133115000Y-90913000D01*
X152078000Y-76113000D02*
X151253489Y-75288489D01*
X141119000Y-76113000D02*
X140883000Y-76113000D01*
X133115000Y-90913000D02*
X134189511Y-89838489D01*
X140883000Y-76113000D02*
X138938000Y-74168000D01*
X138430000Y-74168000D02*
X138938000Y-74168000D01*
X137668000Y-73406000D02*
X138430000Y-74168000D01*
X129085489Y-82438489D02*
X129085489Y-77187511D01*
%TO.N,GND*%
X161003511Y-98678489D02*
X161003511Y-85217511D01*
X156978000Y-94113000D02*
X156978000Y-96432000D01*
X160114000Y-84328000D02*
X160114000Y-82449000D01*
X147093511Y-93038489D02*
X147093511Y-90197511D01*
X125984000Y-77978000D02*
X127508000Y-77978000D01*
X131996989Y-86713000D02*
X129809989Y-88900000D01*
X136500326Y-72492326D02*
X137131117Y-72492326D01*
X143845511Y-90088489D02*
X141370011Y-92563989D01*
X138303511Y-80137511D02*
X137160000Y-78994000D01*
X129085489Y-76400511D02*
X129085489Y-75288489D01*
X132346489Y-72027489D02*
X136035489Y-72027489D01*
X145594514Y-71671589D02*
X138726675Y-71671589D01*
X160114000Y-82449000D02*
X156978000Y-79313000D01*
X135797893Y-86713000D02*
X137774162Y-88689269D01*
X121926799Y-84334799D02*
X121921799Y-84334799D01*
X137131117Y-72492326D02*
X137282791Y-72644000D01*
X135060000Y-79313000D02*
X136841000Y-79313000D01*
X160114000Y-99568000D02*
X161003511Y-98678489D01*
X133350000Y-81023000D02*
X133350000Y-84836000D01*
X146984489Y-90088489D02*
X146730489Y-90088489D01*
X161003511Y-85217511D02*
X160114000Y-84328000D01*
X129085489Y-75288489D02*
X132346489Y-72027489D01*
X146019000Y-79313000D02*
X145194489Y-80137511D01*
X146019000Y-94113000D02*
X147093511Y-93038489D01*
X145194489Y-80137511D02*
X138303511Y-80137511D01*
X159363000Y-84328000D02*
X156978000Y-86713000D01*
X138726675Y-71671589D02*
X137754264Y-72644000D01*
X135060000Y-86713000D02*
X131996989Y-86713000D01*
X134633714Y-94539286D02*
X135060000Y-94113000D01*
X127508000Y-77978000D02*
X129085489Y-76400511D01*
X136035489Y-72027489D02*
X136500326Y-72492326D01*
X160114000Y-84328000D02*
X159363000Y-84328000D01*
X135060000Y-79313000D02*
X133350000Y-81023000D01*
X133667312Y-94539286D02*
X134633714Y-94539286D01*
X141370011Y-92563989D02*
X137922000Y-92563989D01*
X147093511Y-90197511D02*
X146984489Y-90088489D01*
X146730489Y-90088489D02*
X143845511Y-90088489D01*
X146019000Y-86713000D02*
X146019000Y-89377000D01*
X121921799Y-84334799D02*
X120142000Y-82555000D01*
X137754264Y-72644000D02*
X137282791Y-72644000D01*
X136841000Y-79313000D02*
X137160000Y-78994000D01*
X151675900Y-73146100D02*
X147069025Y-73146100D01*
X135060000Y-86713000D02*
X135797893Y-86713000D01*
X156978000Y-96432000D02*
X160114000Y-99568000D01*
X146019000Y-89377000D02*
X146730489Y-90088489D01*
X147069025Y-73146100D02*
X145594514Y-71671589D01*
%TO.N,3.3V*%
X127000000Y-84074000D02*
X127000000Y-86614000D01*
X123698000Y-78093370D02*
X123698000Y-84074000D01*
X127508000Y-74283370D02*
X123698000Y-78093370D01*
X123698000Y-84074000D02*
X127000000Y-84074000D01*
X127508000Y-73152000D02*
X127508000Y-74283370D01*
%TO.N,DataO{slash}P*%
X135060000Y-76113000D02*
X136163000Y-77216000D01*
X136163000Y-77216000D02*
X143510000Y-77216000D01*
%TO.N,Net-(D1-Pad4)*%
X146019000Y-76113000D02*
X144093031Y-78038969D01*
X144093031Y-78038969D02*
X134435009Y-78038969D01*
X134366000Y-77978000D02*
X133031000Y-79313000D01*
X133031000Y-79313000D02*
X130160000Y-79313000D01*
X134435009Y-78038969D02*
X134374040Y-77978000D01*
X134374040Y-77978000D02*
X134366000Y-77978000D01*
%TO.N,Net-(D2-Pad4)*%
X154602511Y-78488489D02*
X141943511Y-78488489D01*
X141943511Y-78488489D02*
X141119000Y-79313000D01*
X156978000Y-76113000D02*
X154602511Y-78488489D01*
%TO.N,Net-(D3-Pad4)*%
X147320000Y-80772000D02*
X135890000Y-80772000D01*
X148779000Y-79313000D02*
X147320000Y-80772000D01*
X152078000Y-79313000D02*
X148779000Y-79313000D01*
X135890000Y-80772000D02*
X135060000Y-81602000D01*
X135060000Y-81602000D02*
X135060000Y-83513000D01*
%TO.N,Net-(D4-Pad4)*%
X140044489Y-82688489D02*
X145194489Y-82688489D01*
X137134978Y-85598000D02*
X140044489Y-82688489D01*
X131275000Y-85598000D02*
X137134978Y-85598000D01*
X130160000Y-86713000D02*
X131275000Y-85598000D01*
X145194489Y-82688489D02*
X146019000Y-83513000D01*
%TO.N,Net-(D5-Pad4)*%
X154940000Y-83312000D02*
X156777000Y-83312000D01*
X142937520Y-84894480D02*
X142943520Y-84894480D01*
X141119000Y-86713000D02*
X142937520Y-84894480D01*
X143510000Y-84328000D02*
X143519511Y-84337511D01*
X150530502Y-80863498D02*
X151130000Y-80863498D01*
X142943520Y-84894480D02*
X143510000Y-84328000D01*
X156777000Y-83312000D02*
X156978000Y-83513000D01*
X143519511Y-84337511D02*
X147056489Y-84337511D01*
X147056489Y-84337511D02*
X150530502Y-80863498D01*
%TO.N,Net-(D6-Pad4)*%
X138430000Y-90678000D02*
X138195000Y-90913000D01*
X144526000Y-85344000D02*
X140970000Y-88900000D01*
X152078000Y-86713000D02*
X148181000Y-86713000D01*
X148181000Y-86713000D02*
X146812000Y-85344000D01*
X138195000Y-90913000D02*
X135060000Y-90913000D01*
X146812000Y-85344000D02*
X144526000Y-85344000D01*
%TO.N,Net-(D7-Pad4)*%
X130984511Y-93288489D02*
X130160000Y-94113000D01*
X146019000Y-90913000D02*
X143643511Y-93288489D01*
X143643511Y-93288489D02*
X130984511Y-93288489D01*
%TO.N,Net-(D8-Pad4)*%
X152908000Y-91948000D02*
X152400000Y-92456000D01*
X152400000Y-92456000D02*
X147818011Y-92456000D01*
X153943000Y-90913000D02*
X152908000Y-91948000D01*
X145111718Y-92456000D02*
X146050000Y-92456000D01*
X156978000Y-90913000D02*
X153943000Y-90913000D01*
X141119000Y-94113000D02*
X143454718Y-94113000D01*
X143454718Y-94113000D02*
X145111718Y-92456000D01*
%TO.N,DataI{slash}P*%
X159339960Y-101600000D02*
X161544000Y-99395960D01*
X155899133Y-101600000D02*
X159339960Y-101600000D01*
X161544000Y-99395960D02*
X161544000Y-86868000D01*
X153250500Y-95338500D02*
X155194000Y-97282000D01*
X132541897Y-95338500D02*
X153250500Y-95338500D01*
X120142000Y-98552000D02*
X129328397Y-98552000D01*
X155194000Y-97282000D02*
X154940000Y-97536000D01*
X129328397Y-98552000D02*
X132541897Y-95338500D01*
X161544000Y-86868000D02*
X162560000Y-86868000D01*
X154940000Y-97536000D02*
X154940000Y-100640867D01*
X154940000Y-100640867D02*
X155899133Y-101600000D01*
%TO.N,Net-(J2-Pad1)*%
X134671011Y-96063011D02*
X134620000Y-96012000D01*
X134620000Y-96012000D02*
X134620000Y-98298000D01*
X149352000Y-96063011D02*
X134671011Y-96063011D01*
%TO.N,Net-(J3-Pad1)*%
X148340299Y-85348299D02*
X148844000Y-85852000D01*
X148340299Y-84078299D02*
X148340299Y-85348299D01*
X123190000Y-90424000D02*
X128016000Y-90424000D01*
X143624850Y-81813982D02*
X146583982Y-81813982D01*
X146583982Y-81813982D02*
X147569701Y-82799701D01*
%TO.N,Net-(J4-Pad1)*%
X157734000Y-84836000D02*
X158462201Y-84107799D01*
X158462201Y-84107799D02*
X158462201Y-81821799D01*
%TO.N,Net-(R2-Pad2)*%
X132842000Y-96063011D02*
X132842000Y-99996867D01*
X118967489Y-76041489D02*
X118967489Y-100425489D01*
X131388346Y-101450521D02*
X119992521Y-101450521D01*
X132842000Y-99996867D02*
X131388346Y-101450521D01*
X123285489Y-76041489D02*
X123698000Y-76454000D01*
X118967489Y-100425489D02*
X119992521Y-101450521D01*
X118967489Y-76041489D02*
X123285489Y-76041489D01*
%TO.N,Net-(R4-Pad1)*%
X123698000Y-94234000D02*
X126162354Y-91769646D01*
X126162354Y-91769646D02*
X138528649Y-91769646D01*
%TD*%
M02*
