%TF.GenerationSoftware,KiCad,Pcbnew,(6.0.5)*%
%TF.CreationDate,2022-11-09T18:14:35+05:30*%
%TF.ProjectId,USBNightLightV1,5553424e-6967-4687-944c-696768745631,rev?*%
%TF.SameCoordinates,Original*%
%TF.FileFunction,Soldermask,Bot*%
%TF.FilePolarity,Negative*%
%FSLAX46Y46*%
G04 Gerber Fmt 4.6, Leading zero omitted, Abs format (unit mm)*
G04 Created by KiCad (PCBNEW (6.0.5)) date 2022-11-09 18:14:35*
%MOMM*%
%LPD*%
G01*
G04 APERTURE LIST*
G04 Aperture macros list*
%AMRoundRect*
0 Rectangle with rounded corners*
0 $1 Rounding radius*
0 $2 $3 $4 $5 $6 $7 $8 $9 X,Y pos of 4 corners*
0 Add a 4 corners polygon primitive as box body*
4,1,4,$2,$3,$4,$5,$6,$7,$8,$9,$2,$3,0*
0 Add four circle primitives for the rounded corners*
1,1,$1+$1,$2,$3*
1,1,$1+$1,$4,$5*
1,1,$1+$1,$6,$7*
1,1,$1+$1,$8,$9*
0 Add four rect primitives between the rounded corners*
20,1,$1+$1,$2,$3,$4,$5,0*
20,1,$1+$1,$4,$5,$6,$7,0*
20,1,$1+$1,$6,$7,$8,$9,0*
20,1,$1+$1,$8,$9,$2,$3,0*%
G04 Aperture macros list end*
%ADD10C,0.001000*%
%ADD11RoundRect,0.250000X0.412500X0.650000X-0.412500X0.650000X-0.412500X-0.650000X0.412500X-0.650000X0*%
%ADD12C,2.000000*%
%ADD13R,1.700000X1.700000*%
%ADD14O,1.700000X1.700000*%
%ADD15C,1.600000*%
%ADD16O,1.600000X1.600000*%
%ADD17R,1.130000X1.130000*%
%ADD18C,1.130000*%
%ADD19C,1.100000*%
%ADD20C,0.700000*%
%ADD21R,2.000000X1.500000*%
%ADD22R,2.000000X3.800000*%
%ADD23R,2.500000X1.000000*%
%ADD24R,1.000000X1.800000*%
G04 APERTURE END LIST*
%TO.C,J1*%
G36*
X137756025Y-68797100D02*
G01*
X137792025Y-68800100D01*
X137829025Y-68805100D01*
X137865025Y-68811100D01*
X137900025Y-68820100D01*
X137935025Y-68830100D01*
X137970025Y-68842100D01*
X138004025Y-68857100D01*
X138037025Y-68872100D01*
X138069025Y-68890100D01*
X138100025Y-68909100D01*
X138130025Y-68930100D01*
X138160025Y-68952100D01*
X138187025Y-68976100D01*
X138214025Y-69001100D01*
X138239025Y-69028100D01*
X138263025Y-69055100D01*
X138285025Y-69085100D01*
X138306025Y-69115100D01*
X138325025Y-69146100D01*
X138343025Y-69178100D01*
X138358025Y-69211100D01*
X138373025Y-69245100D01*
X138385025Y-69280100D01*
X138395025Y-69315100D01*
X138404025Y-69350100D01*
X138410025Y-69386100D01*
X138415025Y-69423100D01*
X138418025Y-69459100D01*
X138419025Y-69496100D01*
X138419025Y-71296100D01*
X138418025Y-71333100D01*
X138415025Y-71369100D01*
X138410025Y-71406100D01*
X138404025Y-71442100D01*
X138395025Y-71477100D01*
X138385025Y-71512100D01*
X138373025Y-71547100D01*
X138358025Y-71581100D01*
X138343025Y-71614100D01*
X138325025Y-71646100D01*
X138306025Y-71677100D01*
X138285025Y-71707100D01*
X138263025Y-71737100D01*
X138239025Y-71764100D01*
X138214025Y-71791100D01*
X138187025Y-71816100D01*
X138160025Y-71840100D01*
X138130025Y-71862100D01*
X138100025Y-71883100D01*
X138069025Y-71902100D01*
X138037025Y-71920100D01*
X138004025Y-71935100D01*
X137970025Y-71950100D01*
X137935025Y-71962100D01*
X137900025Y-71972100D01*
X137865025Y-71981100D01*
X137829025Y-71987100D01*
X137792025Y-71992100D01*
X137756025Y-71995100D01*
X137719025Y-71996100D01*
X137682025Y-71995100D01*
X137646025Y-71992100D01*
X137609025Y-71987100D01*
X137573025Y-71981100D01*
X137538025Y-71972100D01*
X137503025Y-71962100D01*
X137468025Y-71950100D01*
X137434025Y-71935100D01*
X137401025Y-71920100D01*
X137369025Y-71902100D01*
X137338025Y-71883100D01*
X137308025Y-71862100D01*
X137278025Y-71840100D01*
X137251025Y-71816100D01*
X137224025Y-71791100D01*
X137199025Y-71764100D01*
X137175025Y-71737100D01*
X137153025Y-71707100D01*
X137132025Y-71677100D01*
X137113025Y-71646100D01*
X137095025Y-71614100D01*
X137080025Y-71581100D01*
X137065025Y-71547100D01*
X137053025Y-71512100D01*
X137043025Y-71477100D01*
X137034025Y-71442100D01*
X137028025Y-71406100D01*
X137023025Y-71369100D01*
X137020025Y-71333100D01*
X137019025Y-71296100D01*
X137019025Y-69496100D01*
X137020025Y-69459100D01*
X137023025Y-69423100D01*
X137028025Y-69386100D01*
X137034025Y-69350100D01*
X137043025Y-69315100D01*
X137053025Y-69280100D01*
X137065025Y-69245100D01*
X137080025Y-69211100D01*
X137095025Y-69178100D01*
X137113025Y-69146100D01*
X137132025Y-69115100D01*
X137153025Y-69085100D01*
X137175025Y-69055100D01*
X137199025Y-69028100D01*
X137224025Y-69001100D01*
X137251025Y-68976100D01*
X137278025Y-68952100D01*
X137308025Y-68930100D01*
X137338025Y-68909100D01*
X137369025Y-68890100D01*
X137401025Y-68872100D01*
X137434025Y-68857100D01*
X137468025Y-68842100D01*
X137503025Y-68830100D01*
X137538025Y-68820100D01*
X137573025Y-68811100D01*
X137609025Y-68805100D01*
X137646025Y-68800100D01*
X137682025Y-68797100D01*
X137719025Y-68796100D01*
X137756025Y-68797100D01*
G37*
D10*
X137756025Y-68797100D02*
X137792025Y-68800100D01*
X137829025Y-68805100D01*
X137865025Y-68811100D01*
X137900025Y-68820100D01*
X137935025Y-68830100D01*
X137970025Y-68842100D01*
X138004025Y-68857100D01*
X138037025Y-68872100D01*
X138069025Y-68890100D01*
X138100025Y-68909100D01*
X138130025Y-68930100D01*
X138160025Y-68952100D01*
X138187025Y-68976100D01*
X138214025Y-69001100D01*
X138239025Y-69028100D01*
X138263025Y-69055100D01*
X138285025Y-69085100D01*
X138306025Y-69115100D01*
X138325025Y-69146100D01*
X138343025Y-69178100D01*
X138358025Y-69211100D01*
X138373025Y-69245100D01*
X138385025Y-69280100D01*
X138395025Y-69315100D01*
X138404025Y-69350100D01*
X138410025Y-69386100D01*
X138415025Y-69423100D01*
X138418025Y-69459100D01*
X138419025Y-69496100D01*
X138419025Y-71296100D01*
X138418025Y-71333100D01*
X138415025Y-71369100D01*
X138410025Y-71406100D01*
X138404025Y-71442100D01*
X138395025Y-71477100D01*
X138385025Y-71512100D01*
X138373025Y-71547100D01*
X138358025Y-71581100D01*
X138343025Y-71614100D01*
X138325025Y-71646100D01*
X138306025Y-71677100D01*
X138285025Y-71707100D01*
X138263025Y-71737100D01*
X138239025Y-71764100D01*
X138214025Y-71791100D01*
X138187025Y-71816100D01*
X138160025Y-71840100D01*
X138130025Y-71862100D01*
X138100025Y-71883100D01*
X138069025Y-71902100D01*
X138037025Y-71920100D01*
X138004025Y-71935100D01*
X137970025Y-71950100D01*
X137935025Y-71962100D01*
X137900025Y-71972100D01*
X137865025Y-71981100D01*
X137829025Y-71987100D01*
X137792025Y-71992100D01*
X137756025Y-71995100D01*
X137719025Y-71996100D01*
X137682025Y-71995100D01*
X137646025Y-71992100D01*
X137609025Y-71987100D01*
X137573025Y-71981100D01*
X137538025Y-71972100D01*
X137503025Y-71962100D01*
X137468025Y-71950100D01*
X137434025Y-71935100D01*
X137401025Y-71920100D01*
X137369025Y-71902100D01*
X137338025Y-71883100D01*
X137308025Y-71862100D01*
X137278025Y-71840100D01*
X137251025Y-71816100D01*
X137224025Y-71791100D01*
X137199025Y-71764100D01*
X137175025Y-71737100D01*
X137153025Y-71707100D01*
X137132025Y-71677100D01*
X137113025Y-71646100D01*
X137095025Y-71614100D01*
X137080025Y-71581100D01*
X137065025Y-71547100D01*
X137053025Y-71512100D01*
X137043025Y-71477100D01*
X137034025Y-71442100D01*
X137028025Y-71406100D01*
X137023025Y-71369100D01*
X137020025Y-71333100D01*
X137019025Y-71296100D01*
X137019025Y-69496100D01*
X137020025Y-69459100D01*
X137023025Y-69423100D01*
X137028025Y-69386100D01*
X137034025Y-69350100D01*
X137043025Y-69315100D01*
X137053025Y-69280100D01*
X137065025Y-69245100D01*
X137080025Y-69211100D01*
X137095025Y-69178100D01*
X137113025Y-69146100D01*
X137132025Y-69115100D01*
X137153025Y-69085100D01*
X137175025Y-69055100D01*
X137199025Y-69028100D01*
X137224025Y-69001100D01*
X137251025Y-68976100D01*
X137278025Y-68952100D01*
X137308025Y-68930100D01*
X137338025Y-68909100D01*
X137369025Y-68890100D01*
X137401025Y-68872100D01*
X137434025Y-68857100D01*
X137468025Y-68842100D01*
X137503025Y-68830100D01*
X137538025Y-68820100D01*
X137573025Y-68811100D01*
X137609025Y-68805100D01*
X137646025Y-68800100D01*
X137682025Y-68797100D01*
X137719025Y-68796100D01*
X137756025Y-68797100D01*
G36*
X149456025Y-68797100D02*
G01*
X149492025Y-68800100D01*
X149529025Y-68805100D01*
X149565025Y-68811100D01*
X149600025Y-68820100D01*
X149635025Y-68830100D01*
X149670025Y-68842100D01*
X149704025Y-68857100D01*
X149737025Y-68872100D01*
X149769025Y-68890100D01*
X149800025Y-68909100D01*
X149830025Y-68930100D01*
X149860025Y-68952100D01*
X149887025Y-68976100D01*
X149914025Y-69001100D01*
X149939025Y-69028100D01*
X149963025Y-69055100D01*
X149985025Y-69085100D01*
X150006025Y-69115100D01*
X150025025Y-69146100D01*
X150043025Y-69178100D01*
X150058025Y-69211100D01*
X150073025Y-69245100D01*
X150085025Y-69280100D01*
X150095025Y-69315100D01*
X150104025Y-69350100D01*
X150110025Y-69386100D01*
X150115025Y-69423100D01*
X150118025Y-69459100D01*
X150119025Y-69496100D01*
X150119025Y-71296100D01*
X150118025Y-71333100D01*
X150115025Y-71369100D01*
X150110025Y-71406100D01*
X150104025Y-71442100D01*
X150095025Y-71477100D01*
X150085025Y-71512100D01*
X150073025Y-71547100D01*
X150058025Y-71581100D01*
X150043025Y-71614100D01*
X150025025Y-71646100D01*
X150006025Y-71677100D01*
X149985025Y-71707100D01*
X149963025Y-71737100D01*
X149939025Y-71764100D01*
X149914025Y-71791100D01*
X149887025Y-71816100D01*
X149860025Y-71840100D01*
X149830025Y-71862100D01*
X149800025Y-71883100D01*
X149769025Y-71902100D01*
X149737025Y-71920100D01*
X149704025Y-71935100D01*
X149670025Y-71950100D01*
X149635025Y-71962100D01*
X149600025Y-71972100D01*
X149565025Y-71981100D01*
X149529025Y-71987100D01*
X149492025Y-71992100D01*
X149456025Y-71995100D01*
X149419025Y-71996100D01*
X149382025Y-71995100D01*
X149346025Y-71992100D01*
X149309025Y-71987100D01*
X149273025Y-71981100D01*
X149238025Y-71972100D01*
X149203025Y-71962100D01*
X149168025Y-71950100D01*
X149134025Y-71935100D01*
X149101025Y-71920100D01*
X149069025Y-71902100D01*
X149038025Y-71883100D01*
X149008025Y-71862100D01*
X148978025Y-71840100D01*
X148951025Y-71816100D01*
X148924025Y-71791100D01*
X148899025Y-71764100D01*
X148875025Y-71737100D01*
X148853025Y-71707100D01*
X148832025Y-71677100D01*
X148813025Y-71646100D01*
X148795025Y-71614100D01*
X148780025Y-71581100D01*
X148765025Y-71547100D01*
X148753025Y-71512100D01*
X148743025Y-71477100D01*
X148734025Y-71442100D01*
X148728025Y-71406100D01*
X148723025Y-71369100D01*
X148720025Y-71333100D01*
X148719025Y-71296100D01*
X148719025Y-69496100D01*
X148720025Y-69459100D01*
X148723025Y-69423100D01*
X148728025Y-69386100D01*
X148734025Y-69350100D01*
X148743025Y-69315100D01*
X148753025Y-69280100D01*
X148765025Y-69245100D01*
X148780025Y-69211100D01*
X148795025Y-69178100D01*
X148813025Y-69146100D01*
X148832025Y-69115100D01*
X148853025Y-69085100D01*
X148875025Y-69055100D01*
X148899025Y-69028100D01*
X148924025Y-69001100D01*
X148951025Y-68976100D01*
X148978025Y-68952100D01*
X149008025Y-68930100D01*
X149038025Y-68909100D01*
X149069025Y-68890100D01*
X149101025Y-68872100D01*
X149134025Y-68857100D01*
X149168025Y-68842100D01*
X149203025Y-68830100D01*
X149238025Y-68820100D01*
X149273025Y-68811100D01*
X149309025Y-68805100D01*
X149346025Y-68800100D01*
X149382025Y-68797100D01*
X149419025Y-68796100D01*
X149456025Y-68797100D01*
G37*
X149456025Y-68797100D02*
X149492025Y-68800100D01*
X149529025Y-68805100D01*
X149565025Y-68811100D01*
X149600025Y-68820100D01*
X149635025Y-68830100D01*
X149670025Y-68842100D01*
X149704025Y-68857100D01*
X149737025Y-68872100D01*
X149769025Y-68890100D01*
X149800025Y-68909100D01*
X149830025Y-68930100D01*
X149860025Y-68952100D01*
X149887025Y-68976100D01*
X149914025Y-69001100D01*
X149939025Y-69028100D01*
X149963025Y-69055100D01*
X149985025Y-69085100D01*
X150006025Y-69115100D01*
X150025025Y-69146100D01*
X150043025Y-69178100D01*
X150058025Y-69211100D01*
X150073025Y-69245100D01*
X150085025Y-69280100D01*
X150095025Y-69315100D01*
X150104025Y-69350100D01*
X150110025Y-69386100D01*
X150115025Y-69423100D01*
X150118025Y-69459100D01*
X150119025Y-69496100D01*
X150119025Y-71296100D01*
X150118025Y-71333100D01*
X150115025Y-71369100D01*
X150110025Y-71406100D01*
X150104025Y-71442100D01*
X150095025Y-71477100D01*
X150085025Y-71512100D01*
X150073025Y-71547100D01*
X150058025Y-71581100D01*
X150043025Y-71614100D01*
X150025025Y-71646100D01*
X150006025Y-71677100D01*
X149985025Y-71707100D01*
X149963025Y-71737100D01*
X149939025Y-71764100D01*
X149914025Y-71791100D01*
X149887025Y-71816100D01*
X149860025Y-71840100D01*
X149830025Y-71862100D01*
X149800025Y-71883100D01*
X149769025Y-71902100D01*
X149737025Y-71920100D01*
X149704025Y-71935100D01*
X149670025Y-71950100D01*
X149635025Y-71962100D01*
X149600025Y-71972100D01*
X149565025Y-71981100D01*
X149529025Y-71987100D01*
X149492025Y-71992100D01*
X149456025Y-71995100D01*
X149419025Y-71996100D01*
X149382025Y-71995100D01*
X149346025Y-71992100D01*
X149309025Y-71987100D01*
X149273025Y-71981100D01*
X149238025Y-71972100D01*
X149203025Y-71962100D01*
X149168025Y-71950100D01*
X149134025Y-71935100D01*
X149101025Y-71920100D01*
X149069025Y-71902100D01*
X149038025Y-71883100D01*
X149008025Y-71862100D01*
X148978025Y-71840100D01*
X148951025Y-71816100D01*
X148924025Y-71791100D01*
X148899025Y-71764100D01*
X148875025Y-71737100D01*
X148853025Y-71707100D01*
X148832025Y-71677100D01*
X148813025Y-71646100D01*
X148795025Y-71614100D01*
X148780025Y-71581100D01*
X148765025Y-71547100D01*
X148753025Y-71512100D01*
X148743025Y-71477100D01*
X148734025Y-71442100D01*
X148728025Y-71406100D01*
X148723025Y-71369100D01*
X148720025Y-71333100D01*
X148719025Y-71296100D01*
X148719025Y-69496100D01*
X148720025Y-69459100D01*
X148723025Y-69423100D01*
X148728025Y-69386100D01*
X148734025Y-69350100D01*
X148743025Y-69315100D01*
X148753025Y-69280100D01*
X148765025Y-69245100D01*
X148780025Y-69211100D01*
X148795025Y-69178100D01*
X148813025Y-69146100D01*
X148832025Y-69115100D01*
X148853025Y-69085100D01*
X148875025Y-69055100D01*
X148899025Y-69028100D01*
X148924025Y-69001100D01*
X148951025Y-68976100D01*
X148978025Y-68952100D01*
X149008025Y-68930100D01*
X149038025Y-68909100D01*
X149069025Y-68890100D01*
X149101025Y-68872100D01*
X149134025Y-68857100D01*
X149168025Y-68842100D01*
X149203025Y-68830100D01*
X149238025Y-68820100D01*
X149273025Y-68811100D01*
X149309025Y-68805100D01*
X149346025Y-68800100D01*
X149382025Y-68797100D01*
X149419025Y-68796100D01*
X149456025Y-68797100D01*
%TD*%
D11*
%TO.C,C2*%
X156502500Y-71882000D03*
X153377500Y-71882000D03*
%TD*%
%TO.C,C1*%
X164122500Y-78232000D03*
X160997500Y-78232000D03*
%TD*%
D12*
%TO.C,REF\u002A\u002A*%
X123816000Y-71628000D03*
%TD*%
D13*
%TO.C,J5*%
X120142000Y-85095000D03*
D14*
X120142000Y-82555000D03*
%TD*%
D12*
%TO.C,REF\u002A\u002A*%
X163322000Y-71628000D03*
%TD*%
D15*
%TO.C,R3*%
X127000000Y-84074000D03*
D16*
X127000000Y-76454000D03*
%TD*%
D13*
%TO.C,J4*%
X120142000Y-94488000D03*
%TD*%
D17*
%TO.C,IC1*%
X160114000Y-84328000D03*
D18*
X160114000Y-86868000D03*
X160114000Y-89408000D03*
X160114000Y-91948000D03*
X160114000Y-94488000D03*
X160114000Y-97028000D03*
X160114000Y-99568000D03*
X168054000Y-99568000D03*
X168054000Y-97028000D03*
X168054000Y-94488000D03*
X168054000Y-91948000D03*
X168054000Y-89408000D03*
X168054000Y-86868000D03*
X168054000Y-84328000D03*
%TD*%
D13*
%TO.C,J3*%
X120142000Y-90424000D03*
%TD*%
D15*
%TO.C,R4*%
X123698000Y-94234000D03*
D16*
X123698000Y-86614000D03*
%TD*%
D13*
%TO.C,J2*%
X120142000Y-77216000D03*
%TD*%
D15*
%TO.C,R2*%
X123698000Y-84074000D03*
D16*
X123698000Y-76454000D03*
%TD*%
D15*
%TO.C,R5*%
X127508000Y-73152000D03*
D16*
X135128000Y-73152000D03*
%TD*%
D19*
%TO.C,J1*%
X145819025Y-70396100D03*
X141319025Y-70396100D03*
D20*
X137719025Y-70396100D03*
X149419025Y-70396100D03*
%TD*%
D12*
%TO.C,REF\u002A\u002A*%
X130819000Y-100076000D03*
%TD*%
%TO.C,REF\u002A\u002A*%
X156319000Y-100076000D03*
%TD*%
D13*
%TO.C,J6*%
X120142000Y-98552000D03*
%TD*%
D15*
%TO.C,R1*%
X127000000Y-86614000D03*
D16*
X127000000Y-94234000D03*
%TD*%
D21*
%TO.C,U2*%
X140614000Y-77738000D03*
X140614000Y-75438000D03*
D22*
X146914000Y-75438000D03*
D21*
X140614000Y-73138000D03*
%TD*%
D23*
%TO.C,U1*%
X135969000Y-95963000D03*
X135969000Y-93963000D03*
X135969000Y-91963000D03*
X135969000Y-89963000D03*
X135969000Y-87963000D03*
X135969000Y-85963000D03*
X135969000Y-83963000D03*
X135969000Y-81963000D03*
D24*
X138569000Y-80463000D03*
X140569000Y-80463000D03*
X142569000Y-80463000D03*
X144569000Y-80463000D03*
X146569000Y-80463000D03*
X148569000Y-80463000D03*
D23*
X151169000Y-81963000D03*
X151169000Y-83963000D03*
X151169000Y-85963000D03*
X151169000Y-87963000D03*
X151169000Y-89963000D03*
X151169000Y-91963000D03*
X151169000Y-93963000D03*
X151169000Y-95963000D03*
%TD*%
M02*
