%TF.GenerationSoftware,KiCad,Pcbnew,(6.0.5)*%
%TF.CreationDate,2022-11-09T18:14:35+05:30*%
%TF.ProjectId,USBNightLightV1,5553424e-6967-4687-944c-696768745631,rev?*%
%TF.SameCoordinates,Original*%
%TF.FileFunction,Legend,Top*%
%TF.FilePolarity,Positive*%
%FSLAX46Y46*%
G04 Gerber Fmt 4.6, Leading zero omitted, Abs format (unit mm)*
G04 Created by KiCad (PCBNEW (6.0.5)) date 2022-11-09 18:14:35*
%MOMM*%
%LPD*%
G01*
G04 APERTURE LIST*
%ADD10C,0.125000*%
%ADD11C,0.150000*%
%ADD12C,0.254000*%
%ADD13C,0.120000*%
%ADD14C,0.200000*%
%ADD15C,0.400000*%
G04 APERTURE END LIST*
D10*
X123576000Y-101154666D02*
X123576000Y-100454666D01*
X123742666Y-100454666D01*
X123842666Y-100488000D01*
X123909333Y-100554666D01*
X123942666Y-100621333D01*
X123976000Y-100754666D01*
X123976000Y-100854666D01*
X123942666Y-100988000D01*
X123909333Y-101054666D01*
X123842666Y-101121333D01*
X123742666Y-101154666D01*
X123576000Y-101154666D01*
X124276000Y-101154666D02*
X124276000Y-100688000D01*
X124276000Y-100454666D02*
X124242666Y-100488000D01*
X124276000Y-100521333D01*
X124309333Y-100488000D01*
X124276000Y-100454666D01*
X124276000Y-100521333D01*
X124609333Y-100688000D02*
X124609333Y-101388000D01*
X124609333Y-100721333D02*
X124676000Y-100688000D01*
X124809333Y-100688000D01*
X124876000Y-100721333D01*
X124909333Y-100754666D01*
X124942666Y-100821333D01*
X124942666Y-101021333D01*
X124909333Y-101088000D01*
X124876000Y-101121333D01*
X124809333Y-101154666D01*
X124676000Y-101154666D01*
X124609333Y-101121333D01*
X125509333Y-101121333D02*
X125442666Y-101154666D01*
X125309333Y-101154666D01*
X125242666Y-101121333D01*
X125209333Y-101054666D01*
X125209333Y-100788000D01*
X125242666Y-100721333D01*
X125309333Y-100688000D01*
X125442666Y-100688000D01*
X125509333Y-100721333D01*
X125542666Y-100788000D01*
X125542666Y-100854666D01*
X125209333Y-100921333D01*
X125842666Y-100688000D02*
X125842666Y-101154666D01*
X125842666Y-100754666D02*
X125876000Y-100721333D01*
X125942666Y-100688000D01*
X126042666Y-100688000D01*
X126109333Y-100721333D01*
X126142666Y-100788000D01*
X126142666Y-101154666D01*
X127409333Y-101154666D02*
X127176000Y-100821333D01*
X127009333Y-101154666D02*
X127009333Y-100454666D01*
X127276000Y-100454666D01*
X127342666Y-100488000D01*
X127376000Y-100521333D01*
X127409333Y-100588000D01*
X127409333Y-100688000D01*
X127376000Y-100754666D01*
X127342666Y-100788000D01*
X127276000Y-100821333D01*
X127009333Y-100821333D01*
D11*
%TO.C,J4*%
X119808666Y-92162380D02*
X119808666Y-92876666D01*
X119761047Y-93019523D01*
X119665809Y-93114761D01*
X119522952Y-93162380D01*
X119427714Y-93162380D01*
X120713428Y-92495714D02*
X120713428Y-93162380D01*
X120475333Y-92114761D02*
X120237238Y-92829047D01*
X120856285Y-92829047D01*
D12*
%TO.C,IC1*%
X162844238Y-92522523D02*
X162844238Y-91252523D01*
X164174714Y-92401571D02*
X164114238Y-92462047D01*
X163932809Y-92522523D01*
X163811857Y-92522523D01*
X163630428Y-92462047D01*
X163509476Y-92341095D01*
X163449000Y-92220142D01*
X163388523Y-91978238D01*
X163388523Y-91796809D01*
X163449000Y-91554904D01*
X163509476Y-91433952D01*
X163630428Y-91313000D01*
X163811857Y-91252523D01*
X163932809Y-91252523D01*
X164114238Y-91313000D01*
X164174714Y-91373476D01*
X165384238Y-92522523D02*
X164658523Y-92522523D01*
X165021380Y-92522523D02*
X165021380Y-91252523D01*
X164900428Y-91433952D01*
X164779476Y-91554904D01*
X164658523Y-91615380D01*
D11*
%TO.C,J2*%
X119808666Y-74338380D02*
X119808666Y-75052666D01*
X119761047Y-75195523D01*
X119665809Y-75290761D01*
X119522952Y-75338380D01*
X119427714Y-75338380D01*
X120237238Y-74433619D02*
X120284857Y-74386000D01*
X120380095Y-74338380D01*
X120618190Y-74338380D01*
X120713428Y-74386000D01*
X120761047Y-74433619D01*
X120808666Y-74528857D01*
X120808666Y-74624095D01*
X120761047Y-74766952D01*
X120189619Y-75338380D01*
X120808666Y-75338380D01*
%TO.C,J6*%
X119808666Y-100036380D02*
X119808666Y-100750666D01*
X119761047Y-100893523D01*
X119665809Y-100988761D01*
X119522952Y-101036380D01*
X119427714Y-101036380D01*
X120713428Y-100036380D02*
X120522952Y-100036380D01*
X120427714Y-100084000D01*
X120380095Y-100131619D01*
X120284857Y-100274476D01*
X120237238Y-100464952D01*
X120237238Y-100845904D01*
X120284857Y-100941142D01*
X120332476Y-100988761D01*
X120427714Y-101036380D01*
X120618190Y-101036380D01*
X120713428Y-100988761D01*
X120761047Y-100941142D01*
X120808666Y-100845904D01*
X120808666Y-100607809D01*
X120761047Y-100512571D01*
X120713428Y-100464952D01*
X120618190Y-100417333D01*
X120427714Y-100417333D01*
X120332476Y-100464952D01*
X120284857Y-100512571D01*
X120237238Y-100607809D01*
D13*
%TO.C,D5*%
X139919000Y-82363000D02*
X147219000Y-82363000D01*
X147219000Y-87863000D02*
X147219000Y-86713000D01*
X139919000Y-87863000D02*
X147219000Y-87863000D01*
%TO.C,D3*%
X158178000Y-80463000D02*
X158178000Y-79313000D01*
X150878000Y-80463000D02*
X158178000Y-80463000D01*
X150878000Y-74963000D02*
X158178000Y-74963000D01*
%TO.C,J5*%
X121472000Y-83825000D02*
X121472000Y-81225000D01*
X121472000Y-81225000D02*
X118812000Y-81225000D01*
X121472000Y-85095000D02*
X121472000Y-86425000D01*
X121472000Y-83825000D02*
X118812000Y-83825000D01*
X121472000Y-86425000D02*
X120142000Y-86425000D01*
X118812000Y-83825000D02*
X118812000Y-81225000D01*
%TO.C,D4*%
X136260000Y-87863000D02*
X136260000Y-86713000D01*
X128960000Y-87863000D02*
X136260000Y-87863000D01*
X128960000Y-82363000D02*
X136260000Y-82363000D01*
%TO.C,D8*%
X147219000Y-95263000D02*
X147219000Y-94113000D01*
X139919000Y-95263000D02*
X147219000Y-95263000D01*
X139919000Y-89763000D02*
X147219000Y-89763000D01*
%TO.C,D2*%
X139919000Y-80463000D02*
X147219000Y-80463000D01*
X147219000Y-80463000D02*
X147219000Y-79313000D01*
X139919000Y-74963000D02*
X147219000Y-74963000D01*
%TO.C,R3*%
X128040000Y-83534000D02*
X128370000Y-83534000D01*
X128370000Y-83534000D02*
X128370000Y-76994000D01*
X128370000Y-76994000D02*
X128040000Y-76994000D01*
X125630000Y-83534000D02*
X125630000Y-76994000D01*
X125630000Y-76994000D02*
X125960000Y-76994000D01*
X125960000Y-83534000D02*
X125630000Y-83534000D01*
%TO.C,J4*%
X121412000Y-93158000D02*
X121472000Y-93158000D01*
X121472000Y-95818000D02*
X121472000Y-93158000D01*
X120142000Y-95818000D02*
X118812000Y-95818000D01*
X121412000Y-95818000D02*
X121472000Y-95818000D01*
X121412000Y-95818000D02*
X121412000Y-93158000D01*
X118812000Y-95818000D02*
X118812000Y-94488000D01*
D14*
%TO.C,IC1*%
X159549000Y-82103000D02*
X167384000Y-82103000D01*
X160784000Y-101793000D02*
X167384000Y-101793000D01*
D13*
%TO.C,J3*%
X121472000Y-89154000D02*
X118812000Y-89154000D01*
X121472000Y-89154000D02*
X121472000Y-89094000D01*
X121472000Y-90424000D02*
X121472000Y-91754000D01*
X121472000Y-89094000D02*
X118812000Y-89094000D01*
X121472000Y-91754000D02*
X120142000Y-91754000D01*
X118812000Y-89154000D02*
X118812000Y-89094000D01*
%TO.C,R4*%
X122328000Y-87154000D02*
X122658000Y-87154000D01*
X125068000Y-93694000D02*
X125068000Y-87154000D01*
X122328000Y-93694000D02*
X122328000Y-87154000D01*
X124738000Y-93694000D02*
X125068000Y-93694000D01*
X125068000Y-87154000D02*
X124738000Y-87154000D01*
X122658000Y-93694000D02*
X122328000Y-93694000D01*
%TO.C,J2*%
X118812000Y-75886000D02*
X120142000Y-75886000D01*
X118812000Y-78486000D02*
X118812000Y-78546000D01*
X118812000Y-77216000D02*
X118812000Y-75886000D01*
X118812000Y-78546000D02*
X121472000Y-78546000D01*
X121472000Y-78486000D02*
X121472000Y-78546000D01*
X118812000Y-78486000D02*
X121472000Y-78486000D01*
%TO.C,D9*%
X150878000Y-95263000D02*
X158178000Y-95263000D01*
X158178000Y-95263000D02*
X158178000Y-94113000D01*
X150878000Y-89763000D02*
X158178000Y-89763000D01*
%TO.C,D6*%
X158178000Y-87863000D02*
X158178000Y-86713000D01*
X150878000Y-82363000D02*
X158178000Y-82363000D01*
X150878000Y-87863000D02*
X158178000Y-87863000D01*
%TO.C,R2*%
X124738000Y-83534000D02*
X125068000Y-83534000D01*
X125068000Y-76994000D02*
X124738000Y-76994000D01*
X122658000Y-83534000D02*
X122328000Y-83534000D01*
X122328000Y-83534000D02*
X122328000Y-76994000D01*
X125068000Y-83534000D02*
X125068000Y-76994000D01*
X122328000Y-76994000D02*
X122658000Y-76994000D01*
%TO.C,R5*%
X134588000Y-74522000D02*
X134588000Y-74192000D01*
X134588000Y-71782000D02*
X134588000Y-72112000D01*
X128048000Y-72112000D02*
X128048000Y-71782000D01*
X128048000Y-74522000D02*
X134588000Y-74522000D01*
X128048000Y-71782000D02*
X134588000Y-71782000D01*
X128048000Y-74192000D02*
X128048000Y-74522000D01*
D14*
%TO.C,J1*%
X149538025Y-67831100D02*
X149538025Y-68110100D01*
X149538025Y-67831100D02*
X137600025Y-67831100D01*
X137600025Y-67831100D02*
X137600025Y-68110100D01*
X148395025Y-71463100D02*
X138743025Y-71463100D01*
D15*
X138936466Y-73317100D02*
G75*
G03*
X138936466Y-73317100I-193441J0D01*
G01*
%TO.C,G\u002A\u002A\u002A*%
G36*
X125537517Y-96065378D02*
G01*
X125595783Y-96082325D01*
X125649407Y-96109960D01*
X125696998Y-96147444D01*
X125737166Y-96193940D01*
X125759991Y-96231150D01*
X125786126Y-96293300D01*
X125799902Y-96356363D01*
X125801305Y-96419747D01*
X125790319Y-96482864D01*
X125768058Y-96542752D01*
X125749128Y-96575297D01*
X125723502Y-96608738D01*
X125693532Y-96640848D01*
X125661567Y-96669398D01*
X125629956Y-96692159D01*
X125601048Y-96706905D01*
X125591920Y-96709781D01*
X125575866Y-96717715D01*
X125570877Y-96731084D01*
X125575827Y-96748791D01*
X125581858Y-96762053D01*
X125588238Y-96776582D01*
X125595826Y-96794421D01*
X125605480Y-96817614D01*
X125618059Y-96848205D01*
X125634421Y-96888238D01*
X125635381Y-96890591D01*
X125653261Y-96934372D01*
X125667163Y-96968303D01*
X125677806Y-96994122D01*
X125685906Y-97013566D01*
X125692182Y-97028373D01*
X125694772Y-97034377D01*
X125699161Y-97044856D01*
X125707116Y-97064181D01*
X125717511Y-97089610D01*
X125729222Y-97118399D01*
X125729374Y-97118773D01*
X125745980Y-97159617D01*
X125758973Y-97191373D01*
X125769392Y-97216561D01*
X125778276Y-97237696D01*
X125783548Y-97250055D01*
X125795022Y-97276792D01*
X125803282Y-97295992D01*
X125810035Y-97311611D01*
X125816987Y-97327607D01*
X125818707Y-97331558D01*
X125825783Y-97347980D01*
X125836377Y-97372790D01*
X125849155Y-97402852D01*
X125862781Y-97435032D01*
X125865286Y-97440960D01*
X125879478Y-97474328D01*
X125893652Y-97507245D01*
X125906271Y-97536163D01*
X125915796Y-97557537D01*
X125916695Y-97559506D01*
X125928166Y-97584605D01*
X125941870Y-97614679D01*
X125954883Y-97643311D01*
X125955150Y-97643902D01*
X125968076Y-97672382D01*
X125981714Y-97702414D01*
X125993164Y-97727608D01*
X125993397Y-97728120D01*
X126001953Y-97746332D01*
X126014748Y-97772781D01*
X126030964Y-97805835D01*
X126049782Y-97843866D01*
X126070382Y-97885244D01*
X126091945Y-97928339D01*
X126113653Y-97971521D01*
X126134685Y-98013162D01*
X126154224Y-98051631D01*
X126171450Y-98085298D01*
X126185544Y-98112535D01*
X126195687Y-98131712D01*
X126200866Y-98140899D01*
X126211867Y-98158856D01*
X126221315Y-98175283D01*
X126229054Y-98188849D01*
X126241033Y-98209108D01*
X126255928Y-98233896D01*
X126272413Y-98261047D01*
X126289162Y-98288398D01*
X126304850Y-98313785D01*
X126318151Y-98335043D01*
X126327739Y-98350008D01*
X126332289Y-98356515D01*
X126332357Y-98356577D01*
X126337534Y-98362684D01*
X126348239Y-98376462D01*
X126362612Y-98395495D01*
X126370861Y-98406589D01*
X126412466Y-98457737D01*
X126454535Y-98499676D01*
X126496030Y-98531527D01*
X126535909Y-98552409D01*
X126548512Y-98556736D01*
X126566242Y-98560630D01*
X126583035Y-98560281D01*
X126604573Y-98555427D01*
X126609810Y-98553934D01*
X126644603Y-98540595D01*
X126682340Y-98520854D01*
X126717629Y-98497624D01*
X126726000Y-98491162D01*
X126743644Y-98475688D01*
X126767352Y-98453063D01*
X126794948Y-98425537D01*
X126824259Y-98395364D01*
X126853109Y-98364794D01*
X126879323Y-98336078D01*
X126900726Y-98311470D01*
X126907326Y-98303439D01*
X126924503Y-98282234D01*
X126938878Y-98264836D01*
X126948600Y-98253467D01*
X126951624Y-98250301D01*
X126956457Y-98244367D01*
X126967291Y-98229842D01*
X126982954Y-98208372D01*
X127002273Y-98181607D01*
X127024076Y-98151193D01*
X127047191Y-98118779D01*
X127070445Y-98086013D01*
X127092668Y-98054542D01*
X127112685Y-98026014D01*
X127129326Y-98002077D01*
X127141417Y-97984379D01*
X127147788Y-97974568D01*
X127147875Y-97974419D01*
X127152726Y-97966385D01*
X127163226Y-97949223D01*
X127178447Y-97924441D01*
X127197464Y-97893545D01*
X127219350Y-97858041D01*
X127243178Y-97819437D01*
X127243187Y-97819422D01*
X127266647Y-97781323D01*
X127287792Y-97746761D01*
X127305774Y-97717141D01*
X127319742Y-97693871D01*
X127328849Y-97678355D01*
X127332244Y-97672001D01*
X127332250Y-97671958D01*
X127335274Y-97665480D01*
X127343337Y-97651042D01*
X127354919Y-97631330D01*
X127359647Y-97623478D01*
X127375510Y-97596829D01*
X127391645Y-97568966D01*
X127404772Y-97545558D01*
X127405687Y-97543877D01*
X127418961Y-97519486D01*
X127432736Y-97494317D01*
X127439866Y-97481362D01*
X127449363Y-97463929D01*
X127462681Y-97439176D01*
X127477814Y-97410842D01*
X127488500Y-97390715D01*
X127503440Y-97362567D01*
X127517715Y-97335806D01*
X127529429Y-97313975D01*
X127535273Y-97303193D01*
X127559041Y-97259541D01*
X127578553Y-97223301D01*
X127593367Y-97195309D01*
X127603042Y-97176399D01*
X127607138Y-97167406D01*
X127607250Y-97166885D01*
X127602407Y-97161938D01*
X127590210Y-97153388D01*
X127583812Y-97149396D01*
X127557446Y-97129424D01*
X127531470Y-97102691D01*
X127507800Y-97071994D01*
X127488349Y-97040130D01*
X127475034Y-97009898D01*
X127469768Y-96984094D01*
X127469750Y-96982744D01*
X127467934Y-96963679D01*
X127464225Y-96946261D01*
X127462088Y-96925259D01*
X127464320Y-96896737D01*
X127470165Y-96864577D01*
X127478871Y-96832665D01*
X127489683Y-96804886D01*
X127492897Y-96798540D01*
X127510051Y-96772223D01*
X127532797Y-96744623D01*
X127557918Y-96719119D01*
X127582198Y-96699086D01*
X127595410Y-96690899D01*
X127648636Y-96670474D01*
X127703805Y-96662127D01*
X127759537Y-96665882D01*
X127814448Y-96681763D01*
X127826000Y-96686757D01*
X127843502Y-96697838D01*
X127865501Y-96716019D01*
X127889053Y-96738354D01*
X127911211Y-96761900D01*
X127929031Y-96783710D01*
X127939171Y-96799944D01*
X127960446Y-96858647D01*
X127969424Y-96915387D01*
X127966121Y-96970342D01*
X127959206Y-96999444D01*
X127942194Y-97040692D01*
X127917360Y-97081270D01*
X127887603Y-97117029D01*
X127860557Y-97140571D01*
X127834310Y-97156878D01*
X127805065Y-97171194D01*
X127776841Y-97181828D01*
X127753660Y-97187088D01*
X127749303Y-97187364D01*
X127740978Y-97190248D01*
X127734079Y-97199809D01*
X127727800Y-97217853D01*
X127721337Y-97246183D01*
X127719964Y-97253181D01*
X127714181Y-97280487D01*
X127707384Y-97308845D01*
X127703743Y-97322497D01*
X127698524Y-97343594D01*
X127695279Y-97361789D01*
X127694750Y-97368421D01*
X127693161Y-97382553D01*
X127689113Y-97402869D01*
X127686178Y-97414759D01*
X127679469Y-97441185D01*
X127672821Y-97469211D01*
X127670807Y-97478236D01*
X127665592Y-97501982D01*
X127659257Y-97530511D01*
X127654865Y-97550129D01*
X127648849Y-97577395D01*
X127641847Y-97609900D01*
X127635370Y-97640630D01*
X127635339Y-97640776D01*
X127628993Y-97670786D01*
X127622220Y-97701952D01*
X127616455Y-97727670D01*
X127616311Y-97728298D01*
X127605107Y-97777316D01*
X127594850Y-97822983D01*
X127586258Y-97862071D01*
X127581453Y-97884586D01*
X127576242Y-97909154D01*
X127570084Y-97937714D01*
X127566669Y-97953353D01*
X127561136Y-97978783D01*
X127554457Y-98009859D01*
X127548047Y-98039989D01*
X127547860Y-98040875D01*
X127542119Y-98067682D01*
X127536645Y-98092605D01*
X127532497Y-98110840D01*
X127532038Y-98112767D01*
X127528094Y-98129889D01*
X127522717Y-98154133D01*
X127517041Y-98180385D01*
X127516797Y-98181534D01*
X127503629Y-98242333D01*
X127489829Y-98304220D01*
X127479257Y-98350326D01*
X127473258Y-98377114D01*
X127466859Y-98407211D01*
X127463809Y-98422218D01*
X127457874Y-98451025D01*
X127451084Y-98482436D01*
X127447753Y-98497237D01*
X127442026Y-98522666D01*
X127435185Y-98553742D01*
X127428680Y-98583872D01*
X127428491Y-98584758D01*
X127422306Y-98612587D01*
X127414411Y-98646331D01*
X127405559Y-98682958D01*
X127396503Y-98719436D01*
X127387994Y-98752735D01*
X127380786Y-98779821D01*
X127375743Y-98797311D01*
X127371291Y-98811980D01*
X127364253Y-98835785D01*
X127355469Y-98865838D01*
X127345778Y-98899250D01*
X127336019Y-98933132D01*
X127327030Y-98964595D01*
X127322180Y-98981731D01*
X127315829Y-99003884D01*
X127310047Y-99023390D01*
X127307453Y-99031743D01*
X127303185Y-99045907D01*
X127297099Y-99067215D01*
X127291349Y-99088007D01*
X127284904Y-99110566D01*
X127275840Y-99140824D01*
X127265425Y-99174599D01*
X127256233Y-99203661D01*
X127245860Y-99236236D01*
X127235846Y-99268096D01*
X127227389Y-99295402D01*
X127222055Y-99313063D01*
X127214895Y-99335240D01*
X127207527Y-99354757D01*
X127203737Y-99363075D01*
X127195537Y-99378704D01*
X125479881Y-99380278D01*
X123764224Y-99381852D01*
X123754487Y-99367947D01*
X123747146Y-99354735D01*
X123744750Y-99346126D01*
X123742913Y-99337787D01*
X123737926Y-99320091D01*
X123730577Y-99295547D01*
X123721649Y-99266666D01*
X123711930Y-99235956D01*
X123702205Y-99205928D01*
X123693261Y-99179092D01*
X123685883Y-99157957D01*
X123685452Y-99156774D01*
X123680024Y-99140861D01*
X123672385Y-99117126D01*
X123663866Y-99089734D01*
X123660493Y-99078630D01*
X123651916Y-99050427D01*
X123643654Y-99023687D01*
X123637076Y-99002830D01*
X123635301Y-98997360D01*
X123626931Y-98971327D01*
X123616170Y-98936971D01*
X123604149Y-98897965D01*
X123592004Y-98857983D01*
X123582270Y-98825443D01*
X123572769Y-98793941D01*
X123561947Y-98758856D01*
X123553435Y-98731843D01*
X123546326Y-98708627D01*
X123541052Y-98689542D01*
X123538575Y-98678105D01*
X123538500Y-98677057D01*
X123535581Y-98665045D01*
X123532349Y-98658129D01*
X123527961Y-98647089D01*
X123521152Y-98625799D01*
X123512471Y-98596156D01*
X123502469Y-98560056D01*
X123491695Y-98519394D01*
X123488401Y-98506614D01*
X123484723Y-98492333D01*
X123478697Y-98469027D01*
X123471121Y-98439775D01*
X123462791Y-98407654D01*
X123461703Y-98403464D01*
X123447616Y-98347999D01*
X123436530Y-98301454D01*
X123427765Y-98260804D01*
X123420638Y-98223020D01*
X123419412Y-98215918D01*
X123416135Y-98198132D01*
X123410905Y-98171444D01*
X123404387Y-98139175D01*
X123397244Y-98104650D01*
X123395666Y-98097138D01*
X123387507Y-98058109D01*
X123378869Y-98016312D01*
X123370775Y-97976724D01*
X123364248Y-97944324D01*
X123364179Y-97943976D01*
X123352759Y-97886922D01*
X123341942Y-97833561D01*
X123332351Y-97786955D01*
X123325947Y-97756430D01*
X123321437Y-97733785D01*
X123316411Y-97706508D01*
X123313690Y-97690788D01*
X123309250Y-97665328D01*
X123303579Y-97634216D01*
X123297883Y-97604066D01*
X123297728Y-97603267D01*
X123292211Y-97573922D01*
X123286857Y-97544063D01*
X123282780Y-97519905D01*
X123282616Y-97518871D01*
X123278134Y-97492901D01*
X123273011Y-97466551D01*
X123270816Y-97456356D01*
X123266971Y-97437684D01*
X123261971Y-97411077D01*
X123256631Y-97380945D01*
X123254052Y-97365708D01*
X123249019Y-97337029D01*
X123244009Y-97311160D01*
X123239762Y-97291808D01*
X123237952Y-97285068D01*
X123233897Y-97265654D01*
X123232157Y-97244433D01*
X123229785Y-97220954D01*
X123221501Y-97203960D01*
X123205215Y-97191057D01*
X123178837Y-97179851D01*
X123174484Y-97178370D01*
X123120874Y-97154393D01*
X123075698Y-97121541D01*
X123039611Y-97080722D01*
X123013266Y-97032847D01*
X122997316Y-96978825D01*
X122992387Y-96924975D01*
X122998036Y-96867748D01*
X123014745Y-96814749D01*
X123041615Y-96767287D01*
X123077747Y-96726672D01*
X123122244Y-96694215D01*
X123164024Y-96674722D01*
X123190718Y-96667812D01*
X123222999Y-96663610D01*
X123256549Y-96662274D01*
X123287051Y-96663958D01*
X123310186Y-96668821D01*
X123311643Y-96669373D01*
X123368957Y-96697606D01*
X123415678Y-96732455D01*
X123451854Y-96773977D01*
X123477534Y-96822229D01*
X123492768Y-96877268D01*
X123493612Y-96882452D01*
X123495719Y-96908253D01*
X123495274Y-96937853D01*
X123492667Y-96967922D01*
X123488292Y-96995126D01*
X123482541Y-97016133D01*
X123476601Y-97026899D01*
X123470302Y-97039076D01*
X123469746Y-97043442D01*
X123465436Y-97055349D01*
X123454066Y-97072777D01*
X123437967Y-97092995D01*
X123419467Y-97113270D01*
X123400897Y-97130869D01*
X123385024Y-97142798D01*
X123369328Y-97153770D01*
X123359328Y-97163543D01*
X123357447Y-97167543D01*
X123360152Y-97175634D01*
X123367618Y-97192354D01*
X123378658Y-97215333D01*
X123392085Y-97242205D01*
X123406709Y-97270602D01*
X123421342Y-97298157D01*
X123434797Y-97322501D01*
X123438064Y-97328199D01*
X123445112Y-97340887D01*
X123456420Y-97361819D01*
X123470462Y-97388154D01*
X123485717Y-97417050D01*
X123486660Y-97418846D01*
X123502012Y-97448050D01*
X123514560Y-97471729D01*
X123525674Y-97492340D01*
X123536720Y-97512341D01*
X123549066Y-97534188D01*
X123564079Y-97560339D01*
X123583128Y-97593249D01*
X123598244Y-97619295D01*
X123615809Y-97649604D01*
X123631739Y-97677186D01*
X123644699Y-97699724D01*
X123653354Y-97714900D01*
X123655604Y-97718920D01*
X123665271Y-97735558D01*
X123676257Y-97753304D01*
X123686497Y-97769926D01*
X123694592Y-97784196D01*
X123694782Y-97784561D01*
X123701989Y-97797213D01*
X123712822Y-97814912D01*
X123718312Y-97823553D01*
X123728217Y-97839192D01*
X123742717Y-97862418D01*
X123759895Y-97890145D01*
X123777833Y-97919289D01*
X123778546Y-97920452D01*
X123799446Y-97953691D01*
X123822786Y-97989461D01*
X123845447Y-98023047D01*
X123861359Y-98045680D01*
X123877469Y-98068225D01*
X123890429Y-98086870D01*
X123898729Y-98099411D01*
X123901000Y-98103576D01*
X123904740Y-98110636D01*
X123915168Y-98125849D01*
X123931092Y-98147661D01*
X123951323Y-98174515D01*
X123974669Y-98204857D01*
X123999940Y-98237133D01*
X124025945Y-98269787D01*
X124051494Y-98301264D01*
X124063614Y-98315942D01*
X124116799Y-98377652D01*
X124165350Y-98428999D01*
X124210239Y-98470799D01*
X124252439Y-98503865D01*
X124292923Y-98529009D01*
X124332663Y-98547045D01*
X124345089Y-98551354D01*
X124367824Y-98558431D01*
X124383182Y-98561770D01*
X124395668Y-98561519D01*
X124409784Y-98557828D01*
X124421319Y-98553882D01*
X124449380Y-98540165D01*
X124481677Y-98517985D01*
X124515780Y-98489455D01*
X124549260Y-98456690D01*
X124579686Y-98421803D01*
X124592381Y-98405078D01*
X124606122Y-98386357D01*
X124619766Y-98368290D01*
X124620718Y-98367057D01*
X124629062Y-98355345D01*
X124640773Y-98337755D01*
X124654096Y-98317076D01*
X124667277Y-98296094D01*
X124678561Y-98277599D01*
X124686194Y-98264377D01*
X124688500Y-98259369D01*
X124691558Y-98253503D01*
X124699950Y-98238964D01*
X124712498Y-98217754D01*
X124728027Y-98191873D01*
X124733162Y-98183380D01*
X124748390Y-98157227D01*
X124767808Y-98122323D01*
X124790091Y-98081138D01*
X124813915Y-98036141D01*
X124837957Y-97989803D01*
X124856600Y-97953142D01*
X124884902Y-97896733D01*
X124908625Y-97848987D01*
X124928940Y-97807464D01*
X124947020Y-97769724D01*
X124964037Y-97733331D01*
X124981161Y-97695843D01*
X124994673Y-97665782D01*
X125003806Y-97645497D01*
X125015007Y-97620807D01*
X125021583Y-97606393D01*
X125039427Y-97566927D01*
X125061618Y-97517024D01*
X125075959Y-97484488D01*
X125081178Y-97472737D01*
X125089741Y-97453577D01*
X125099861Y-97431002D01*
X125100603Y-97429350D01*
X125109864Y-97408061D01*
X125116662Y-97391163D01*
X125119699Y-97381909D01*
X125119750Y-97381408D01*
X125122357Y-97372557D01*
X125128640Y-97358629D01*
X125128756Y-97358401D01*
X125133744Y-97348265D01*
X125139667Y-97335473D01*
X125147102Y-97318683D01*
X125156621Y-97296548D01*
X125168799Y-97267727D01*
X125184210Y-97230874D01*
X125203429Y-97184646D01*
X125217780Y-97150030D01*
X125225307Y-97131908D01*
X125231605Y-97116820D01*
X125232097Y-97115647D01*
X125236069Y-97106074D01*
X125243946Y-97086998D01*
X125254878Y-97060481D01*
X125268015Y-97028583D01*
X125282353Y-96993742D01*
X125297124Y-96957909D01*
X125310823Y-96924818D01*
X125322519Y-96896703D01*
X125331284Y-96875797D01*
X125336053Y-96864641D01*
X125341914Y-96850516D01*
X125344710Y-96842110D01*
X125344749Y-96841716D01*
X125347106Y-96834657D01*
X125353153Y-96820022D01*
X125358318Y-96808277D01*
X125374120Y-96771493D01*
X125383911Y-96744535D01*
X125387904Y-96726386D01*
X125386314Y-96716029D01*
X125379353Y-96712447D01*
X125378437Y-96712423D01*
X125359729Y-96707789D01*
X125335531Y-96695116D01*
X125308010Y-96676246D01*
X125279337Y-96653019D01*
X125251679Y-96627277D01*
X125227206Y-96600861D01*
X125208087Y-96575613D01*
X125199437Y-96560448D01*
X125180470Y-96517565D01*
X125167821Y-96481119D01*
X125160526Y-96447385D01*
X125157621Y-96412635D01*
X125157469Y-96398193D01*
X125163783Y-96331929D01*
X125181728Y-96269723D01*
X125210960Y-96212421D01*
X125251136Y-96160869D01*
X125256193Y-96155601D01*
X125304358Y-96114179D01*
X125356314Y-96084593D01*
X125412605Y-96066608D01*
X125473777Y-96059985D01*
X125476000Y-96059956D01*
X125537517Y-96065378D01*
G37*
G36*
X124363223Y-97000645D02*
G01*
X124392975Y-97003735D01*
X124416084Y-97009553D01*
X124419750Y-97011156D01*
X124462914Y-97036536D01*
X124497019Y-97065429D01*
X124511755Y-97083073D01*
X124530028Y-97109674D01*
X124542119Y-97131077D01*
X124549275Y-97151311D01*
X124552742Y-97174404D01*
X124553769Y-97204382D01*
X124553776Y-97218797D01*
X124553352Y-97249505D01*
X124551918Y-97271359D01*
X124548818Y-97288003D01*
X124543399Y-97303081D01*
X124535821Y-97318664D01*
X124508706Y-97361310D01*
X124477340Y-97392967D01*
X124455382Y-97407120D01*
X124441541Y-97414526D01*
X124432452Y-97421299D01*
X124428309Y-97429361D01*
X124429306Y-97440634D01*
X124435636Y-97457040D01*
X124447494Y-97480501D01*
X124465072Y-97512939D01*
X124466262Y-97515119D01*
X124479306Y-97538815D01*
X124491616Y-97560825D01*
X124500695Y-97576687D01*
X124501253Y-97577634D01*
X124510534Y-97593888D01*
X124523893Y-97618188D01*
X124541886Y-97651563D01*
X124564521Y-97694002D01*
X124574082Y-97710576D01*
X124585355Y-97728383D01*
X124585375Y-97728412D01*
X124596176Y-97744949D01*
X124605069Y-97759173D01*
X124605314Y-97759582D01*
X124611146Y-97769119D01*
X124622240Y-97787053D01*
X124637231Y-97811184D01*
X124654751Y-97839309D01*
X124663499Y-97853328D01*
X124681738Y-97882573D01*
X124698092Y-97908862D01*
X124711194Y-97929992D01*
X124719678Y-97943764D01*
X124721685Y-97947075D01*
X124730386Y-97961043D01*
X124741193Y-97977658D01*
X124741625Y-97978306D01*
X124753652Y-97997519D01*
X124765253Y-98017741D01*
X124765430Y-98018069D01*
X124772405Y-98032275D01*
X124773169Y-98041028D01*
X124767723Y-98049726D01*
X124765430Y-98052479D01*
X124755961Y-98063387D01*
X124750670Y-98069006D01*
X124745552Y-98075862D01*
X124736787Y-98089385D01*
X124732972Y-98095575D01*
X124723104Y-98109852D01*
X124715049Y-98118159D01*
X124712990Y-98119019D01*
X124707553Y-98123902D01*
X124707250Y-98126200D01*
X124703002Y-98136189D01*
X124691255Y-98153198D01*
X124673499Y-98175563D01*
X124651224Y-98201619D01*
X124625923Y-98229701D01*
X124599085Y-98258144D01*
X124572203Y-98285283D01*
X124546767Y-98309452D01*
X124529581Y-98324592D01*
X124490262Y-98355454D01*
X124456548Y-98376667D01*
X124426955Y-98388878D01*
X124399998Y-98392735D01*
X124379125Y-98390191D01*
X124350843Y-98379993D01*
X124319614Y-98361820D01*
X124284281Y-98334864D01*
X124243684Y-98298319D01*
X124234097Y-98289073D01*
X124180610Y-98234217D01*
X124130334Y-98176624D01*
X124080949Y-98113455D01*
X124030135Y-98041870D01*
X124020347Y-98027409D01*
X123969258Y-97951428D01*
X124052635Y-97814857D01*
X124075494Y-97777333D01*
X124096310Y-97743014D01*
X124114154Y-97713441D01*
X124128099Y-97690157D01*
X124137217Y-97674701D01*
X124140461Y-97668908D01*
X124146184Y-97657908D01*
X124155297Y-97641365D01*
X124159166Y-97634525D01*
X124168441Y-97617967D01*
X124181496Y-97594291D01*
X124196193Y-97567389D01*
X124203860Y-97553255D01*
X124218630Y-97526033D01*
X124232937Y-97499799D01*
X124244608Y-97478531D01*
X124248900Y-97470781D01*
X124260157Y-97447076D01*
X124262681Y-97430298D01*
X124256244Y-97418217D01*
X124242692Y-97409557D01*
X124215603Y-97391402D01*
X124188996Y-97364036D01*
X124165692Y-97330529D01*
X124159297Y-97318822D01*
X124150528Y-97299766D01*
X124144942Y-97281561D01*
X124141665Y-97260017D01*
X124139823Y-97230947D01*
X124139566Y-97224333D01*
X124139165Y-97192107D01*
X124141449Y-97166846D01*
X124147613Y-97144552D01*
X124158848Y-97121227D01*
X124176348Y-97092873D01*
X124180821Y-97086072D01*
X124198232Y-97065689D01*
X124223050Y-97043932D01*
X124251082Y-97024077D01*
X124278133Y-97009400D01*
X124280019Y-97008594D01*
X124302155Y-97002991D01*
X124331420Y-97000369D01*
X124363223Y-97000645D01*
G37*
G36*
X126554766Y-97000856D02*
G01*
X126584994Y-97004857D01*
X126605075Y-97010934D01*
X126648478Y-97036768D01*
X126686281Y-97071467D01*
X126716306Y-97112521D01*
X126736373Y-97157425D01*
X126738386Y-97164325D01*
X126743451Y-97199790D01*
X126742111Y-97240412D01*
X126734900Y-97280950D01*
X126723043Y-97314730D01*
X126706796Y-97341095D01*
X126683352Y-97369356D01*
X126656487Y-97395421D01*
X126630687Y-97414766D01*
X126618450Y-97426506D01*
X126613433Y-97439925D01*
X126616843Y-97450953D01*
X126619354Y-97452985D01*
X126626190Y-97460759D01*
X126633917Y-97473672D01*
X126643271Y-97491665D01*
X126656735Y-97517149D01*
X126672441Y-97546631D01*
X126688523Y-97576620D01*
X126703115Y-97603623D01*
X126714349Y-97624150D01*
X126714902Y-97625147D01*
X126726587Y-97646317D01*
X126740670Y-97672000D01*
X126750917Y-97690788D01*
X126763745Y-97713394D01*
X126776536Y-97734356D01*
X126785054Y-97747052D01*
X126795414Y-97762111D01*
X126802595Y-97774157D01*
X126803091Y-97775184D01*
X126809548Y-97787060D01*
X126818256Y-97801107D01*
X126836985Y-97830110D01*
X126857360Y-97862494D01*
X126878324Y-97896481D01*
X126898818Y-97930296D01*
X126917783Y-97962163D01*
X126934160Y-97990305D01*
X126946891Y-98012945D01*
X126954917Y-98028307D01*
X126957250Y-98034333D01*
X126953355Y-98044413D01*
X126942534Y-98062244D01*
X126926081Y-98086155D01*
X126905289Y-98114477D01*
X126881452Y-98145540D01*
X126855863Y-98177675D01*
X126829817Y-98209212D01*
X126804608Y-98238482D01*
X126781528Y-98263815D01*
X126770992Y-98274684D01*
X126733699Y-98310848D01*
X126702009Y-98338574D01*
X126673941Y-98359365D01*
X126647515Y-98374723D01*
X126627436Y-98383638D01*
X126607451Y-98390640D01*
X126591457Y-98393109D01*
X126574674Y-98390924D01*
X126552322Y-98383965D01*
X126545640Y-98381587D01*
X126507088Y-98362580D01*
X126464506Y-98331847D01*
X126417880Y-98289374D01*
X126367198Y-98235147D01*
X126312445Y-98169152D01*
X126253611Y-98091376D01*
X126192540Y-98004533D01*
X126179019Y-97983544D01*
X126168852Y-97965559D01*
X126163774Y-97953715D01*
X126163500Y-97951940D01*
X126166642Y-97943117D01*
X126175244Y-97926039D01*
X126188063Y-97903010D01*
X126203859Y-97876331D01*
X126207250Y-97870787D01*
X126223359Y-97844417D01*
X126236797Y-97822097D01*
X126246353Y-97805860D01*
X126250819Y-97797740D01*
X126251000Y-97797228D01*
X126254174Y-97791206D01*
X126262519Y-97777652D01*
X126274265Y-97759436D01*
X126274923Y-97758434D01*
X126287611Y-97738734D01*
X126297755Y-97722252D01*
X126303102Y-97712669D01*
X126308993Y-97701437D01*
X126318239Y-97685400D01*
X126320638Y-97681411D01*
X126331151Y-97663470D01*
X126344076Y-97640579D01*
X126352559Y-97625147D01*
X126366557Y-97599406D01*
X126381701Y-97571672D01*
X126389225Y-97557943D01*
X126402713Y-97533332D01*
X126417945Y-97505463D01*
X126426827Y-97489176D01*
X126437791Y-97469503D01*
X126446974Y-97453835D01*
X126451935Y-97446208D01*
X126454866Y-97434021D01*
X126447260Y-97421562D01*
X126435042Y-97413581D01*
X126403538Y-97393080D01*
X126374803Y-97362849D01*
X126350563Y-97325619D01*
X126332546Y-97284121D01*
X126322476Y-97241083D01*
X126321732Y-97234384D01*
X126323439Y-97188098D01*
X126336272Y-97142443D01*
X126358934Y-97099433D01*
X126390127Y-97061086D01*
X126428554Y-97029418D01*
X126466803Y-97008893D01*
X126490723Y-97002801D01*
X126521694Y-97000147D01*
X126554766Y-97000856D01*
G37*
G36*
X125455717Y-99487229D02*
G01*
X125582631Y-99487281D01*
X125709042Y-99487376D01*
X125834331Y-99487514D01*
X125957878Y-99487696D01*
X126079065Y-99487920D01*
X126197274Y-99488188D01*
X126311884Y-99488497D01*
X126422279Y-99488849D01*
X126527837Y-99489243D01*
X126627942Y-99489679D01*
X126721973Y-99490157D01*
X126809312Y-99490677D01*
X126889341Y-99491238D01*
X126961439Y-99491840D01*
X127024989Y-99492483D01*
X127079372Y-99493167D01*
X127123968Y-99493891D01*
X127158160Y-99494656D01*
X127181327Y-99495462D01*
X127192851Y-99496307D01*
X127194053Y-99496643D01*
X127195928Y-99503144D01*
X127197425Y-99518084D01*
X127198555Y-99542099D01*
X127199331Y-99575825D01*
X127199767Y-99619899D01*
X127199874Y-99674958D01*
X127199665Y-99741638D01*
X127199505Y-99770148D01*
X127197875Y-100035115D01*
X125481740Y-100036689D01*
X125336086Y-100036808D01*
X125193688Y-100036894D01*
X125055051Y-100036949D01*
X124920684Y-100036973D01*
X124791091Y-100036967D01*
X124666781Y-100036932D01*
X124548259Y-100036869D01*
X124436032Y-100036778D01*
X124330606Y-100036660D01*
X124232489Y-100036516D01*
X124142187Y-100036347D01*
X124060207Y-100036153D01*
X123987054Y-100035936D01*
X123923236Y-100035695D01*
X123869260Y-100035432D01*
X123825631Y-100035147D01*
X123792857Y-100034842D01*
X123771444Y-100034517D01*
X123761899Y-100034173D01*
X123761427Y-100034084D01*
X123760537Y-100027137D01*
X123759712Y-100009003D01*
X123758972Y-99980999D01*
X123758338Y-99944443D01*
X123757830Y-99900651D01*
X123757470Y-99850941D01*
X123757277Y-99796628D01*
X123757250Y-99766507D01*
X123757346Y-99697329D01*
X123757652Y-99639845D01*
X123758188Y-99593248D01*
X123758978Y-99556732D01*
X123760044Y-99529490D01*
X123761408Y-99510714D01*
X123763092Y-99499597D01*
X123764749Y-99495607D01*
X123771773Y-99494751D01*
X123790670Y-99493941D01*
X123820821Y-99493179D01*
X123861609Y-99492463D01*
X123912414Y-99491795D01*
X123972617Y-99491172D01*
X124041599Y-99490596D01*
X124118742Y-99490066D01*
X124203427Y-99489581D01*
X124295034Y-99489143D01*
X124392946Y-99488750D01*
X124496542Y-99488402D01*
X124605205Y-99488099D01*
X124718316Y-99487842D01*
X124835255Y-99487629D01*
X124955403Y-99487460D01*
X125078143Y-99487336D01*
X125202854Y-99487257D01*
X125328918Y-99487221D01*
X125455717Y-99487229D01*
G37*
D13*
%TO.C,D1*%
X128960000Y-74963000D02*
X136260000Y-74963000D01*
X136260000Y-80463000D02*
X136260000Y-79313000D01*
X128960000Y-80463000D02*
X136260000Y-80463000D01*
%TO.C,D7*%
X136260000Y-95263000D02*
X136260000Y-94113000D01*
X128960000Y-89763000D02*
X136260000Y-89763000D01*
X128960000Y-95263000D02*
X136260000Y-95263000D01*
%TO.C,J6*%
X121412000Y-97222000D02*
X121472000Y-97222000D01*
X121472000Y-99882000D02*
X121472000Y-97222000D01*
X121412000Y-99882000D02*
X121412000Y-97222000D01*
X120142000Y-99882000D02*
X118812000Y-99882000D01*
X118812000Y-99882000D02*
X118812000Y-98552000D01*
X121412000Y-99882000D02*
X121472000Y-99882000D01*
%TO.C,R1*%
X125960000Y-87154000D02*
X125630000Y-87154000D01*
X128370000Y-87154000D02*
X128370000Y-93694000D01*
X128040000Y-87154000D02*
X128370000Y-87154000D01*
X128370000Y-93694000D02*
X128040000Y-93694000D01*
X125630000Y-93694000D02*
X125960000Y-93694000D01*
X125630000Y-87154000D02*
X125630000Y-93694000D01*
%TD*%
M02*
