%TF.GenerationSoftware,KiCad,Pcbnew,(6.0.5)*%
%TF.CreationDate,2022-11-09T18:14:35+05:30*%
%TF.ProjectId,USBNightLightV1,5553424e-6967-4687-944c-696768745631,rev?*%
%TF.SameCoordinates,Original*%
%TF.FileFunction,Profile,NP*%
%FSLAX46Y46*%
G04 Gerber Fmt 4.6, Leading zero omitted, Abs format (unit mm)*
G04 Created by KiCad (PCBNEW (6.0.5)) date 2022-11-09 18:14:35*
%MOMM*%
%LPD*%
G01*
G04 APERTURE LIST*
%TA.AperFunction,Profile*%
%ADD10C,0.050000*%
%TD*%
%TA.AperFunction,Profile*%
%ADD11C,0.100000*%
%TD*%
%TA.AperFunction,Profile*%
%ADD12C,0.010000*%
%TD*%
G04 APERTURE END LIST*
D10*
X152019000Y-97282000D02*
X135119000Y-97282000D01*
X117470000Y-104140000D02*
X135119000Y-104140000D01*
X152019000Y-97282000D02*
X152019000Y-104140000D01*
X117470000Y-68580000D02*
X117470000Y-104140000D01*
X135119000Y-104140000D02*
X135119000Y-97282000D01*
X169668000Y-68580000D02*
X169668000Y-104140000D01*
D11*
X117470000Y-68580000D02*
X169668000Y-68580000D01*
D10*
X152019000Y-104140000D02*
X169668000Y-104140000D01*
D12*
%TO.C,J1*%
X149069025Y-71296100D02*
X149069025Y-69496100D01*
X149769025Y-69496100D02*
X149769025Y-71296100D01*
X138069025Y-69496100D02*
X138069025Y-71296100D01*
X137369025Y-71296100D02*
X137369025Y-69496100D01*
X137719025Y-71646100D02*
G75*
G03*
X138069025Y-71296100I0J350000D01*
G01*
X149419025Y-71646100D02*
G75*
G03*
X149769025Y-71296100I-1J350001D01*
G01*
X149069025Y-71296100D02*
G75*
G03*
X149419025Y-71646100I350001J1D01*
G01*
X137369025Y-71296100D02*
G75*
G03*
X137719025Y-71646100I350000J0D01*
G01*
X137719025Y-69146100D02*
G75*
G03*
X137369025Y-69496100I0J-350000D01*
G01*
X149419025Y-69146100D02*
G75*
G03*
X149069025Y-69496100I1J-350001D01*
G01*
X149769025Y-69496100D02*
G75*
G03*
X149419025Y-69146100I-350001J-1D01*
G01*
X138069025Y-69496100D02*
G75*
G03*
X137719025Y-69146100I-350000J0D01*
G01*
%TD*%
M02*
