M48
; DRILL file {KiCad (6.0.5)} date Wed Nov  9 18:14:29 2022
; FORMAT={-:-/ absolute / inch / decimal}
; #@! TF.CreationDate,2022-11-09T18:14:29+05:30
; #@! TF.GenerationSoftware,Kicad,Pcbnew,(6.0.5)
; #@! TF.FileFunction,Plated,1,2,PTH
FMAT,2
INCH
; #@! TA.AperFunction,Plated,PTH,ViaDrill
T1C0.0157
; #@! TA.AperFunction,Plated,PTH,ComponentDrill
T2C0.0287
; #@! TA.AperFunction,Plated,PTH,ComponentDrill
T3C0.0315
; #@! TA.AperFunction,Plated,PTH,ComponentDrill
T4C0.0394
%
G90
G05
T1
X4.8003Y-3.3203
X4.85Y-3.56
X4.96Y-3.07
X5.04Y-3.56
X5.1106Y-3.5
X5.23Y-3.782
X5.25Y-3.34
X5.2625Y-3.722
X5.3Y-3.87
X5.4Y-3.11
X5.42Y-2.89
X5.4242Y-3.4917
X5.43Y-3.6443
X5.45Y-3.57
X5.4539Y-3.613
X5.55Y-3.5
X5.65Y-3.04
X5.6545Y-3.221
X5.75Y-3.64
X5.8098Y-3.2598
X5.8196Y-3.64
X5.8402Y-3.3102
X5.86Y-3.38
X5.88Y-3.782
X5.95Y-3.1836
X5.9715Y-2.8798
X6.06Y-3.0
X6.06Y-3.13
X6.1Y-3.28
X6.21Y-3.34
X6.2272Y-2.776
X6.2387Y-3.2213
X6.2622Y-3.0965
X6.4Y-3.42
T2
X6.3037Y-3.32
X6.3037Y-3.42
X6.3037Y-3.52
X6.3037Y-3.62
X6.3037Y-3.72
X6.3037Y-3.82
X6.3037Y-3.92
X6.6163Y-3.32
X6.6163Y-3.42
X6.6163Y-3.52
X6.6163Y-3.62
X6.6163Y-3.72
X6.6163Y-3.82
X6.6163Y-3.92
T3
X4.87Y-3.01
X4.87Y-3.31
X4.87Y-3.41
X4.87Y-3.71
X5.0Y-3.01
X5.0Y-3.31
X5.0Y-3.41
X5.0Y-3.71
X5.02Y-2.88
X5.32Y-2.88
T4
X4.73Y-3.04
X4.73Y-3.2502
X4.73Y-3.3502
X4.73Y-3.56
X4.73Y-3.72
X4.73Y-3.88
T0
M30
