%TF.GenerationSoftware,KiCad,Pcbnew,(6.0.5)*%
%TF.CreationDate,2022-11-09T18:14:35+05:30*%
%TF.ProjectId,USBNightLightV1,5553424e-6967-4687-944c-696768745631,rev?*%
%TF.SameCoordinates,Original*%
%TF.FileFunction,Copper,L2,Bot*%
%TF.FilePolarity,Positive*%
%FSLAX46Y46*%
G04 Gerber Fmt 4.6, Leading zero omitted, Abs format (unit mm)*
G04 Created by KiCad (PCBNEW (6.0.5)) date 2022-11-09 18:14:35*
%MOMM*%
%LPD*%
G01*
G04 APERTURE LIST*
G04 Aperture macros list*
%AMRoundRect*
0 Rectangle with rounded corners*
0 $1 Rounding radius*
0 $2 $3 $4 $5 $6 $7 $8 $9 X,Y pos of 4 corners*
0 Add a 4 corners polygon primitive as box body*
4,1,4,$2,$3,$4,$5,$6,$7,$8,$9,$2,$3,0*
0 Add four circle primitives for the rounded corners*
1,1,$1+$1,$2,$3*
1,1,$1+$1,$4,$5*
1,1,$1+$1,$6,$7*
1,1,$1+$1,$8,$9*
0 Add four rect primitives between the rounded corners*
20,1,$1+$1,$2,$3,$4,$5,0*
20,1,$1+$1,$4,$5,$6,$7,0*
20,1,$1+$1,$6,$7,$8,$9,0*
20,1,$1+$1,$8,$9,$2,$3,0*%
G04 Aperture macros list end*
%TA.AperFunction,EtchedComponent*%
%ADD10C,0.300000*%
%TD*%
%TA.AperFunction,SMDPad,CuDef*%
%ADD11RoundRect,0.250000X0.412500X0.650000X-0.412500X0.650000X-0.412500X-0.650000X0.412500X-0.650000X0*%
%TD*%
%TA.AperFunction,ComponentPad*%
%ADD12R,1.700000X1.700000*%
%TD*%
%TA.AperFunction,ComponentPad*%
%ADD13O,1.700000X1.700000*%
%TD*%
%TA.AperFunction,ComponentPad*%
%ADD14C,1.600000*%
%TD*%
%TA.AperFunction,ComponentPad*%
%ADD15O,1.600000X1.600000*%
%TD*%
%TA.AperFunction,ComponentPad*%
%ADD16R,1.130000X1.130000*%
%TD*%
%TA.AperFunction,ComponentPad*%
%ADD17C,1.130000*%
%TD*%
%TA.AperFunction,SMDPad,CuDef*%
%ADD18R,2.000000X1.500000*%
%TD*%
%TA.AperFunction,SMDPad,CuDef*%
%ADD19R,2.000000X3.800000*%
%TD*%
%TA.AperFunction,SMDPad,CuDef*%
%ADD20R,2.500000X1.000000*%
%TD*%
%TA.AperFunction,SMDPad,CuDef*%
%ADD21R,1.000000X1.800000*%
%TD*%
%TA.AperFunction,ViaPad*%
%ADD22C,0.800000*%
%TD*%
%TA.AperFunction,Conductor*%
%ADD23C,0.250000*%
%TD*%
G04 APERTURE END LIST*
D10*
%TO.C,J1*%
X137219025Y-71296100D02*
X137219025Y-69496100D01*
X148919025Y-71296100D02*
X148919025Y-69496100D01*
X138219025Y-69496100D02*
X138219025Y-71296100D01*
X149919025Y-69496100D02*
X149919025Y-71296100D01*
X148919025Y-71296100D02*
G75*
G03*
X149419025Y-71796100I500001J1D01*
G01*
X137719025Y-71796100D02*
G75*
G03*
X138219025Y-71296100I0J500000D01*
G01*
X149419025Y-68996100D02*
G75*
G03*
X148919025Y-69496100I1J-500001D01*
G01*
X149919025Y-69496100D02*
G75*
G03*
X149419025Y-68996100I-500001J-1D01*
G01*
X137219025Y-71296100D02*
G75*
G03*
X137719025Y-71796100I500000J0D01*
G01*
X149419025Y-71796100D02*
G75*
G03*
X149919025Y-71296100I-1J500001D01*
G01*
X137719025Y-68996100D02*
G75*
G03*
X137219025Y-69496100I0J-500000D01*
G01*
X138219025Y-69496100D02*
G75*
G03*
X137719025Y-68996100I-500000J0D01*
G01*
%TD*%
D11*
%TO.P,C2,1*%
%TO.N,3.3V*%
X156502500Y-71882000D03*
%TO.P,C2,2*%
%TO.N,GND*%
X153377500Y-71882000D03*
%TD*%
%TO.P,C1,1*%
%TO.N,VCC*%
X164122500Y-78232000D03*
%TO.P,C1,2*%
%TO.N,GND*%
X160997500Y-78232000D03*
%TD*%
D12*
%TO.P,J5,1,Pin_1*%
%TO.N,GPIO0*%
X120142000Y-85095000D03*
D13*
%TO.P,J5,2,Pin_2*%
%TO.N,GND*%
X120142000Y-82555000D03*
%TD*%
D14*
%TO.P,R3,1*%
%TO.N,3.3V*%
X127000000Y-84074000D03*
D15*
%TO.P,R3,2*%
%TO.N,GPIO0*%
X127000000Y-76454000D03*
%TD*%
D12*
%TO.P,J4,1,Pin_1*%
%TO.N,Net-(J4-Pad1)*%
X120142000Y-94488000D03*
%TD*%
D16*
%TO.P,IC1,1,1~{OE}*%
%TO.N,GND*%
X160114000Y-84328000D03*
D17*
%TO.P,IC1,2,1A*%
%TO.N,DataI{slash}P*%
X160114000Y-86868000D03*
%TO.P,IC1,3,1Y*%
%TO.N,DataO{slash}P*%
X160114000Y-89408000D03*
%TO.P,IC1,4,2~{OE}*%
%TO.N,unconnected-(IC1-Pad4)*%
X160114000Y-91948000D03*
%TO.P,IC1,5,2A*%
%TO.N,unconnected-(IC1-Pad5)*%
X160114000Y-94488000D03*
%TO.P,IC1,6,2Y*%
%TO.N,unconnected-(IC1-Pad6)*%
X160114000Y-97028000D03*
%TO.P,IC1,7,GND*%
%TO.N,GND*%
X160114000Y-99568000D03*
%TO.P,IC1,8,3Y*%
%TO.N,unconnected-(IC1-Pad8)*%
X168054000Y-99568000D03*
%TO.P,IC1,9,3A*%
%TO.N,unconnected-(IC1-Pad9)*%
X168054000Y-97028000D03*
%TO.P,IC1,10,3~{OE}*%
%TO.N,unconnected-(IC1-Pad10)*%
X168054000Y-94488000D03*
%TO.P,IC1,11,4Y*%
%TO.N,unconnected-(IC1-Pad11)*%
X168054000Y-91948000D03*
%TO.P,IC1,12,4A*%
%TO.N,unconnected-(IC1-Pad12)*%
X168054000Y-89408000D03*
%TO.P,IC1,13,4~{OE}*%
%TO.N,unconnected-(IC1-Pad13)*%
X168054000Y-86868000D03*
%TO.P,IC1,14,VCC*%
%TO.N,VCC*%
X168054000Y-84328000D03*
%TD*%
D12*
%TO.P,J3,1,Pin_1*%
%TO.N,Net-(J3-Pad1)*%
X120142000Y-90424000D03*
%TD*%
D14*
%TO.P,R4,1*%
%TO.N,Net-(R4-Pad1)*%
X123698000Y-94234000D03*
D15*
%TO.P,R4,2*%
%TO.N,GND*%
X123698000Y-86614000D03*
%TD*%
D12*
%TO.P,J2,1,Pin_1*%
%TO.N,Net-(J2-Pad1)*%
X120142000Y-77216000D03*
%TD*%
D14*
%TO.P,R2,1*%
%TO.N,3.3V*%
X123698000Y-84074000D03*
D15*
%TO.P,R2,2*%
%TO.N,Net-(R2-Pad2)*%
X123698000Y-76454000D03*
%TD*%
D14*
%TO.P,R5,1*%
%TO.N,3.3V*%
X127508000Y-73152000D03*
D15*
%TO.P,R5,2*%
%TO.N,Net-(J4-Pad1)*%
X135128000Y-73152000D03*
%TD*%
D12*
%TO.P,J6,1,Pin_1*%
%TO.N,DataI{slash}P*%
X120142000Y-98552000D03*
%TD*%
D14*
%TO.P,R1,1*%
%TO.N,3.3V*%
X127000000Y-86614000D03*
D15*
%TO.P,R1,2*%
%TO.N,Net-(R1-Pad2)*%
X127000000Y-94234000D03*
%TD*%
D18*
%TO.P,U2,1,GND*%
%TO.N,GND*%
X140614000Y-77738000D03*
%TO.P,U2,2,VO*%
%TO.N,3.3V*%
X140614000Y-75438000D03*
D19*
X146914000Y-75438000D03*
D18*
%TO.P,U2,3,VI*%
%TO.N,VCC*%
X140614000Y-73138000D03*
%TD*%
D20*
%TO.P,U1,1,~{RST}*%
%TO.N,Net-(R2-Pad2)*%
X135969000Y-95963000D03*
%TO.P,U1,2,ADC*%
%TO.N,unconnected-(U1-Pad2)*%
X135969000Y-93963000D03*
%TO.P,U1,3,EN*%
%TO.N,Net-(R1-Pad2)*%
X135969000Y-91963000D03*
%TO.P,U1,4,GPIO16*%
%TO.N,unconnected-(U1-Pad4)*%
X135969000Y-89963000D03*
%TO.P,U1,5,GPIO14*%
%TO.N,unconnected-(U1-Pad5)*%
X135969000Y-87963000D03*
%TO.P,U1,6,GPIO12*%
%TO.N,unconnected-(U1-Pad6)*%
X135969000Y-85963000D03*
%TO.P,U1,7,GPIO13*%
%TO.N,unconnected-(U1-Pad7)*%
X135969000Y-83963000D03*
%TO.P,U1,8,VCC*%
%TO.N,3.3V*%
X135969000Y-81963000D03*
D21*
%TO.P,U1,9,CS0*%
%TO.N,unconnected-(U1-Pad9)*%
X138569000Y-80463000D03*
%TO.P,U1,10,MISO*%
%TO.N,unconnected-(U1-Pad10)*%
X140569000Y-80463000D03*
%TO.P,U1,11,GPIO9*%
%TO.N,unconnected-(U1-Pad11)*%
X142569000Y-80463000D03*
%TO.P,U1,12,GPIO10*%
%TO.N,unconnected-(U1-Pad12)*%
X144569000Y-80463000D03*
%TO.P,U1,13,MOSI*%
%TO.N,unconnected-(U1-Pad13)*%
X146569000Y-80463000D03*
%TO.P,U1,14,SCLK*%
%TO.N,unconnected-(U1-Pad14)*%
X148569000Y-80463000D03*
D20*
%TO.P,U1,15,GND*%
%TO.N,GND*%
X151169000Y-81963000D03*
%TO.P,U1,16,GPIO15*%
%TO.N,Net-(R4-Pad1)*%
X151169000Y-83963000D03*
%TO.P,U1,17,GPIO2*%
%TO.N,Net-(J4-Pad1)*%
X151169000Y-85963000D03*
%TO.P,U1,18,GPIO0*%
%TO.N,GPIO0*%
X151169000Y-87963000D03*
%TO.P,U1,19,GPIO4*%
%TO.N,unconnected-(U1-Pad19)*%
X151169000Y-89963000D03*
%TO.P,U1,20,GPIO5*%
%TO.N,unconnected-(U1-Pad20)*%
X151169000Y-91963000D03*
%TO.P,U1,21,GPIO3/RXD*%
%TO.N,Net-(J3-Pad1)*%
X151169000Y-93963000D03*
%TO.P,U1,22,GPIO1/TXD*%
%TO.N,Net-(J2-Pad1)*%
X151169000Y-95963000D03*
%TD*%
D22*
%TO.N,GND*%
X159060000Y-78650000D03*
%TO.N,Net-(J4-Pad1)*%
X158170000Y-70510000D03*
%TO.N,GND*%
X151675900Y-73146100D03*
%TO.N,VCC*%
X137668000Y-73406000D03*
X153924000Y-76200000D03*
X153924000Y-79502000D03*
%TO.N,GND*%
X137774162Y-88689269D03*
X133350000Y-84836000D03*
X121926799Y-84334799D03*
X137160000Y-78994000D03*
X125984000Y-77978000D03*
X133667312Y-94539286D03*
X129809989Y-88900000D03*
X137922000Y-92563989D03*
%TO.N,DataO{slash}P*%
X143510000Y-77216000D03*
%TO.N,Net-(D5-Pad4)*%
X151130000Y-80863498D03*
X154940000Y-83312000D03*
%TO.N,Net-(D6-Pad4)*%
X140970000Y-88900000D03*
X138430000Y-90678000D03*
%TO.N,Net-(D8-Pad4)*%
X147818011Y-92456000D03*
X146050000Y-92456000D03*
%TO.N,DataI{slash}P*%
X162560000Y-86868000D03*
%TO.N,Net-(J2-Pad1)*%
X134620000Y-98298000D03*
X149352000Y-96063011D03*
%TO.N,Net-(J3-Pad1)*%
X148340299Y-84078299D03*
X123190000Y-90424000D03*
X143624850Y-81813982D03*
X148844000Y-85852000D03*
X147569701Y-82799701D03*
X128016000Y-90424000D03*
%TO.N,Net-(J4-Pad1)*%
X158462201Y-81821799D03*
X157734000Y-84836000D03*
%TO.N,Net-(R2-Pad2)*%
X132842000Y-96063011D03*
%TO.N,Net-(R4-Pad1)*%
X138528649Y-91769646D03*
%TD*%
D23*
%TO.N,VCC*%
X156418520Y-77007480D02*
X153924000Y-79502000D01*
X164122500Y-78232000D02*
X162897980Y-77007480D01*
X162897980Y-77007480D02*
X156418520Y-77007480D01*
X168054000Y-82163500D02*
X168054000Y-84328000D01*
X164122500Y-78232000D02*
X168054000Y-82163500D01*
%TO.N,3.3V*%
X151742000Y-75438000D02*
X146914000Y-75438000D01*
X155298000Y-71882000D02*
X151742000Y-75438000D01*
X156502500Y-71882000D02*
X155298000Y-71882000D01*
%TO.N,GND*%
X160579500Y-78650000D02*
X160997500Y-78232000D01*
X159060000Y-78650000D02*
X160579500Y-78650000D01*
%TO.N,Net-(J4-Pad1)*%
X158068000Y-70612000D02*
X158170000Y-70510000D01*
X157861717Y-70612000D02*
X158068000Y-70612000D01*
%TO.N,GND*%
X153377500Y-71882000D02*
X152940000Y-71882000D01*
X152940000Y-71882000D02*
X151675900Y-73146100D01*
%TO.N,VCC*%
X153924000Y-79502000D02*
X153924000Y-76200000D01*
X140614000Y-73138000D02*
X137936000Y-73138000D01*
X137936000Y-73138000D02*
X137668000Y-73406000D01*
%TO.N,GND*%
X137705489Y-88757942D02*
X137705489Y-92347478D01*
X129809989Y-88900000D02*
X125984000Y-88900000D01*
X159860000Y-84074000D02*
X160114000Y-84328000D01*
X121926799Y-84842799D02*
X121926799Y-84334799D01*
X121407000Y-82555000D02*
X125984000Y-77978000D01*
X133350000Y-85359989D02*
X129809989Y-88900000D01*
X133350000Y-84836000D02*
X133350000Y-85359989D01*
X125984000Y-88900000D02*
X123698000Y-86614000D01*
X138416000Y-77738000D02*
X140614000Y-77738000D01*
X144500431Y-81963000D02*
X137774162Y-88689269D01*
X151169000Y-81963000D02*
X151919000Y-81963000D01*
X120142000Y-82555000D02*
X121407000Y-82555000D01*
X137774162Y-88689269D02*
X137705489Y-88757942D01*
X137543511Y-94787511D02*
X133915537Y-94787511D01*
X133915537Y-94787511D02*
X133667312Y-94539286D01*
X123698000Y-86614000D02*
X121926799Y-84842799D01*
X137922000Y-92563989D02*
X137922000Y-94409022D01*
X137705489Y-92347478D02*
X137922000Y-92563989D01*
X137160000Y-78994000D02*
X138416000Y-77738000D01*
X151919000Y-81963000D02*
X154030000Y-84074000D01*
X151169000Y-81963000D02*
X144500431Y-81963000D01*
X154030000Y-84074000D02*
X159860000Y-84074000D01*
X137922000Y-94409022D02*
X137543511Y-94787511D01*
%TO.N,3.3V*%
X139691386Y-75438000D02*
X140614000Y-75438000D01*
X135969000Y-79160386D02*
X139691386Y-75438000D01*
X135969000Y-81963000D02*
X135969000Y-79160386D01*
X127000000Y-84074000D02*
X129111000Y-81963000D01*
X140614000Y-75438000D02*
X146914000Y-75438000D01*
X129111000Y-81963000D02*
X135969000Y-81963000D01*
%TO.N,DataO{slash}P*%
X161044614Y-89408000D02*
X160114000Y-89408000D01*
X156590489Y-83438489D02*
X161003511Y-83438489D01*
X152390489Y-79238489D02*
X156590489Y-83438489D01*
X143510000Y-77216000D02*
X145532489Y-79238489D01*
X161003511Y-83438489D02*
X163284511Y-85719489D01*
X163284511Y-85719489D02*
X163284511Y-87168103D01*
X163284511Y-87168103D02*
X161044614Y-89408000D01*
X145532489Y-79238489D02*
X152390489Y-79238489D01*
%TO.N,Net-(D5-Pad4)*%
X151130000Y-80863498D02*
X152491498Y-80863498D01*
X152491498Y-80863498D02*
X154940000Y-83312000D01*
%TO.N,Net-(D6-Pad4)*%
X140208000Y-88900000D02*
X138430000Y-90678000D01*
X140970000Y-88900000D02*
X140208000Y-88900000D01*
%TO.N,Net-(D8-Pad4)*%
X147818011Y-92456000D02*
X146050000Y-92456000D01*
%TO.N,DataI{slash}P*%
X162560000Y-86868000D02*
X160114000Y-86868000D01*
%TO.N,Net-(J2-Pad1)*%
X149452011Y-95963000D02*
X149352000Y-96063011D01*
X134620000Y-98298000D02*
X122745022Y-98298000D01*
X122745022Y-98298000D02*
X120109533Y-95662511D01*
X118967489Y-95662511D02*
X118517969Y-95212991D01*
X118517969Y-78840031D02*
X120142000Y-77216000D01*
X151169000Y-95963000D02*
X149452011Y-95963000D01*
X120109533Y-95662511D02*
X118967489Y-95662511D01*
X118517969Y-95212991D02*
X118517969Y-78840031D01*
%TO.N,Net-(J3-Pad1)*%
X148844000Y-92388000D02*
X148844000Y-85852000D01*
X150419000Y-93963000D02*
X148844000Y-92388000D01*
X148336000Y-83566000D02*
X148336000Y-84074000D01*
X131108978Y-90424000D02*
X134745467Y-86787511D01*
X151169000Y-93963000D02*
X150419000Y-93963000D01*
X134745467Y-86787511D02*
X138651321Y-86787511D01*
X120142000Y-90424000D02*
X123190000Y-90424000D01*
X138651321Y-86787511D02*
X143624850Y-81813982D01*
X147569701Y-82799701D02*
X148336000Y-83566000D01*
X148336000Y-84074000D02*
X148340299Y-84078299D01*
X128016000Y-90424000D02*
X131108978Y-90424000D01*
%TO.N,Net-(J4-Pad1)*%
X123311990Y-77724000D02*
X124139700Y-77724000D01*
X156607000Y-85963000D02*
X157734000Y-84836000D01*
X137884511Y-72681489D02*
X135598511Y-72681489D01*
X141938511Y-72063489D02*
X138502511Y-72063489D01*
X157861717Y-70612000D02*
X151638000Y-70612000D01*
X118967489Y-93313489D02*
X118967489Y-82068501D01*
X124139700Y-77724000D02*
X127587189Y-74276511D01*
X138502511Y-72063489D02*
X137884511Y-72681489D01*
X120142000Y-94488000D02*
X118967489Y-93313489D01*
X118967489Y-82068501D02*
X123311990Y-77724000D01*
X142265022Y-72390000D02*
X141938511Y-72063489D01*
X134003489Y-74276511D02*
X135128000Y-73152000D01*
X127587189Y-74276511D02*
X134003489Y-74276511D01*
X135598511Y-72681489D02*
X135128000Y-73152000D01*
X151169000Y-85963000D02*
X156607000Y-85963000D01*
X149860000Y-72390000D02*
X142265022Y-72390000D01*
X151638000Y-70612000D02*
X149860000Y-72390000D01*
%TO.N,GPIO0*%
X127963222Y-96787522D02*
X124142141Y-92966441D01*
X140693864Y-96787522D02*
X127963222Y-96787522D01*
X140693864Y-96787522D02*
X155688478Y-96787522D01*
X120142000Y-85095000D02*
X127000000Y-78237000D01*
X151169000Y-87963000D02*
X151919000Y-87963000D01*
X155702000Y-96774000D02*
X155702000Y-91746000D01*
X127000000Y-78237000D02*
X127000000Y-76454000D01*
X155688478Y-96787522D02*
X155702000Y-96774000D01*
X155702000Y-91746000D02*
X151919000Y-87963000D01*
X124142141Y-92966441D02*
X124142141Y-89095141D01*
X124142141Y-89095141D02*
X120142000Y-85095000D01*
%TO.N,Net-(R1-Pad2)*%
X132948000Y-94234000D02*
X127000000Y-94234000D01*
X135219000Y-91963000D02*
X132948000Y-94234000D01*
X135969000Y-91963000D02*
X135219000Y-91963000D01*
%TO.N,Net-(R2-Pad2)*%
X132942011Y-95963000D02*
X132842000Y-96063011D01*
X135969000Y-95963000D02*
X132942011Y-95963000D01*
%TO.N,Net-(R4-Pad1)*%
X142926354Y-91769646D02*
X147574000Y-87122000D01*
X149708386Y-83963000D02*
X151169000Y-83963000D01*
X147574000Y-87122000D02*
X147574000Y-86097386D01*
X147574000Y-86097386D02*
X149708386Y-83963000D01*
X138528649Y-91769646D02*
X142926354Y-91769646D01*
%TD*%
M02*
