%TF.GenerationSoftware,KiCad,Pcbnew,(6.0.5)*%
%TF.CreationDate,2022-11-09T18:14:35+05:30*%
%TF.ProjectId,USBNightLightV1,5553424e-6967-4687-944c-696768745631,rev?*%
%TF.SameCoordinates,Original*%
%TF.FileFunction,Paste,Top*%
%TF.FilePolarity,Positive*%
%FSLAX46Y46*%
G04 Gerber Fmt 4.6, Leading zero omitted, Abs format (unit mm)*
G04 Created by KiCad (PCBNEW (6.0.5)) date 2022-11-09 18:14:35*
%MOMM*%
%LPD*%
G01*
G04 APERTURE LIST*
%ADD10C,0.300000*%
%ADD11R,1.500000X1.000000*%
%ADD12R,1.200000X2.300000*%
G04 APERTURE END LIST*
D10*
%TO.C,J1*%
X149919025Y-69496100D02*
X149919025Y-71296100D01*
X148919025Y-71296100D02*
X148919025Y-69496100D01*
X137219025Y-71296100D02*
X137219025Y-69496100D01*
X138219025Y-69496100D02*
X138219025Y-71296100D01*
X138219025Y-69496100D02*
G75*
G03*
X137719025Y-68996100I-500000J0D01*
G01*
X137219025Y-71296100D02*
G75*
G03*
X137719025Y-71796100I500000J0D01*
G01*
X148919025Y-71296100D02*
G75*
G03*
X149419025Y-71796100I500001J1D01*
G01*
X137719025Y-68996100D02*
G75*
G03*
X137219025Y-69496100I0J-500000D01*
G01*
X137719025Y-71796100D02*
G75*
G03*
X138219025Y-71296100I0J500000D01*
G01*
X149419025Y-68996100D02*
G75*
G03*
X148919025Y-69496100I1J-500001D01*
G01*
X149419025Y-71796100D02*
G75*
G03*
X149919025Y-71296100I-1J500001D01*
G01*
X149919025Y-69496100D02*
G75*
G03*
X149419025Y-68996100I-500001J-1D01*
G01*
%TD*%
D11*
%TO.C,D5*%
X146019000Y-86713000D03*
X146019000Y-83513000D03*
X141119000Y-83513000D03*
X141119000Y-86713000D03*
%TD*%
%TO.C,D3*%
X156978000Y-79313000D03*
X156978000Y-76113000D03*
X152078000Y-76113000D03*
X152078000Y-79313000D03*
%TD*%
%TO.C,D4*%
X135060000Y-86713000D03*
X135060000Y-83513000D03*
X130160000Y-83513000D03*
X130160000Y-86713000D03*
%TD*%
%TO.C,D8*%
X146019000Y-94113000D03*
X146019000Y-90913000D03*
X141119000Y-90913000D03*
X141119000Y-94113000D03*
%TD*%
%TO.C,D2*%
X146019000Y-79313000D03*
X146019000Y-76113000D03*
X141119000Y-76113000D03*
X141119000Y-79313000D03*
%TD*%
%TO.C,D9*%
X156978000Y-94113000D03*
X156978000Y-90913000D03*
X152078000Y-90913000D03*
X152078000Y-94113000D03*
%TD*%
%TO.C,D6*%
X156978000Y-86713000D03*
X156978000Y-83513000D03*
X152078000Y-83513000D03*
X152078000Y-86713000D03*
%TD*%
D12*
%TO.C,J1*%
X140069025Y-73146100D03*
X142569025Y-73146100D03*
X144569025Y-73146100D03*
X147069025Y-73146100D03*
%TD*%
D11*
%TO.C,D1*%
X135060000Y-79313000D03*
X135060000Y-76113000D03*
X130160000Y-76113000D03*
X130160000Y-79313000D03*
%TD*%
%TO.C,D7*%
X135060000Y-94113000D03*
X135060000Y-90913000D03*
X130160000Y-90913000D03*
X130160000Y-94113000D03*
%TD*%
M02*
