%TF.GenerationSoftware,KiCad,Pcbnew,(6.0.0)*%
%TF.CreationDate,2022-04-27T16:55:33-04:00*%
%TF.ProjectId,ESP12SmallNightLight,45535031-3253-46d6-916c-6c4e69676874,rev?*%
%TF.SameCoordinates,Original*%
%TF.FileFunction,Copper,L1,Top*%
%TF.FilePolarity,Positive*%
%FSLAX46Y46*%
G04 Gerber Fmt 4.6, Leading zero omitted, Abs format (unit mm)*
G04 Created by KiCad (PCBNEW (6.0.0)) date 2022-04-27 16:55:33*
%MOMM*%
%LPD*%
G01*
G04 APERTURE LIST*
%TA.AperFunction,ComponentPad*%
%ADD10C,1.600000*%
%TD*%
%TA.AperFunction,ComponentPad*%
%ADD11O,1.600000X1.600000*%
%TD*%
%TA.AperFunction,SMDPad,CuDef*%
%ADD12R,2.000000X1.500000*%
%TD*%
%TA.AperFunction,SMDPad,CuDef*%
%ADD13R,2.000000X3.800000*%
%TD*%
%TA.AperFunction,ComponentPad*%
%ADD14R,1.500000X1.500000*%
%TD*%
%TA.AperFunction,ComponentPad*%
%ADD15C,1.500000*%
%TD*%
%TA.AperFunction,ComponentPad*%
%ADD16R,1.600000X1.600000*%
%TD*%
%TA.AperFunction,ComponentPad*%
%ADD17R,1.700000X1.700000*%
%TD*%
%TA.AperFunction,ComponentPad*%
%ADD18O,1.700000X1.700000*%
%TD*%
%TA.AperFunction,ComponentPad*%
%ADD19R,2.600000X2.600000*%
%TD*%
%TA.AperFunction,ComponentPad*%
%ADD20C,2.600000*%
%TD*%
%TA.AperFunction,ComponentPad*%
%ADD21R,1.130000X1.130000*%
%TD*%
%TA.AperFunction,ComponentPad*%
%ADD22C,1.130000*%
%TD*%
%TA.AperFunction,ViaPad*%
%ADD23C,0.800000*%
%TD*%
%TA.AperFunction,Conductor*%
%ADD24C,0.250000*%
%TD*%
G04 APERTURE END LIST*
D10*
%TO.P,R2,1*%
%TO.N,3.3V*%
X101346000Y-73152000D03*
D11*
%TO.P,R2,2*%
%TO.N,Net-(R2-Pad2)*%
X108966000Y-73152000D03*
%TD*%
D10*
%TO.P,R3,1*%
%TO.N,3.3V*%
X119126000Y-61976000D03*
D11*
%TO.P,R3,2*%
%TO.N,GPIO0*%
X126746000Y-61976000D03*
%TD*%
D12*
%TO.P,U2,1,GND*%
%TO.N,GND*%
X124054000Y-77992000D03*
%TO.P,U2,2,VO*%
%TO.N,3.3V*%
X124054000Y-75692000D03*
D13*
X117754000Y-75692000D03*
D12*
%TO.P,U2,3,VI*%
%TO.N,VCC*%
X124054000Y-73392000D03*
%TD*%
D10*
%TO.P,R1,1*%
%TO.N,3.3V*%
X101346000Y-76708000D03*
D11*
%TO.P,R1,2*%
%TO.N,Net-(R1-Pad2)*%
X108966000Y-76708000D03*
%TD*%
D14*
%TO.P,PS1,1,AC1*%
%TO.N,Net-(J1-Pad2)*%
X81609225Y-56124000D03*
D15*
%TO.P,PS1,2,AC2*%
%TO.N,Net-(J1-Pad1)*%
X81609225Y-62124000D03*
%TO.P,PS1,3,-VO*%
%TO.N,GND*%
X115209225Y-50124000D03*
%TO.P,PS1,4,+VO*%
%TO.N,VCC*%
X115209225Y-68124000D03*
%TD*%
D16*
%TO.P,C1,1*%
%TO.N,VCC*%
X119948888Y-68072000D03*
D10*
%TO.P,C1,2*%
%TO.N,GND*%
X121948888Y-68072000D03*
%TD*%
D16*
%TO.P,C2,1*%
%TO.N,3.3V*%
X119888000Y-49784000D03*
D10*
%TO.P,C2,2*%
%TO.N,GND*%
X121888000Y-49784000D03*
%TD*%
D17*
%TO.P,J5,1,Pin_1*%
%TO.N,GPIO0*%
X103881000Y-80264000D03*
D18*
%TO.P,J5,2,Pin_2*%
%TO.N,GND*%
X106421000Y-80264000D03*
%TD*%
D10*
%TO.P,R5,1*%
%TO.N,3.3V*%
X119126000Y-58420000D03*
D11*
%TO.P,R5,2*%
%TO.N,Net-(J4-Pad1)*%
X126746000Y-58420000D03*
%TD*%
D19*
%TO.P,J1,1,Pin_1*%
%TO.N,Net-(J1-Pad1)*%
X73457000Y-61981000D03*
D20*
%TO.P,J1,2,Pin_2*%
%TO.N,Net-(J1-Pad2)*%
X73457000Y-56901000D03*
%TD*%
D10*
%TO.P,R4,1*%
%TO.N,Net-(R4-Pad1)*%
X119126000Y-54864000D03*
D11*
%TO.P,R4,2*%
%TO.N,GND*%
X126746000Y-54864000D03*
%TD*%
D17*
%TO.P,J6,1,Pin_1*%
%TO.N,DataI{slash}P*%
X111760000Y-72644000D03*
%TD*%
D21*
%TO.P,IC1,1,1~{OE}*%
%TO.N,GND*%
X97028000Y-80678000D03*
D22*
%TO.P,IC1,2,1A*%
%TO.N,DataI{slash}P*%
X94488000Y-80678000D03*
%TO.P,IC1,3,1Y*%
%TO.N,DataO{slash}P*%
X91948000Y-80678000D03*
%TO.P,IC1,4,2~{OE}*%
%TO.N,unconnected-(IC1-Pad4)*%
X89408000Y-80678000D03*
%TO.P,IC1,5,2A*%
%TO.N,unconnected-(IC1-Pad5)*%
X86868000Y-80678000D03*
%TO.P,IC1,6,2Y*%
%TO.N,unconnected-(IC1-Pad6)*%
X84328000Y-80678000D03*
%TO.P,IC1,7,GND*%
%TO.N,GND*%
X81788000Y-80678000D03*
%TO.P,IC1,8,3Y*%
%TO.N,unconnected-(IC1-Pad8)*%
X81788000Y-72738000D03*
%TO.P,IC1,9,3A*%
%TO.N,unconnected-(IC1-Pad9)*%
X84328000Y-72738000D03*
%TO.P,IC1,10,3~{OE}*%
%TO.N,unconnected-(IC1-Pad10)*%
X86868000Y-72738000D03*
%TO.P,IC1,11,4Y*%
%TO.N,unconnected-(IC1-Pad11)*%
X89408000Y-72738000D03*
%TO.P,IC1,12,4A*%
%TO.N,unconnected-(IC1-Pad12)*%
X91948000Y-72738000D03*
%TO.P,IC1,13,4~{OE}*%
%TO.N,unconnected-(IC1-Pad13)*%
X94488000Y-72738000D03*
%TO.P,IC1,14,VCC*%
%TO.N,VCC*%
X97028000Y-72738000D03*
%TD*%
D17*
%TO.P,J4,1,Pin_1*%
%TO.N,Net-(J4-Pad1)*%
X114808000Y-76200000D03*
%TD*%
%TO.P,J3,1,Pin_1*%
%TO.N,Net-(J3-Pad1)*%
X114808000Y-72644000D03*
%TD*%
%TO.P,J2,1,Pin_1*%
%TO.N,Net-(J2-Pad1)*%
X111760000Y-76200000D03*
%TD*%
D23*
%TO.N,VCC*%
X101092000Y-79248000D03*
X138684000Y-64516000D03*
X117348000Y-78740000D03*
X123952000Y-70612000D03*
X111760000Y-78740000D03*
%TO.N,GND*%
X93980000Y-66548000D03*
X129540000Y-74116500D03*
X88650989Y-66548000D03*
%TO.N,3.3V*%
X116332000Y-71120000D03*
X119380000Y-74676000D03*
X114046000Y-65786000D03*
X108712000Y-71120000D03*
%TO.N,Net-(D1-Pad4)*%
X92456000Y-53848000D03*
X87884000Y-52832000D03*
%TO.N,Net-(D2-Pad4)*%
X88392000Y-61468000D03*
X91440000Y-61468000D03*
%TO.N,Net-(D3-Pad4)*%
X128524000Y-58420000D03*
X128524000Y-49276000D03*
%TO.N,Net-(J2-Pad1)*%
X105664000Y-73152000D03*
X99060000Y-53340000D03*
%TO.N,Net-(J3-Pad1)*%
X100076000Y-55372000D03*
%TO.N,Net-(J4-Pad1)*%
X99784500Y-63500000D03*
%TO.N,GPIO0*%
X94488000Y-61468000D03*
X114300000Y-79756000D03*
X127000000Y-72136000D03*
%TO.N,Net-(R1-Pad2)*%
X109728000Y-57404000D03*
X108204000Y-75184000D03*
%TO.N,Net-(R2-Pad2)*%
X112813033Y-69791158D03*
X116586000Y-69088000D03*
X114300000Y-53594000D03*
%TO.N,Net-(R4-Pad1)*%
X98335500Y-65532000D03*
X98335500Y-62484000D03*
%TD*%
D24*
%TO.N,VCC*%
X111760000Y-78740000D02*
X117348000Y-78740000D01*
X138684000Y-69088000D02*
X138684000Y-64516000D01*
X124054000Y-70714000D02*
X123952000Y-70612000D01*
X97028000Y-72738000D02*
X97028000Y-75184000D01*
X124054000Y-73392000D02*
X134380000Y-73392000D01*
X124054000Y-73392000D02*
X124054000Y-70714000D01*
X97028000Y-75184000D02*
X101092000Y-79248000D01*
X134380000Y-73392000D02*
X138684000Y-69088000D01*
%TO.N,GND*%
X108693000Y-77992000D02*
X124054000Y-77992000D01*
X124054000Y-77992000D02*
X125664500Y-77992000D01*
X106421000Y-80264000D02*
X108693000Y-77992000D01*
X125664500Y-77992000D02*
X129540000Y-74116500D01*
X88650989Y-66548000D02*
X93980000Y-66548000D01*
%TO.N,3.3V*%
X114046000Y-68580000D02*
X116332000Y-70866000D01*
X114046000Y-65786000D02*
X114046000Y-68580000D01*
X101346000Y-73152000D02*
X102145999Y-73951999D01*
X108712000Y-71128614D02*
X108712000Y-71120000D01*
X102145999Y-73951999D02*
X105888615Y-73951999D01*
X117754000Y-75692000D02*
X124054000Y-75692000D01*
X118770000Y-74676000D02*
X117754000Y-75692000D01*
X116332000Y-70866000D02*
X116332000Y-71120000D01*
X105888615Y-73951999D02*
X108712000Y-71128614D01*
X119380000Y-74676000D02*
X118770000Y-74676000D01*
%TO.N,Net-(D1-Pad4)*%
X87884000Y-52832000D02*
X88900000Y-53848000D01*
X88900000Y-53848000D02*
X92456000Y-53848000D01*
%TO.N,Net-(D2-Pad4)*%
X88392000Y-61468000D02*
X91440000Y-61468000D01*
%TO.N,Net-(D3-Pad4)*%
X128524000Y-58420000D02*
X128524000Y-49276000D01*
%TO.N,Net-(J1-Pad1)*%
X73457000Y-61981000D02*
X81466225Y-61981000D01*
X81466225Y-61981000D02*
X81609225Y-62124000D01*
%TO.N,Net-(J1-Pad2)*%
X73457000Y-56901000D02*
X80832225Y-56901000D01*
X80832225Y-56901000D02*
X81609225Y-56124000D01*
%TO.N,Net-(J2-Pad1)*%
X105664000Y-73152000D02*
X99060000Y-66548000D01*
X99060000Y-66548000D02*
X99060000Y-53340000D01*
%TO.N,Net-(J3-Pad1)*%
X100076000Y-55372000D02*
X114808000Y-70104000D01*
X114808000Y-70104000D02*
X114808000Y-72644000D01*
%TO.N,Net-(J4-Pad1)*%
X116744978Y-73152000D02*
X114808000Y-75088978D01*
X125621489Y-59544511D02*
X125621489Y-66910511D01*
X107378141Y-63309859D02*
X99974641Y-63309859D01*
X113537533Y-69469251D02*
X107378141Y-63309859D01*
X114808000Y-75088978D02*
X113537533Y-73818511D01*
X114808000Y-75088978D02*
X114808000Y-76200000D01*
X113537533Y-73818511D02*
X113537533Y-69469251D01*
X99974641Y-63309859D02*
X99784500Y-63500000D01*
X125621489Y-66910511D02*
X119380000Y-73152000D01*
X126746000Y-58420000D02*
X125621489Y-59544511D01*
X119380000Y-73152000D02*
X116744978Y-73152000D01*
%TO.N,GPIO0*%
X112617489Y-81438511D02*
X105055511Y-81438511D01*
X94996000Y-61976000D02*
X94488000Y-61468000D01*
X105055511Y-81438511D02*
X103881000Y-80264000D01*
X93472000Y-74168000D02*
X93472000Y-68080614D01*
X126746000Y-61976000D02*
X126746000Y-71882000D01*
X114300000Y-79756000D02*
X112617489Y-81438511D01*
X93472000Y-68080614D02*
X94996000Y-66556614D01*
X99568000Y-80264000D02*
X93472000Y-74168000D01*
X94996000Y-66556614D02*
X94996000Y-61976000D01*
X126746000Y-71882000D02*
X127000000Y-72136000D01*
X103881000Y-80264000D02*
X99568000Y-80264000D01*
%TO.N,Net-(R1-Pad2)*%
X108204000Y-75184000D02*
X101787700Y-75184000D01*
X104939489Y-52615489D02*
X109728000Y-57404000D01*
X97610989Y-53764397D02*
X98759897Y-52615489D01*
X101787700Y-75184000D02*
X97610989Y-71007289D01*
X97610989Y-71007289D02*
X97610989Y-53764397D01*
X98759897Y-52615489D02*
X104939489Y-52615489D01*
%TO.N,Net-(R2-Pad2)*%
X116586000Y-55880000D02*
X114300000Y-53594000D01*
X112326842Y-69791158D02*
X112813033Y-69791158D01*
X116586000Y-69088000D02*
X116586000Y-55880000D01*
X108966000Y-73152000D02*
X112326842Y-69791158D01*
%TO.N,Net-(R4-Pad1)*%
X98335500Y-62484000D02*
X98335500Y-65532000D01*
%TD*%
M02*
