%TF.GenerationSoftware,KiCad,Pcbnew,(6.0.0)*%
%TF.CreationDate,2022-04-27T16:55:33-04:00*%
%TF.ProjectId,ESP12SmallNightLight,45535031-3253-46d6-916c-6c4e69676874,rev?*%
%TF.SameCoordinates,Original*%
%TF.FileFunction,Copper,L2,Bot*%
%TF.FilePolarity,Positive*%
%FSLAX46Y46*%
G04 Gerber Fmt 4.6, Leading zero omitted, Abs format (unit mm)*
G04 Created by KiCad (PCBNEW (6.0.0)) date 2022-04-27 16:55:33*
%MOMM*%
%LPD*%
G01*
G04 APERTURE LIST*
%TA.AperFunction,ComponentPad*%
%ADD10C,1.600000*%
%TD*%
%TA.AperFunction,ComponentPad*%
%ADD11O,1.600000X1.600000*%
%TD*%
%TA.AperFunction,ComponentPad*%
%ADD12R,1.500000X1.500000*%
%TD*%
%TA.AperFunction,ComponentPad*%
%ADD13C,1.500000*%
%TD*%
%TA.AperFunction,ComponentPad*%
%ADD14R,1.600000X1.600000*%
%TD*%
%TA.AperFunction,ComponentPad*%
%ADD15R,1.700000X1.700000*%
%TD*%
%TA.AperFunction,ComponentPad*%
%ADD16O,1.700000X1.700000*%
%TD*%
%TA.AperFunction,ComponentPad*%
%ADD17R,2.600000X2.600000*%
%TD*%
%TA.AperFunction,ComponentPad*%
%ADD18C,2.600000*%
%TD*%
%TA.AperFunction,ComponentPad*%
%ADD19R,1.130000X1.130000*%
%TD*%
%TA.AperFunction,ComponentPad*%
%ADD20C,1.130000*%
%TD*%
%TA.AperFunction,SMDPad,CuDef*%
%ADD21R,2.500000X1.000000*%
%TD*%
%TA.AperFunction,SMDPad,CuDef*%
%ADD22R,1.000000X1.800000*%
%TD*%
%TA.AperFunction,SMDPad,CuDef*%
%ADD23R,1.500000X1.000000*%
%TD*%
%TA.AperFunction,ViaPad*%
%ADD24C,0.800000*%
%TD*%
%TA.AperFunction,Conductor*%
%ADD25C,0.250000*%
%TD*%
G04 APERTURE END LIST*
D10*
%TO.P,R2,1*%
%TO.N,3.3V*%
X101346000Y-73152000D03*
D11*
%TO.P,R2,2*%
%TO.N,Net-(R2-Pad2)*%
X108966000Y-73152000D03*
%TD*%
D10*
%TO.P,R3,1*%
%TO.N,3.3V*%
X119126000Y-61976000D03*
D11*
%TO.P,R3,2*%
%TO.N,GPIO0*%
X126746000Y-61976000D03*
%TD*%
D10*
%TO.P,R1,1*%
%TO.N,3.3V*%
X101346000Y-76708000D03*
D11*
%TO.P,R1,2*%
%TO.N,Net-(R1-Pad2)*%
X108966000Y-76708000D03*
%TD*%
D12*
%TO.P,PS1,1,AC1*%
%TO.N,Net-(J1-Pad2)*%
X81609225Y-56124000D03*
D13*
%TO.P,PS1,2,AC2*%
%TO.N,Net-(J1-Pad1)*%
X81609225Y-62124000D03*
%TO.P,PS1,3,-VO*%
%TO.N,GND*%
X115209225Y-50124000D03*
%TO.P,PS1,4,+VO*%
%TO.N,VCC*%
X115209225Y-68124000D03*
%TD*%
D14*
%TO.P,C1,1*%
%TO.N,VCC*%
X119948888Y-68072000D03*
D10*
%TO.P,C1,2*%
%TO.N,GND*%
X121948888Y-68072000D03*
%TD*%
D14*
%TO.P,C2,1*%
%TO.N,3.3V*%
X119888000Y-49784000D03*
D10*
%TO.P,C2,2*%
%TO.N,GND*%
X121888000Y-49784000D03*
%TD*%
D15*
%TO.P,J5,1,Pin_1*%
%TO.N,GPIO0*%
X103881000Y-80264000D03*
D16*
%TO.P,J5,2,Pin_2*%
%TO.N,GND*%
X106421000Y-80264000D03*
%TD*%
D10*
%TO.P,R5,1*%
%TO.N,3.3V*%
X119126000Y-58420000D03*
D11*
%TO.P,R5,2*%
%TO.N,Net-(J4-Pad1)*%
X126746000Y-58420000D03*
%TD*%
D17*
%TO.P,J1,1,Pin_1*%
%TO.N,Net-(J1-Pad1)*%
X73457000Y-61981000D03*
D18*
%TO.P,J1,2,Pin_2*%
%TO.N,Net-(J1-Pad2)*%
X73457000Y-56901000D03*
%TD*%
D10*
%TO.P,R4,1*%
%TO.N,Net-(R4-Pad1)*%
X119126000Y-54864000D03*
D11*
%TO.P,R4,2*%
%TO.N,GND*%
X126746000Y-54864000D03*
%TD*%
D15*
%TO.P,J6,1,Pin_1*%
%TO.N,DataI{slash}P*%
X111760000Y-72644000D03*
%TD*%
D19*
%TO.P,IC1,1,1~{OE}*%
%TO.N,GND*%
X97028000Y-80678000D03*
D20*
%TO.P,IC1,2,1A*%
%TO.N,DataI{slash}P*%
X94488000Y-80678000D03*
%TO.P,IC1,3,1Y*%
%TO.N,DataO{slash}P*%
X91948000Y-80678000D03*
%TO.P,IC1,4,2~{OE}*%
%TO.N,unconnected-(IC1-Pad4)*%
X89408000Y-80678000D03*
%TO.P,IC1,5,2A*%
%TO.N,unconnected-(IC1-Pad5)*%
X86868000Y-80678000D03*
%TO.P,IC1,6,2Y*%
%TO.N,unconnected-(IC1-Pad6)*%
X84328000Y-80678000D03*
%TO.P,IC1,7,GND*%
%TO.N,GND*%
X81788000Y-80678000D03*
%TO.P,IC1,8,3Y*%
%TO.N,unconnected-(IC1-Pad8)*%
X81788000Y-72738000D03*
%TO.P,IC1,9,3A*%
%TO.N,unconnected-(IC1-Pad9)*%
X84328000Y-72738000D03*
%TO.P,IC1,10,3~{OE}*%
%TO.N,unconnected-(IC1-Pad10)*%
X86868000Y-72738000D03*
%TO.P,IC1,11,4Y*%
%TO.N,unconnected-(IC1-Pad11)*%
X89408000Y-72738000D03*
%TO.P,IC1,12,4A*%
%TO.N,unconnected-(IC1-Pad12)*%
X91948000Y-72738000D03*
%TO.P,IC1,13,4~{OE}*%
%TO.N,unconnected-(IC1-Pad13)*%
X94488000Y-72738000D03*
%TO.P,IC1,14,VCC*%
%TO.N,VCC*%
X97028000Y-72738000D03*
%TD*%
D21*
%TO.P,U1,1,~{RST}*%
%TO.N,Net-(R2-Pad2)*%
X111740000Y-53396000D03*
%TO.P,U1,2,ADC*%
%TO.N,unconnected-(U1-Pad2)*%
X111740000Y-55396000D03*
%TO.P,U1,3,EN*%
%TO.N,Net-(R1-Pad2)*%
X111740000Y-57396000D03*
%TO.P,U1,4,GPIO16*%
%TO.N,unconnected-(U1-Pad4)*%
X111740000Y-59396000D03*
%TO.P,U1,5,GPIO14*%
%TO.N,unconnected-(U1-Pad5)*%
X111740000Y-61396000D03*
%TO.P,U1,6,GPIO12*%
%TO.N,unconnected-(U1-Pad6)*%
X111740000Y-63396000D03*
%TO.P,U1,7,GPIO13*%
%TO.N,unconnected-(U1-Pad7)*%
X111740000Y-65396000D03*
%TO.P,U1,8,VCC*%
%TO.N,3.3V*%
X111740000Y-67396000D03*
D22*
%TO.P,U1,9,CS0*%
%TO.N,unconnected-(U1-Pad9)*%
X109140000Y-68896000D03*
%TO.P,U1,10,MISO*%
%TO.N,unconnected-(U1-Pad10)*%
X107140000Y-68896000D03*
%TO.P,U1,11,GPIO9*%
%TO.N,unconnected-(U1-Pad11)*%
X105140000Y-68896000D03*
%TO.P,U1,12,GPIO10*%
%TO.N,unconnected-(U1-Pad12)*%
X103140000Y-68896000D03*
%TO.P,U1,13,MOSI*%
%TO.N,unconnected-(U1-Pad13)*%
X101140000Y-68896000D03*
%TO.P,U1,14,SCLK*%
%TO.N,unconnected-(U1-Pad14)*%
X99140000Y-68896000D03*
D21*
%TO.P,U1,15,GND*%
%TO.N,GND*%
X96540000Y-67396000D03*
%TO.P,U1,16,GPIO15*%
%TO.N,Net-(R4-Pad1)*%
X96540000Y-65396000D03*
%TO.P,U1,17,GPIO2*%
%TO.N,Net-(J4-Pad1)*%
X96540000Y-63396000D03*
%TO.P,U1,18,GPIO0*%
%TO.N,GPIO0*%
X96540000Y-61396000D03*
%TO.P,U1,19,GPIO4*%
%TO.N,unconnected-(U1-Pad19)*%
X96540000Y-59396000D03*
%TO.P,U1,20,GPIO5*%
%TO.N,unconnected-(U1-Pad20)*%
X96540000Y-57396000D03*
%TO.P,U1,21,GPIO3/RXD*%
%TO.N,Net-(J3-Pad1)*%
X96540000Y-55396000D03*
%TO.P,U1,22,GPIO1/TXD*%
%TO.N,Net-(J2-Pad1)*%
X96540000Y-53396000D03*
%TD*%
D15*
%TO.P,J4,1,Pin_1*%
%TO.N,Net-(J4-Pad1)*%
X114808000Y-76200000D03*
%TD*%
D23*
%TO.P,D1,1,VSS*%
%TO.N,GND*%
X85550000Y-52600000D03*
%TO.P,D1,2,DIN*%
%TO.N,DataO{slash}P*%
X85550000Y-49400000D03*
%TO.P,D1,3,VDD*%
%TO.N,VCC*%
X90450000Y-49400000D03*
%TO.P,D1,4,DOUT*%
%TO.N,Net-(D1-Pad4)*%
X90450000Y-52600000D03*
%TD*%
%TO.P,D4,1,VSS*%
%TO.N,GND*%
X130550000Y-51600000D03*
%TO.P,D4,2,DIN*%
%TO.N,Net-(D3-Pad4)*%
X130550000Y-48400000D03*
%TO.P,D4,3,VDD*%
%TO.N,VCC*%
X135450000Y-48400000D03*
%TO.P,D4,4,DOUT*%
%TO.N,Net-(D4-Pad4)*%
X135450000Y-51600000D03*
%TD*%
D15*
%TO.P,J3,1,Pin_1*%
%TO.N,Net-(J3-Pad1)*%
X114808000Y-72644000D03*
%TD*%
D23*
%TO.P,D3,1,VSS*%
%TO.N,GND*%
X85550000Y-67600000D03*
%TO.P,D3,2,DIN*%
%TO.N,Net-(D2-Pad4)*%
X85550000Y-64400000D03*
%TO.P,D3,3,VDD*%
%TO.N,VCC*%
X90450000Y-64400000D03*
%TO.P,D3,4,DOUT*%
%TO.N,Net-(D3-Pad4)*%
X90450000Y-67600000D03*
%TD*%
%TO.P,D5,1,VSS*%
%TO.N,GND*%
X130550000Y-59600000D03*
%TO.P,D5,2,DIN*%
%TO.N,Net-(D4-Pad4)*%
X130550000Y-56400000D03*
%TO.P,D5,3,VDD*%
%TO.N,VCC*%
X135450000Y-56400000D03*
%TO.P,D5,4,DOUT*%
%TO.N,Net-(D6-Pad2)*%
X135450000Y-59600000D03*
%TD*%
D15*
%TO.P,J2,1,Pin_1*%
%TO.N,Net-(J2-Pad1)*%
X111760000Y-76200000D03*
%TD*%
D23*
%TO.P,D2,1,VSS*%
%TO.N,GND*%
X85550000Y-59600000D03*
%TO.P,D2,2,DIN*%
%TO.N,Net-(D1-Pad4)*%
X85550000Y-56400000D03*
%TO.P,D2,3,VDD*%
%TO.N,VCC*%
X90450000Y-56400000D03*
%TO.P,D2,4,DOUT*%
%TO.N,Net-(D2-Pad4)*%
X90450000Y-59600000D03*
%TD*%
%TO.P,D6,1,VSS*%
%TO.N,GND*%
X130550000Y-67600000D03*
%TO.P,D6,2,DIN*%
%TO.N,Net-(D6-Pad2)*%
X130550000Y-64400000D03*
%TO.P,D6,3,VDD*%
%TO.N,VCC*%
X135450000Y-64400000D03*
%TO.P,D6,4,DOUT*%
%TO.N,unconnected-(D6-Pad4)*%
X135450000Y-67600000D03*
%TD*%
D24*
%TO.N,VCC*%
X101092000Y-79248000D03*
X138684000Y-64516000D03*
X117348000Y-78740000D03*
X123952000Y-70612000D03*
X111760000Y-78740000D03*
%TO.N,GND*%
X93980000Y-66548000D03*
X129540000Y-74116500D03*
X88650989Y-66548000D03*
%TO.N,3.3V*%
X116332000Y-71120000D03*
X119380000Y-74676000D03*
X114046000Y-65786000D03*
X108712000Y-71120000D03*
%TO.N,Net-(D1-Pad4)*%
X92456000Y-53848000D03*
X87884000Y-52832000D03*
%TO.N,Net-(D2-Pad4)*%
X88392000Y-61468000D03*
X91440000Y-61468000D03*
%TO.N,Net-(D3-Pad4)*%
X128524000Y-58420000D03*
X128524000Y-49276000D03*
%TO.N,Net-(J2-Pad1)*%
X105664000Y-73152000D03*
X99060000Y-53340000D03*
%TO.N,Net-(J3-Pad1)*%
X100076000Y-55372000D03*
%TO.N,Net-(J4-Pad1)*%
X99784500Y-63500000D03*
%TO.N,GPIO0*%
X94488000Y-61468000D03*
X114300000Y-79756000D03*
X127000000Y-72136000D03*
%TO.N,Net-(R1-Pad2)*%
X109728000Y-57404000D03*
X108204000Y-75184000D03*
%TO.N,Net-(R2-Pad2)*%
X112813033Y-69791158D03*
X116586000Y-69088000D03*
X114300000Y-53594000D03*
%TO.N,Net-(R4-Pad1)*%
X98335500Y-65532000D03*
X98335500Y-62484000D03*
%TD*%
D25*
%TO.N,VCC*%
X135450000Y-48400000D02*
X136524511Y-49474511D01*
X136524511Y-49474511D02*
X136524511Y-55325489D01*
X115209225Y-68124000D02*
X119896888Y-68124000D01*
X89375489Y-57474511D02*
X89375489Y-63325489D01*
X94902000Y-70612000D02*
X97028000Y-72738000D01*
X138568000Y-64400000D02*
X135450000Y-64400000D01*
X90450000Y-49400000D02*
X89375489Y-50474511D01*
X89375489Y-65474511D02*
X89375489Y-70071489D01*
X138684000Y-59634000D02*
X138684000Y-64516000D01*
X136524511Y-55325489D02*
X135450000Y-56400000D01*
X123952000Y-70612000D02*
X122488888Y-70612000D01*
X89916000Y-70612000D02*
X94902000Y-70612000D01*
X101092000Y-79248000D02*
X101250511Y-79089489D01*
X122488888Y-73599112D02*
X122488888Y-70612000D01*
X135450000Y-56400000D02*
X138684000Y-59634000D01*
X89375489Y-55325489D02*
X90450000Y-56400000D01*
X138684000Y-64516000D02*
X138568000Y-64400000D01*
X111410511Y-79089489D02*
X111760000Y-78740000D01*
X122488888Y-70612000D02*
X119948888Y-68072000D01*
X117348000Y-78740000D02*
X122488888Y-73599112D01*
X89375489Y-63325489D02*
X90450000Y-64400000D01*
X89375489Y-70071489D02*
X89916000Y-70612000D01*
X90450000Y-64400000D02*
X89375489Y-65474511D01*
X90450000Y-56400000D02*
X89375489Y-57474511D01*
X119896888Y-68124000D02*
X119948888Y-68072000D01*
X101250511Y-79089489D02*
X111410511Y-79089489D01*
X89375489Y-50474511D02*
X89375489Y-55325489D01*
%TO.N,GND*%
X85550000Y-59600000D02*
X83984000Y-59600000D01*
X83984000Y-59600000D02*
X83820000Y-59436000D01*
X81788000Y-73995960D02*
X81788000Y-80678000D01*
X87598989Y-67600000D02*
X88650989Y-66548000D01*
X122420888Y-67600000D02*
X121948888Y-68072000D01*
X126746000Y-54864000D02*
X121888000Y-50006000D01*
X98315489Y-79390511D02*
X97028000Y-80678000D01*
X130550000Y-58668000D02*
X130550000Y-59600000D01*
X105246489Y-81438511D02*
X106421000Y-80264000D01*
X130550000Y-59600000D02*
X129475489Y-60674511D01*
X129540000Y-74116500D02*
X130550000Y-73106500D01*
X83820000Y-54330000D02*
X85550000Y-52600000D01*
X130550000Y-67600000D02*
X122420888Y-67600000D01*
X96540000Y-67396000D02*
X98315489Y-69171489D01*
X126746000Y-54864000D02*
X130550000Y-58668000D01*
X94828000Y-67396000D02*
X96540000Y-67396000D01*
X84475489Y-60674511D02*
X85550000Y-59600000D01*
X121888000Y-48736000D02*
X121888000Y-49784000D01*
X121888000Y-50006000D02*
X121888000Y-49784000D01*
X93980000Y-66548000D02*
X94828000Y-67396000D01*
X129475489Y-66525489D02*
X130550000Y-67600000D01*
X84475489Y-66525489D02*
X84475489Y-60674511D01*
X116673736Y-48659489D02*
X121811489Y-48659489D01*
X83820000Y-59436000D02*
X83820000Y-54330000D01*
X121811489Y-48659489D02*
X121888000Y-48736000D01*
X85550000Y-67600000D02*
X85550000Y-70233960D01*
X98315489Y-69171489D02*
X98315489Y-79390511D01*
X85550000Y-67600000D02*
X87598989Y-67600000D01*
X130550000Y-73106500D02*
X130550000Y-67600000D01*
X126746000Y-54864000D02*
X130010000Y-51600000D01*
X85550000Y-70233960D02*
X81788000Y-73995960D01*
X115209225Y-50124000D02*
X116673736Y-48659489D01*
X129475489Y-60674511D02*
X129475489Y-66525489D01*
X130010000Y-51600000D02*
X130550000Y-51600000D01*
X100363489Y-81438511D02*
X105246489Y-81438511D01*
X85550000Y-67600000D02*
X84475489Y-66525489D01*
X98315489Y-79390511D02*
X100363489Y-81438511D01*
%TO.N,3.3V*%
X108712000Y-71120000D02*
X115824000Y-71120000D01*
X114554000Y-66548000D02*
X114554000Y-66294000D01*
X120250511Y-50146511D02*
X120250511Y-57295489D01*
X114554000Y-66548000D02*
X113706000Y-67396000D01*
X114554000Y-66294000D02*
X114046000Y-65786000D01*
X116332000Y-71120000D02*
X116332000Y-71628000D01*
X120250511Y-57295489D02*
X119126000Y-58420000D01*
X119888000Y-49784000D02*
X120250511Y-50146511D01*
X101346000Y-76708000D02*
X101346000Y-73152000D01*
X119126000Y-61976000D02*
X114554000Y-66548000D01*
X119126000Y-58420000D02*
X119126000Y-61976000D01*
X113706000Y-67396000D02*
X111740000Y-67396000D01*
X116332000Y-71628000D02*
X119380000Y-74676000D01*
X115824000Y-71120000D02*
X116332000Y-71628000D01*
%TO.N,DataO{slash}P*%
X80534714Y-80682674D02*
X81640040Y-81788000D01*
X90838000Y-81788000D02*
X91948000Y-80678000D01*
X81640040Y-81788000D02*
X90838000Y-81788000D01*
X85550000Y-49400000D02*
X80534714Y-54415286D01*
X80534714Y-54415286D02*
X80534714Y-80682674D01*
%TO.N,Net-(D1-Pad4)*%
X85550000Y-56400000D02*
X85550000Y-55166000D01*
X91208000Y-52600000D02*
X90450000Y-52600000D01*
X92456000Y-53848000D02*
X91208000Y-52600000D01*
X85550000Y-55166000D02*
X87884000Y-52832000D01*
%TO.N,Net-(D2-Pad4)*%
X88392000Y-61558000D02*
X88392000Y-61468000D01*
X85550000Y-64400000D02*
X88392000Y-61558000D01*
X91440000Y-61468000D02*
X91440000Y-60590000D01*
X91440000Y-60590000D02*
X90450000Y-59600000D01*
%TO.N,Net-(D3-Pad4)*%
X110165489Y-66571489D02*
X110165489Y-68220511D01*
X110165489Y-68220511D02*
X113517207Y-68220511D01*
X129674000Y-49276000D02*
X130550000Y-48400000D01*
X128524000Y-49276000D02*
X129674000Y-49276000D01*
X93534000Y-64516000D02*
X108110000Y-64516000D01*
X90450000Y-67600000D02*
X93534000Y-64516000D01*
X113517207Y-68220511D02*
X117221718Y-64516000D01*
X128524000Y-62202989D02*
X128524000Y-58420000D01*
X117221718Y-64516000D02*
X126210989Y-64516000D01*
X108110000Y-64516000D02*
X110165489Y-66571489D01*
X126210989Y-64516000D02*
X128524000Y-62202989D01*
%TO.N,DataI{slash}P*%
X113284000Y-74168000D02*
X111760000Y-72644000D01*
X94488000Y-80678000D02*
X95698031Y-81888031D01*
X113284000Y-79756000D02*
X113284000Y-74168000D01*
X95698031Y-81888031D02*
X111151969Y-81888031D01*
X111151969Y-81888031D02*
X113284000Y-79756000D01*
%TO.N,Net-(J2-Pad1)*%
X111760000Y-76200000D02*
X110423700Y-76200000D01*
X99004000Y-53396000D02*
X96540000Y-53396000D01*
X110423700Y-76200000D02*
X107375700Y-73152000D01*
X99060000Y-53340000D02*
X99004000Y-53396000D01*
X107375700Y-73152000D02*
X105664000Y-73152000D01*
%TO.N,Net-(J3-Pad1)*%
X96540000Y-55396000D02*
X100052000Y-55396000D01*
X100052000Y-55396000D02*
X100076000Y-55372000D01*
%TO.N,Net-(J4-Pad1)*%
X99680500Y-63396000D02*
X96540000Y-63396000D01*
X99784500Y-63500000D02*
X99680500Y-63396000D01*
%TO.N,GPIO0*%
X96468000Y-61468000D02*
X96540000Y-61396000D01*
X94488000Y-61468000D02*
X96468000Y-61468000D01*
X119380000Y-79756000D02*
X114300000Y-79756000D01*
X127000000Y-72136000D02*
X119380000Y-79756000D01*
%TO.N,Net-(R1-Pad2)*%
X111732000Y-57404000D02*
X111740000Y-57396000D01*
X108966000Y-76708000D02*
X108966000Y-75946000D01*
X108966000Y-75946000D02*
X108204000Y-75184000D01*
X109728000Y-57404000D02*
X111732000Y-57404000D01*
%TO.N,Net-(R2-Pad2)*%
X115882842Y-69791158D02*
X116586000Y-69088000D01*
X114102000Y-53396000D02*
X111740000Y-53396000D01*
X112813033Y-69791158D02*
X115882842Y-69791158D01*
X114300000Y-53594000D02*
X114102000Y-53396000D01*
%TO.N,Net-(R4-Pad1)*%
X98335500Y-65532000D02*
X96676000Y-65532000D01*
X96676000Y-65532000D02*
X96540000Y-65396000D01*
X100598989Y-60220511D02*
X98335500Y-62484000D01*
X113769489Y-60220511D02*
X100598989Y-60220511D01*
X119126000Y-54864000D02*
X113769489Y-60220511D01*
%TO.N,Net-(D4-Pad4)*%
X130550000Y-56400000D02*
X130650000Y-56400000D01*
X130650000Y-56400000D02*
X135450000Y-51600000D01*
%TO.N,Net-(D6-Pad2)*%
X135450000Y-59600000D02*
X135350000Y-59600000D01*
X135350000Y-59600000D02*
X130550000Y-64400000D01*
%TD*%
M02*
