M48
; DRILL file {KiCad (6.0.0)} date Wed Apr 27 16:55:26 2022
; FORMAT={-:-/ absolute / inch / decimal}
; #@! TF.CreationDate,2022-04-27T16:55:26-04:00
; #@! TF.GenerationSoftware,Kicad,Pcbnew,(6.0.0)
; #@! TF.FileFunction,Plated,1,2,PTH
FMAT,2
INCH
; #@! TA.AperFunction,Plated,PTH,ViaDrill
T1C0.0157
; #@! TA.AperFunction,Plated,PTH,ComponentDrill
T2C0.0287
; #@! TA.AperFunction,Plated,PTH,ComponentDrill
T3C0.0315
; #@! TA.AperFunction,Plated,PTH,ComponentDrill
T4C0.0394
; #@! TA.AperFunction,Plated,PTH,ComponentDrill
T5C0.0512
%
G90
G05
T1
X3.46Y-2.08
X3.48Y-2.42
X3.4902Y-2.62
X3.6Y-2.42
X3.64Y-2.12
X3.7Y-2.62
X3.72Y-2.42
X3.8715Y-2.46
X3.8715Y-2.58
X3.9Y-2.1
X3.9285Y-2.5
X3.94Y-2.18
X3.98Y-3.12
X4.16Y-2.88
X4.26Y-2.96
X4.28Y-2.8
X4.32Y-2.26
X4.4Y-3.1
X4.4415Y-2.7477
X4.49Y-2.59
X4.5Y-2.11
X4.5Y-3.14
X4.58Y-2.8
X4.59Y-2.72
X4.62Y-3.1
X4.7Y-2.94
X4.88Y-2.78
X5.0Y-2.84
X5.06Y-1.94
X5.06Y-2.3
X5.1Y-2.918
X5.46Y-2.54
T2
X3.22Y-2.8637
X3.22Y-3.1763
X3.32Y-2.8637
X3.32Y-3.1763
X3.42Y-2.8637
X3.42Y-3.1763
X3.52Y-2.8637
X3.52Y-3.1763
X3.62Y-2.8637
X3.62Y-3.1763
X3.72Y-2.8637
X3.72Y-3.1763
X3.82Y-2.8637
X3.82Y-3.1763
T3
X3.99Y-2.88
X3.99Y-3.02
X4.29Y-2.88
X4.29Y-3.02
X4.69Y-2.16
X4.69Y-2.3
X4.69Y-2.44
X4.72Y-1.96
X4.7224Y-2.68
X4.7987Y-1.96
X4.8011Y-2.68
X4.99Y-2.16
X4.99Y-2.3
X4.99Y-2.44
T4
X3.213Y-2.2096
X3.213Y-2.4458
X4.0898Y-3.16
X4.1898Y-3.16
X4.4Y-2.86
X4.4Y-3.0
X4.52Y-2.86
X4.52Y-3.0
X4.5358Y-1.9734
X4.5358Y-2.682
T5
X2.892Y-2.2402
X2.892Y-2.4402
T0
M30
