%TF.GenerationSoftware,KiCad,Pcbnew,(6.0.0)*%
%TF.CreationDate,2022-04-27T16:55:33-04:00*%
%TF.ProjectId,ESP12SmallNightLight,45535031-3253-46d6-916c-6c4e69676874,rev?*%
%TF.SameCoordinates,Original*%
%TF.FileFunction,Paste,Bot*%
%TF.FilePolarity,Positive*%
%FSLAX46Y46*%
G04 Gerber Fmt 4.6, Leading zero omitted, Abs format (unit mm)*
G04 Created by KiCad (PCBNEW (6.0.0)) date 2022-04-27 16:55:33*
%MOMM*%
%LPD*%
G01*
G04 APERTURE LIST*
%ADD10R,2.500000X1.000000*%
%ADD11R,1.000000X1.800000*%
%ADD12R,1.500000X1.000000*%
G04 APERTURE END LIST*
D10*
%TO.C,U1*%
X111740000Y-53396000D03*
X111740000Y-55396000D03*
X111740000Y-57396000D03*
X111740000Y-59396000D03*
X111740000Y-61396000D03*
X111740000Y-63396000D03*
X111740000Y-65396000D03*
X111740000Y-67396000D03*
D11*
X109140000Y-68896000D03*
X107140000Y-68896000D03*
X105140000Y-68896000D03*
X103140000Y-68896000D03*
X101140000Y-68896000D03*
X99140000Y-68896000D03*
D10*
X96540000Y-67396000D03*
X96540000Y-65396000D03*
X96540000Y-63396000D03*
X96540000Y-61396000D03*
X96540000Y-59396000D03*
X96540000Y-57396000D03*
X96540000Y-55396000D03*
X96540000Y-53396000D03*
%TD*%
D12*
%TO.C,D1*%
X85550000Y-52600000D03*
X85550000Y-49400000D03*
X90450000Y-49400000D03*
X90450000Y-52600000D03*
%TD*%
%TO.C,D4*%
X130550000Y-51600000D03*
X130550000Y-48400000D03*
X135450000Y-48400000D03*
X135450000Y-51600000D03*
%TD*%
%TO.C,D3*%
X85550000Y-67600000D03*
X85550000Y-64400000D03*
X90450000Y-64400000D03*
X90450000Y-67600000D03*
%TD*%
%TO.C,D5*%
X130550000Y-59600000D03*
X130550000Y-56400000D03*
X135450000Y-56400000D03*
X135450000Y-59600000D03*
%TD*%
%TO.C,D2*%
X85550000Y-59600000D03*
X85550000Y-56400000D03*
X90450000Y-56400000D03*
X90450000Y-59600000D03*
%TD*%
%TO.C,D6*%
X130550000Y-67600000D03*
X130550000Y-64400000D03*
X135450000Y-64400000D03*
X135450000Y-67600000D03*
%TD*%
M02*
