%TF.GenerationSoftware,KiCad,Pcbnew,(6.0.0)*%
%TF.CreationDate,2022-04-27T16:55:33-04:00*%
%TF.ProjectId,ESP12SmallNightLight,45535031-3253-46d6-916c-6c4e69676874,rev?*%
%TF.SameCoordinates,Original*%
%TF.FileFunction,Soldermask,Bot*%
%TF.FilePolarity,Negative*%
%FSLAX46Y46*%
G04 Gerber Fmt 4.6, Leading zero omitted, Abs format (unit mm)*
G04 Created by KiCad (PCBNEW (6.0.0)) date 2022-04-27 16:55:33*
%MOMM*%
%LPD*%
G01*
G04 APERTURE LIST*
%ADD10C,2.000000*%
%ADD11C,1.600000*%
%ADD12O,1.600000X1.600000*%
%ADD13R,1.500000X1.500000*%
%ADD14C,1.500000*%
%ADD15R,1.600000X1.600000*%
%ADD16R,1.700000X1.700000*%
%ADD17O,1.700000X1.700000*%
%ADD18R,2.600000X2.600000*%
%ADD19C,2.600000*%
%ADD20R,1.130000X1.130000*%
%ADD21C,1.130000*%
%ADD22R,2.500000X1.000000*%
%ADD23R,1.000000X1.800000*%
%ADD24R,1.500000X1.000000*%
G04 APERTURE END LIST*
D10*
%TO.C,REF\u002A\u002A*%
X68780000Y-79700000D03*
%TD*%
D11*
%TO.C,R2*%
X101346000Y-73152000D03*
D12*
X108966000Y-73152000D03*
%TD*%
D11*
%TO.C,R3*%
X119126000Y-61976000D03*
D12*
X126746000Y-61976000D03*
%TD*%
D10*
%TO.C,REF\u002A\u002A*%
X68780000Y-47000000D03*
%TD*%
D11*
%TO.C,R1*%
X101346000Y-76708000D03*
D12*
X108966000Y-76708000D03*
%TD*%
D13*
%TO.C,PS1*%
X81609225Y-56124000D03*
D14*
X81609225Y-62124000D03*
X115209225Y-50124000D03*
X115209225Y-68124000D03*
%TD*%
D15*
%TO.C,C1*%
X119948888Y-68072000D03*
D11*
X121948888Y-68072000D03*
%TD*%
D15*
%TO.C,C2*%
X119888000Y-49784000D03*
D11*
X121888000Y-49784000D03*
%TD*%
D16*
%TO.C,J5*%
X103881000Y-80264000D03*
D17*
X106421000Y-80264000D03*
%TD*%
D11*
%TO.C,R5*%
X119126000Y-58420000D03*
D12*
X126746000Y-58420000D03*
%TD*%
D18*
%TO.C,J1*%
X73457000Y-61981000D03*
D19*
X73457000Y-56901000D03*
%TD*%
D10*
%TO.C,REF\u002A\u002A*%
X139500000Y-79700000D03*
%TD*%
D11*
%TO.C,R4*%
X119126000Y-54864000D03*
D12*
X126746000Y-54864000D03*
%TD*%
D10*
%TO.C,REF\u002A\u002A*%
X139500000Y-47000000D03*
%TD*%
D16*
%TO.C,J6*%
X111760000Y-72644000D03*
%TD*%
D20*
%TO.C,IC1*%
X97028000Y-80678000D03*
D21*
X94488000Y-80678000D03*
X91948000Y-80678000D03*
X89408000Y-80678000D03*
X86868000Y-80678000D03*
X84328000Y-80678000D03*
X81788000Y-80678000D03*
X81788000Y-72738000D03*
X84328000Y-72738000D03*
X86868000Y-72738000D03*
X89408000Y-72738000D03*
X91948000Y-72738000D03*
X94488000Y-72738000D03*
X97028000Y-72738000D03*
%TD*%
D22*
%TO.C,U1*%
X111740000Y-53396000D03*
X111740000Y-55396000D03*
X111740000Y-57396000D03*
X111740000Y-59396000D03*
X111740000Y-61396000D03*
X111740000Y-63396000D03*
X111740000Y-65396000D03*
X111740000Y-67396000D03*
D23*
X109140000Y-68896000D03*
X107140000Y-68896000D03*
X105140000Y-68896000D03*
X103140000Y-68896000D03*
X101140000Y-68896000D03*
X99140000Y-68896000D03*
D22*
X96540000Y-67396000D03*
X96540000Y-65396000D03*
X96540000Y-63396000D03*
X96540000Y-61396000D03*
X96540000Y-59396000D03*
X96540000Y-57396000D03*
X96540000Y-55396000D03*
X96540000Y-53396000D03*
%TD*%
D16*
%TO.C,J4*%
X114808000Y-76200000D03*
%TD*%
D24*
%TO.C,D1*%
X85550000Y-52600000D03*
X85550000Y-49400000D03*
X90450000Y-49400000D03*
X90450000Y-52600000D03*
%TD*%
%TO.C,D4*%
X130550000Y-51600000D03*
X130550000Y-48400000D03*
X135450000Y-48400000D03*
X135450000Y-51600000D03*
%TD*%
D16*
%TO.C,J3*%
X114808000Y-72644000D03*
%TD*%
D24*
%TO.C,D3*%
X85550000Y-67600000D03*
X85550000Y-64400000D03*
X90450000Y-64400000D03*
X90450000Y-67600000D03*
%TD*%
%TO.C,D5*%
X130550000Y-59600000D03*
X130550000Y-56400000D03*
X135450000Y-56400000D03*
X135450000Y-59600000D03*
%TD*%
D16*
%TO.C,J2*%
X111760000Y-76200000D03*
%TD*%
D24*
%TO.C,D2*%
X85550000Y-59600000D03*
X85550000Y-56400000D03*
X90450000Y-56400000D03*
X90450000Y-59600000D03*
%TD*%
%TO.C,D6*%
X130550000Y-67600000D03*
X130550000Y-64400000D03*
X135450000Y-64400000D03*
X135450000Y-67600000D03*
%TD*%
M02*
