%TF.GenerationSoftware,KiCad,Pcbnew,(6.0.5)*%
%TF.CreationDate,2022-11-18T19:29:44+05:30*%
%TF.ProjectId,Ball Lamp,42616c6c-204c-4616-9d70-2e6b69636164,rev?*%
%TF.SameCoordinates,Original*%
%TF.FileFunction,Soldermask,Bot*%
%TF.FilePolarity,Negative*%
%FSLAX46Y46*%
G04 Gerber Fmt 4.6, Leading zero omitted, Abs format (unit mm)*
G04 Created by KiCad (PCBNEW (6.0.5)) date 2022-11-18 19:29:44*
%MOMM*%
%LPD*%
G01*
G04 APERTURE LIST*
%ADD10R,1.600000X1.600000*%
%ADD11C,1.600000*%
%ADD12R,1.700000X1.700000*%
%ADD13O,1.600000X1.600000*%
%ADD14C,2.000000*%
%ADD15O,1.700000X1.700000*%
%ADD16R,4.600000X2.000000*%
%ADD17O,4.200000X2.000000*%
%ADD18O,2.000000X4.200000*%
%ADD19R,2.500000X1.000000*%
%ADD20R,1.000000X1.800000*%
%ADD21R,1.130000X1.130000*%
%ADD22C,1.130000*%
%ADD23R,2.000000X1.500000*%
%ADD24R,2.000000X3.800000*%
G04 APERTURE END LIST*
D10*
%TO.C,C2*%
X13310000Y12420000D03*
D11*
X15310000Y12420000D03*
%TD*%
D12*
%TO.C,J5*%
X-13700000Y-20680000D03*
%TD*%
D11*
%TO.C,R3*%
X-18620000Y2630000D03*
D13*
X-18620000Y-4990000D03*
%TD*%
D11*
%TO.C,R5*%
X-11980000Y-7840000D03*
D13*
X-11980000Y-15460000D03*
%TD*%
D11*
%TO.C,R2*%
X-11970000Y-5270000D03*
D13*
X-11970000Y2350000D03*
%TD*%
D14*
%TO.C,REF\u002A\u002A*%
X-37000000Y0D03*
%TD*%
%TO.C,REF\u002A\u002A*%
X0Y37000000D03*
%TD*%
D11*
%TO.C,R4*%
X-18630000Y-15590000D03*
D13*
X-18630000Y-7970000D03*
%TD*%
D14*
%TO.C,REF\u002A\u002A*%
X37000000Y0D03*
%TD*%
D12*
%TO.C,J9*%
X17350000Y4290000D03*
D15*
X17350000Y1750000D03*
%TD*%
D10*
%TO.C,C1*%
X9704888Y19260000D03*
D11*
X11704888Y19260000D03*
%TD*%
D12*
%TO.C,J7*%
X-15820000Y13540000D03*
%TD*%
%TO.C,J3*%
X17060000Y-5160000D03*
%TD*%
%TO.C,J6*%
X12700000Y4290000D03*
D15*
X12700000Y1750000D03*
%TD*%
D12*
%TO.C,J4*%
X-18880000Y6890000D03*
%TD*%
D10*
%TO.C,C3*%
X-9590000Y18654888D03*
D11*
X-9590000Y20654888D03*
%TD*%
%TO.C,R1*%
X11360000Y-19360000D03*
D13*
X11360000Y-11740000D03*
%TD*%
D16*
%TO.C,J1*%
X0Y-26000000D03*
D17*
X0Y-32300000D03*
D18*
X4800000Y-28900000D03*
%TD*%
D19*
%TO.C,U1*%
X7400000Y-5360000D03*
X7400000Y-7360000D03*
X7400000Y-9360000D03*
X7400000Y-11360000D03*
X7400000Y-13360000D03*
X7400000Y-15360000D03*
X7400000Y-17360000D03*
X7400000Y-19360000D03*
D20*
X4800000Y-20860000D03*
X2800000Y-20860000D03*
X800000Y-20860000D03*
X-1200000Y-20860000D03*
X-3200000Y-20860000D03*
X-5200000Y-20860000D03*
D19*
X-7800000Y-19360000D03*
X-7800000Y-17360000D03*
X-7800000Y-15360000D03*
X-7800000Y-13360000D03*
X-7800000Y-11360000D03*
X-7800000Y-9360000D03*
X-7800000Y-7360000D03*
X-7800000Y-5360000D03*
%TD*%
D21*
%TO.C,IC1*%
X-8110000Y13740000D03*
D22*
X-5570000Y13740000D03*
X-3030000Y13740000D03*
X-490000Y13740000D03*
X2050000Y13740000D03*
X4590000Y13740000D03*
X7130000Y13740000D03*
X7130000Y5800000D03*
X4590000Y5800000D03*
X2050000Y5800000D03*
X-490000Y5800000D03*
X-3030000Y5800000D03*
X-5570000Y5800000D03*
X-8110000Y5800000D03*
%TD*%
D23*
%TO.C,U2*%
X2940000Y22090000D03*
X2940000Y19790000D03*
D24*
X-3360000Y19790000D03*
D23*
X2940000Y17490000D03*
%TD*%
M02*
