%TF.GenerationSoftware,KiCad,Pcbnew,(6.0.5)*%
%TF.CreationDate,2022-11-18T19:29:44+05:30*%
%TF.ProjectId,Ball Lamp,42616c6c-204c-4616-9d70-2e6b69636164,rev?*%
%TF.SameCoordinates,Original*%
%TF.FileFunction,Legend,Bot*%
%TF.FilePolarity,Positive*%
%FSLAX46Y46*%
G04 Gerber Fmt 4.6, Leading zero omitted, Abs format (unit mm)*
G04 Created by KiCad (PCBNEW (6.0.5)) date 2022-11-18 19:29:44*
%MOMM*%
%LPD*%
G01*
G04 APERTURE LIST*
%ADD10C,0.150000*%
%ADD11C,0.254000*%
%ADD12C,0.120000*%
%ADD13C,0.200000*%
G04 APERTURE END LIST*
D10*
%TO.C,U1*%
X11121904Y-3052380D02*
X11121904Y-3861904D01*
X11074285Y-3957142D01*
X11026666Y-4004761D01*
X10931428Y-4052380D01*
X10740952Y-4052380D01*
X10645714Y-4004761D01*
X10598095Y-3957142D01*
X10550476Y-3861904D01*
X10550476Y-3052380D01*
X9550476Y-4052380D02*
X10121904Y-4052380D01*
X9836190Y-4052380D02*
X9836190Y-3052380D01*
X9931428Y-3195238D01*
X10026666Y-3290476D01*
X10121904Y-3338095D01*
D11*
%TO.C,IC1*%
X84523Y11009761D02*
X-1185476Y11009761D01*
X-36428Y9679285D02*
X24047Y9739761D01*
X84523Y9921190D01*
X84523Y10042142D01*
X24047Y10223571D01*
X-96904Y10344523D01*
X-217857Y10405000D01*
X-459761Y10465476D01*
X-641190Y10465476D01*
X-883095Y10405000D01*
X-1004047Y10344523D01*
X-1125000Y10223571D01*
X-1185476Y10042142D01*
X-1185476Y9921190D01*
X-1125000Y9739761D01*
X-1064523Y9679285D01*
X84523Y8469761D02*
X84523Y9195476D01*
X84523Y8832619D02*
X-1185476Y8832619D01*
X-1004047Y8953571D01*
X-883095Y9074523D01*
X-822619Y9195476D01*
D10*
%TO.C,U2*%
X551904Y24837619D02*
X551904Y24028095D01*
X504285Y23932857D01*
X456666Y23885238D01*
X361428Y23837619D01*
X170952Y23837619D01*
X75714Y23885238D01*
X28095Y23932857D01*
X-19523Y24028095D01*
X-19523Y24837619D01*
X-448095Y24742380D02*
X-495714Y24790000D01*
X-590952Y24837619D01*
X-829047Y24837619D01*
X-924285Y24790000D01*
X-971904Y24742380D01*
X-1019523Y24647142D01*
X-1019523Y24551904D01*
X-971904Y24409047D01*
X-400476Y23837619D01*
X-1019523Y23837619D01*
D12*
%TO.C,U1*%
X-8320000Y3260000D02*
X-8320000Y-4360000D01*
X7920000Y-4360000D02*
X8530000Y-4360000D01*
X7920000Y-20980000D02*
X7920000Y-20360000D01*
X5800000Y-20980000D02*
X7920000Y-20980000D01*
X-8320000Y-20980000D02*
X-6200000Y-20980000D01*
X-8320000Y-20360000D02*
X-8320000Y-20980000D01*
X7920000Y-4360000D02*
X7920000Y3260000D01*
X7920000Y3260000D02*
X-8320000Y3260000D01*
D13*
%TO.C,IC1*%
X-10335000Y14305000D02*
X-10335000Y6470000D01*
X9355000Y13070000D02*
X9355000Y6470000D01*
D12*
%TO.C,U2*%
X1640000Y16380000D02*
X-2120000Y16380000D01*
X-2120000Y23200000D02*
X-2120000Y21940000D01*
X3890000Y23200000D02*
X-2120000Y23200000D01*
X-2120000Y16380000D02*
X-2120000Y17640000D01*
%TD*%
M02*
