%TF.GenerationSoftware,KiCad,Pcbnew,(6.0.5)*%
%TF.CreationDate,2022-11-18T19:29:44+05:30*%
%TF.ProjectId,Ball Lamp,42616c6c-204c-4616-9d70-2e6b69636164,rev?*%
%TF.SameCoordinates,Original*%
%TF.FileFunction,Copper,L1,Top*%
%TF.FilePolarity,Positive*%
%FSLAX46Y46*%
G04 Gerber Fmt 4.6, Leading zero omitted, Abs format (unit mm)*
G04 Created by KiCad (PCBNEW (6.0.5)) date 2022-11-18 19:29:44*
%MOMM*%
%LPD*%
G01*
G04 APERTURE LIST*
%TA.AperFunction,ComponentPad*%
%ADD10R,1.600000X1.600000*%
%TD*%
%TA.AperFunction,ComponentPad*%
%ADD11C,1.600000*%
%TD*%
%TA.AperFunction,ComponentPad*%
%ADD12R,1.700000X1.700000*%
%TD*%
%TA.AperFunction,SMDPad,CuDef*%
%ADD13R,1.500000X1.000000*%
%TD*%
%TA.AperFunction,ComponentPad*%
%ADD14O,1.600000X1.600000*%
%TD*%
%TA.AperFunction,ComponentPad*%
%ADD15O,1.700000X1.700000*%
%TD*%
%TA.AperFunction,ComponentPad*%
%ADD16R,4.600000X2.000000*%
%TD*%
%TA.AperFunction,ComponentPad*%
%ADD17O,4.200000X2.000000*%
%TD*%
%TA.AperFunction,ComponentPad*%
%ADD18O,2.000000X4.200000*%
%TD*%
%TA.AperFunction,ComponentPad*%
%ADD19R,1.130000X1.130000*%
%TD*%
%TA.AperFunction,ComponentPad*%
%ADD20C,1.130000*%
%TD*%
%TA.AperFunction,ViaPad*%
%ADD21C,0.800000*%
%TD*%
%TA.AperFunction,Conductor*%
%ADD22C,0.250000*%
%TD*%
G04 APERTURE END LIST*
D10*
%TO.P,C2,1*%
%TO.N,3.3V*%
X13310000Y12420000D03*
D11*
%TO.P,C2,2*%
%TO.N,GND*%
X15310000Y12420000D03*
%TD*%
D12*
%TO.P,J5,1,Pin_1*%
%TO.N,Net-(J5-Pad1)*%
X-13700000Y-20680000D03*
%TD*%
D13*
%TO.P,D3,1,VSS*%
%TO.N,GND*%
X23663200Y-22813200D03*
%TO.P,D3,2,DIN*%
%TO.N,Net-(D2-Pad4)*%
X23663200Y-19613200D03*
%TO.P,D3,3,VDD*%
%TO.N,VCC*%
X18763200Y-19613200D03*
%TO.P,D3,4,DOUT*%
%TO.N,Net-(D3-Pad4)*%
X18763200Y-22813200D03*
%TD*%
%TO.P,D13,1,VSS*%
%TO.N,GND*%
X13930500Y26116400D03*
%TO.P,D13,2,DIN*%
%TO.N,Net-(D12-Pad4)*%
X13930500Y29316400D03*
%TO.P,D13,3,VDD*%
%TO.N,VCC*%
X9030500Y29316400D03*
%TO.P,D13,4,DOUT*%
%TO.N,Net-(D13-Pad4)*%
X9030500Y26116400D03*
%TD*%
%TO.P,D6,1,VSS*%
%TO.N,GND*%
X-18763200Y-22813200D03*
%TO.P,D6,2,DIN*%
%TO.N,Net-(D5-Pad4)*%
X-18763200Y-19613200D03*
%TO.P,D6,3,VDD*%
%TO.N,VCC*%
X-23663200Y-19613200D03*
%TO.P,D6,4,DOUT*%
%TO.N,Net-(D6-Pad4)*%
X-23663200Y-22813200D03*
%TD*%
D11*
%TO.P,R3,1*%
%TO.N,3.3V*%
X-18620000Y2630000D03*
D14*
%TO.P,R3,2*%
%TO.N,GPIO0*%
X-18620000Y-4990000D03*
%TD*%
D11*
%TO.P,R5,1*%
%TO.N,3.3V*%
X-11980000Y-7840000D03*
D14*
%TO.P,R5,2*%
%TO.N,Net-(J5-Pad1)*%
X-11980000Y-15460000D03*
%TD*%
D11*
%TO.P,R2,1*%
%TO.N,3.3V*%
X-11970000Y-5270000D03*
D14*
%TO.P,R2,2*%
%TO.N,Net-(R2-Pad2)*%
X-11970000Y2350000D03*
%TD*%
D13*
%TO.P,D2,1,VSS*%
%TO.N,GND*%
X30166400Y-13080500D03*
%TO.P,D2,2,DIN*%
%TO.N,Net-(D1-Pad4)*%
X30166400Y-9880500D03*
%TO.P,D2,3,VDD*%
%TO.N,VCC*%
X25266400Y-9880500D03*
%TO.P,D2,4,DOUT*%
%TO.N,Net-(D2-Pad4)*%
X25266400Y-13080500D03*
%TD*%
%TO.P,D10,1,VSS*%
%TO.N,GND*%
X-18763200Y19613200D03*
%TO.P,D10,2,DIN*%
%TO.N,Net-(D10-Pad2)*%
X-18763200Y22813200D03*
%TO.P,D10,3,VDD*%
%TO.N,VCC*%
X-23663200Y22813200D03*
%TO.P,D10,4,DOUT*%
%TO.N,Net-(D10-Pad4)*%
X-23663200Y19613200D03*
%TD*%
D11*
%TO.P,R4,1*%
%TO.N,Net-(R4-Pad1)*%
X-18630000Y-15590000D03*
D14*
%TO.P,R4,2*%
%TO.N,GND*%
X-18630000Y-7970000D03*
%TD*%
D13*
%TO.P,D14,1,VSS*%
%TO.N,GND*%
X23682000Y19613200D03*
%TO.P,D14,2,DIN*%
%TO.N,Net-(D13-Pad4)*%
X23682000Y22813200D03*
%TO.P,D14,3,VDD*%
%TO.N,VCC*%
X18782000Y22813200D03*
%TO.P,D14,4,DOUT*%
%TO.N,Net-(D14-Pad4)*%
X18782000Y19613200D03*
%TD*%
%TO.P,D1,1,VSS*%
%TO.N,GND*%
X32450000Y-1600000D03*
%TO.P,D1,2,DIN*%
%TO.N,DataO{slash}P*%
X32450000Y1600000D03*
%TO.P,D1,3,VDD*%
%TO.N,VCC*%
X27550000Y1600000D03*
%TO.P,D1,4,DOUT*%
%TO.N,Net-(D1-Pad4)*%
X27550000Y-1600000D03*
%TD*%
D12*
%TO.P,J9,1,Pin_1*%
%TO.N,Net-(J8-Pad4)*%
X17350000Y4290000D03*
D15*
%TO.P,J9,2,Pin_2*%
%TO.N,GND*%
X17350000Y1750000D03*
%TD*%
D10*
%TO.P,C1,1*%
%TO.N,VCC*%
X9704888Y19260000D03*
D11*
%TO.P,C1,2*%
%TO.N,GND*%
X11704888Y19260000D03*
%TD*%
D13*
%TO.P,D8,1,VSS*%
%TO.N,GND*%
X-27550000Y-1600000D03*
%TO.P,D8,2,DIN*%
%TO.N,Net-(D7-Pad4)*%
X-27550000Y1600000D03*
%TO.P,D8,3,VDD*%
%TO.N,VCC*%
X-32450000Y1600000D03*
%TO.P,D8,4,DOUT*%
%TO.N,Net-(D8-Pad4)*%
X-32450000Y-1600000D03*
%TD*%
%TO.P,D9,1,VSS*%
%TO.N,GND*%
X-25266400Y9880500D03*
%TO.P,D9,2,DIN*%
%TO.N,Net-(D8-Pad4)*%
X-25266400Y13080500D03*
%TO.P,D9,3,VDD*%
%TO.N,VCC*%
X-30166400Y13080500D03*
%TO.P,D9,4,DOUT*%
%TO.N,Net-(D10-Pad2)*%
X-30166400Y9880500D03*
%TD*%
%TO.P,D5,1,VSS*%
%TO.N,GND*%
X-9030500Y-29316400D03*
%TO.P,D5,2,DIN*%
%TO.N,Net-(D4-Pad4)*%
X-9030500Y-26116400D03*
%TO.P,D5,3,VDD*%
%TO.N,VCC*%
X-13930500Y-26116400D03*
%TO.P,D5,4,DOUT*%
%TO.N,Net-(D5-Pad4)*%
X-13930500Y-29316400D03*
%TD*%
D12*
%TO.P,J7,1,Pin_1*%
%TO.N,DataI{slash}P*%
X-15820000Y13540000D03*
%TD*%
%TO.P,J3,1,Pin_1*%
%TO.N,Net-(J3-Pad1)*%
X17060000Y-5160000D03*
%TD*%
%TO.P,J6,1,Pin_1*%
%TO.N,GPIO0*%
X12700000Y4290000D03*
D15*
%TO.P,J6,2,Pin_2*%
%TO.N,GND*%
X12700000Y1750000D03*
%TD*%
D12*
%TO.P,J4,1,Pin_1*%
%TO.N,Net-(J4-Pad1)*%
X-18880000Y6890000D03*
%TD*%
D13*
%TO.P,D7,1,VSS*%
%TO.N,GND*%
X-25266400Y-13080500D03*
%TO.P,D7,2,DIN*%
%TO.N,Net-(D6-Pad4)*%
X-25266400Y-9880500D03*
%TO.P,D7,3,VDD*%
%TO.N,VCC*%
X-30166400Y-9880500D03*
%TO.P,D7,4,DOUT*%
%TO.N,Net-(D7-Pad4)*%
X-30166400Y-13080500D03*
%TD*%
%TO.P,D11,1,VSS*%
%TO.N,GND*%
X-9030500Y26116400D03*
%TO.P,D11,2,DIN*%
%TO.N,Net-(D10-Pad4)*%
X-9030500Y29316400D03*
%TO.P,D11,3,VDD*%
%TO.N,VCC*%
X-13930500Y29316400D03*
%TO.P,D11,4,DOUT*%
%TO.N,Net-(D11-Pad4)*%
X-13930500Y26116400D03*
%TD*%
%TO.P,D15,1,VSS*%
%TO.N,GND*%
X30166400Y9880500D03*
%TO.P,D15,2,DIN*%
%TO.N,Net-(D14-Pad4)*%
X30166400Y13080500D03*
%TO.P,D15,3,VDD*%
%TO.N,VCC*%
X25266400Y13080500D03*
%TO.P,D15,4,DOUT*%
%TO.N,unconnected-(D15-Pad4)*%
X25266400Y9880500D03*
%TD*%
%TO.P,D12,1,VSS*%
%TO.N,GND*%
X2450000Y28400000D03*
%TO.P,D12,2,DIN*%
%TO.N,Net-(D11-Pad4)*%
X2450000Y31600000D03*
%TO.P,D12,3,VDD*%
%TO.N,VCC*%
X-2450000Y31600000D03*
%TO.P,D12,4,DOUT*%
%TO.N,Net-(D12-Pad4)*%
X-2450000Y28400000D03*
%TD*%
D10*
%TO.P,C3,1*%
%TO.N,VCC*%
X-9590000Y18654888D03*
D11*
%TO.P,C3,2*%
%TO.N,GND*%
X-9590000Y20654888D03*
%TD*%
%TO.P,R1,1*%
%TO.N,3.3V*%
X11360000Y-19360000D03*
D14*
%TO.P,R1,2*%
%TO.N,Net-(R1-Pad2)*%
X11360000Y-11740000D03*
%TD*%
D16*
%TO.P,J1,1*%
%TO.N,VCC*%
X0Y-26000000D03*
D17*
%TO.P,J1,2*%
%TO.N,GND*%
X0Y-32300000D03*
D18*
%TO.P,J1,3*%
%TO.N,N/C*%
X4800000Y-28900000D03*
%TD*%
D13*
%TO.P,D4,1,VSS*%
%TO.N,GND*%
X13930500Y-29316400D03*
%TO.P,D4,2,DIN*%
%TO.N,Net-(D3-Pad4)*%
X13930500Y-26116400D03*
%TO.P,D4,3,VDD*%
%TO.N,VCC*%
X9030500Y-26116400D03*
%TO.P,D4,4,DOUT*%
%TO.N,Net-(D4-Pad4)*%
X9030500Y-29316400D03*
%TD*%
D19*
%TO.P,IC1,1,1~{OE}*%
%TO.N,GND*%
X-8110000Y13740000D03*
D20*
%TO.P,IC1,2,1A*%
%TO.N,DataI{slash}P*%
X-5570000Y13740000D03*
%TO.P,IC1,3,1Y*%
%TO.N,DataO{slash}P*%
X-3030000Y13740000D03*
%TO.P,IC1,4,2~{OE}*%
%TO.N,unconnected-(IC1-Pad4)*%
X-490000Y13740000D03*
%TO.P,IC1,5,2A*%
%TO.N,unconnected-(IC1-Pad5)*%
X2050000Y13740000D03*
%TO.P,IC1,6,2Y*%
%TO.N,unconnected-(IC1-Pad6)*%
X4590000Y13740000D03*
%TO.P,IC1,7,GND*%
%TO.N,GND*%
X7130000Y13740000D03*
%TO.P,IC1,8,3Y*%
%TO.N,unconnected-(IC1-Pad8)*%
X7130000Y5800000D03*
%TO.P,IC1,9,3A*%
%TO.N,unconnected-(IC1-Pad9)*%
X4590000Y5800000D03*
%TO.P,IC1,10,3~{OE}*%
%TO.N,unconnected-(IC1-Pad10)*%
X2050000Y5800000D03*
%TO.P,IC1,11,4Y*%
%TO.N,unconnected-(IC1-Pad11)*%
X-490000Y5800000D03*
%TO.P,IC1,12,4A*%
%TO.N,unconnected-(IC1-Pad12)*%
X-3030000Y5800000D03*
%TO.P,IC1,13,4~{OE}*%
%TO.N,unconnected-(IC1-Pad13)*%
X-5570000Y5800000D03*
%TO.P,IC1,14,VCC*%
%TO.N,VCC*%
X-8110000Y5800000D03*
%TD*%
D21*
%TO.N,VCC*%
X-28870000Y-10080000D03*
X27060000Y20780000D03*
X-7385500Y15760000D03*
X21870000Y8960000D03*
X-26022701Y-18092701D03*
X25230000Y14340000D03*
X-9510000Y13830000D03*
%TO.N,GND*%
X6360000Y22160000D03*
X-20870000Y-19713211D03*
X-19990000Y-22980000D03*
%TO.N,3.3V*%
X4950000Y19540000D03*
%TO.N,Net-(D12-Pad4)*%
X7400000Y29730000D03*
X12690000Y29390000D03*
%TO.N,Net-(D13-Pad4)*%
X23690000Y24860000D03*
X12256150Y26766150D03*
%TO.N,Net-(D14-Pad4)*%
X20340000Y19150000D03*
X23320000Y17460000D03*
%TO.N,Net-(J3-Pad1)*%
X-5850000Y-5330000D03*
%TO.N,GPIO0*%
X-4400000Y-9460011D03*
X-6090000Y-13370000D03*
%TD*%
D22*
%TO.N,VCC*%
X-28870000Y-10080000D02*
X-29966900Y-10080000D01*
X15005011Y30140911D02*
X9855011Y30140911D01*
X20815200Y20780000D02*
X27060000Y20780000D01*
X-7869022Y15760000D02*
X-9510000Y14119022D01*
X13258088Y22813200D02*
X18782000Y22813200D01*
X18782000Y22813200D02*
X20815200Y20780000D01*
X-13930500Y-25366400D02*
X-18859189Y-20437711D01*
X9704888Y19260000D02*
X13258088Y22813200D01*
X12010000Y-26116400D02*
X9030500Y-26116400D01*
X18763200Y-19613200D02*
X18513200Y-19613200D01*
X-17160000Y29316400D02*
X-13930500Y29316400D01*
X-9510000Y14119022D02*
X-9510000Y13830000D01*
X27550000Y1600000D02*
X27550000Y3280000D01*
X-9510000Y13830000D02*
X-9510000Y7200000D01*
X-11646900Y31600000D02*
X-2450000Y31600000D01*
X-23663200Y-19613200D02*
X-25183699Y-18092701D01*
X-9510000Y7200000D02*
X-8110000Y5800000D01*
X-1625489Y32424511D02*
X5922389Y32424511D01*
X5922389Y32424511D02*
X9030500Y29316400D01*
X-23663200Y22813200D02*
X-17160000Y29316400D01*
X-7385500Y15760000D02*
X-7869022Y15760000D01*
X18513200Y-19613200D02*
X12010000Y-26116400D01*
X25266400Y-683600D02*
X25266400Y-9880500D01*
X-32450000Y1600000D02*
X-32450000Y10796900D01*
X-13930500Y-26116400D02*
X-13930500Y-25366400D01*
X-2450000Y31600000D02*
X-1625489Y32424511D01*
X-18859189Y-20437711D02*
X-22838689Y-20437711D01*
X-30166400Y13080500D02*
X-30166400Y15009022D01*
X27550000Y1600000D02*
X25266400Y-683600D01*
X-23663200Y21512222D02*
X-23663200Y22813200D01*
X-33524511Y525489D02*
X-32450000Y1600000D01*
X-32450000Y10796900D02*
X-30166400Y13080500D01*
X0Y-26000000D02*
X8914100Y-26000000D01*
X-30166400Y15009022D02*
X-23663200Y21512222D01*
X9855011Y30140911D02*
X9030500Y29316400D01*
X18782000Y22813200D02*
X18782000Y26363922D01*
X-25183699Y-18092701D02*
X-26022701Y-18092701D01*
X18782000Y26363922D02*
X15005011Y30140911D01*
X-13930500Y29316400D02*
X-11646900Y31600000D01*
X27550000Y3280000D02*
X21870000Y8960000D01*
X25230000Y14340000D02*
X25230000Y13116900D01*
X-22838689Y-20437711D02*
X-23663200Y-19613200D01*
X-29966900Y-10080000D02*
X-30166400Y-9880500D01*
X18763200Y-16383700D02*
X18763200Y-19613200D01*
X25266400Y-9880500D02*
X18763200Y-16383700D01*
X25230000Y13116900D02*
X25266400Y13080500D01*
X8914100Y-26000000D02*
X9030500Y-26116400D01*
X-30166400Y-9880500D02*
X-33524511Y-6522389D01*
X-33524511Y-6522389D02*
X-33524511Y525489D01*
%TO.N,GND*%
X-19990000Y-22980000D02*
X-18930000Y-22980000D01*
X31240911Y10955011D02*
X30166400Y9880500D01*
X4225489Y20025489D02*
X6360000Y22160000D01*
X30166400Y-16310000D02*
X23663200Y-22813200D01*
X-18930000Y-22980000D02*
X-18763200Y-22813200D01*
X15310000Y15654888D02*
X15310000Y12420000D01*
X-9030500Y21214388D02*
X-9590000Y20654888D01*
X-25266400Y9880500D02*
X-25266400Y-1393600D01*
X-18763200Y-22813200D02*
X-18763200Y-26382722D01*
X0Y-32300000D02*
X-6046900Y-32300000D01*
X-25266400Y-15316811D02*
X-20870000Y-19713211D01*
X33524511Y-525489D02*
X33524511Y6522389D01*
X-17721512Y20654888D02*
X-9590000Y20654888D01*
X11704888Y19260000D02*
X15310000Y15654888D01*
X-25060000Y-1600000D02*
X-25000000Y-1600000D01*
X-6046900Y-32300000D02*
X-9030500Y-29316400D01*
X-25266400Y-13080500D02*
X-25266400Y-15316811D01*
X166400Y26116400D02*
X2450000Y28400000D01*
X31240911Y13905011D02*
X31240911Y10955011D01*
X2450000Y28400000D02*
X11646900Y28400000D01*
X-25000000Y-1600000D02*
X-18630000Y-7970000D01*
X23663200Y-22813200D02*
X17160000Y-29316400D01*
X-23740500Y-13080500D02*
X-18630000Y-7970000D01*
X-25266400Y-13080500D02*
X-23740500Y-13080500D01*
X33524511Y6522389D02*
X30166400Y9880500D01*
X-9855011Y-30140911D02*
X-9030500Y-29316400D01*
X16488800Y12420000D02*
X23682000Y19613200D01*
X32450000Y-10796900D02*
X30166400Y-13080500D01*
X23682000Y19613200D02*
X25532722Y19613200D01*
X32450000Y-1600000D02*
X33524511Y-525489D01*
X-15005011Y-30140911D02*
X-9855011Y-30140911D01*
X11646900Y28400000D02*
X13930500Y26116400D01*
X17160000Y-29316400D02*
X13930500Y-29316400D01*
X30166400Y-13080500D02*
X30166400Y-16310000D01*
X-27550000Y-1600000D02*
X-25060000Y-1600000D01*
X32450000Y-1600000D02*
X32450000Y-10796900D01*
X13930500Y26116400D02*
X9974100Y22160000D01*
X10946900Y-32300000D02*
X0Y-32300000D01*
X4225489Y16644511D02*
X4225489Y20025489D01*
X15310000Y12420000D02*
X16488800Y12420000D01*
X-9030500Y26116400D02*
X-9030500Y21214388D01*
X13930500Y-29316400D02*
X10946900Y-32300000D01*
X-9030500Y26116400D02*
X166400Y26116400D01*
X7130000Y13740000D02*
X4225489Y16644511D01*
X25532722Y19613200D02*
X31240911Y13905011D01*
X-18763200Y19613200D02*
X-17721512Y20654888D01*
X9974100Y22160000D02*
X6360000Y22160000D01*
X-25266400Y-1393600D02*
X-25060000Y-1600000D01*
X-18763200Y-26382722D02*
X-15005011Y-30140911D01*
%TO.N,3.3V*%
X13310000Y12420000D02*
X12070000Y12420000D01*
X12070000Y12420000D02*
X4950000Y19540000D01*
%TO.N,DataO{slash}P*%
X32450000Y1600000D02*
X31450000Y1600000D01*
X-580000Y11290000D02*
X-3030000Y13740000D01*
X31450000Y1600000D02*
X21760000Y11290000D01*
X21760000Y11290000D02*
X-580000Y11290000D01*
%TO.N,Net-(D1-Pad4)*%
X27550000Y-7264100D02*
X30166400Y-9880500D01*
X27550000Y-1600000D02*
X27550000Y-7264100D01*
%TO.N,Net-(D2-Pad4)*%
X25266400Y-13080500D02*
X25266400Y-18010000D01*
X25266400Y-18010000D02*
X23663200Y-19613200D01*
%TO.N,Net-(D3-Pad4)*%
X17233700Y-22813200D02*
X13930500Y-26116400D01*
X18763200Y-22813200D02*
X17233700Y-22813200D01*
%TO.N,Net-(D8-Pad4)*%
X-32450000Y-1600000D02*
X-32450000Y-850000D01*
X-26340911Y12005989D02*
X-25266400Y13080500D01*
X-32450000Y-850000D02*
X-26340911Y5259089D01*
X-26340911Y5259089D02*
X-26340911Y12005989D01*
%TO.N,Net-(D10-Pad4)*%
X-23663200Y20363200D02*
X-15534511Y28491889D01*
X-9855011Y28491889D02*
X-9030500Y29316400D01*
X-15534511Y28491889D02*
X-9855011Y28491889D01*
X-23663200Y19613200D02*
X-23663200Y20363200D01*
%TO.N,Net-(D11-Pad4)*%
X-13930500Y26116400D02*
X-13105989Y26940911D01*
X-4760000Y29780000D02*
X630000Y29780000D01*
X-7599089Y26940911D02*
X-4760000Y29780000D01*
X-13105989Y26940911D02*
X-7599089Y26940911D01*
X630000Y29780000D02*
X2450000Y31600000D01*
%TO.N,Net-(D12-Pad4)*%
X13856900Y29390000D02*
X13930500Y29316400D01*
X12690000Y29390000D02*
X13856900Y29390000D01*
X-1625489Y29224511D02*
X6894511Y29224511D01*
X6894511Y29224511D02*
X7400000Y29730000D01*
X-2450000Y28400000D02*
X-1625489Y29224511D01*
%TO.N,Net-(D13-Pad4)*%
X9030500Y26116400D02*
X11606400Y26116400D01*
X23690000Y24860000D02*
X23690000Y22821200D01*
X11606400Y26116400D02*
X12256150Y26766150D01*
X23690000Y22821200D02*
X23682000Y22813200D01*
%TO.N,Net-(D14-Pad4)*%
X20340000Y19150000D02*
X19245200Y19150000D01*
X30166400Y13080500D02*
X27699500Y13080500D01*
X27699500Y13080500D02*
X23320000Y17460000D01*
X19245200Y19150000D02*
X18782000Y19613200D01*
%TO.N,Net-(J3-Pad1)*%
X17060000Y-5160000D02*
X-5680000Y-5160000D01*
X-5680000Y-5160000D02*
X-5850000Y-5330000D01*
%TO.N,GPIO0*%
X-4400000Y-11680000D02*
X-6090000Y-13370000D01*
X-4400000Y-9460011D02*
X-4400000Y-11680000D01*
%TO.N,Net-(D4-Pad4)*%
X2246577Y-31573423D02*
X-1966846Y-27360000D01*
X9030500Y-29316400D02*
X6773477Y-31573423D01*
X-7786900Y-27360000D02*
X-9030500Y-26116400D01*
X6773477Y-31573423D02*
X2246577Y-31573423D01*
X-1966846Y-27360000D02*
X-7786900Y-27360000D01*
%TO.N,Net-(D5-Pad4)*%
X-18513200Y-19613200D02*
X-18763200Y-19613200D01*
X-13930500Y-29316400D02*
X-12855989Y-28241889D01*
X-12855989Y-28241889D02*
X-12855989Y-25270411D01*
X-12855989Y-25270411D02*
X-18513200Y-19613200D01*
%TO.N,Net-(D6-Pad4)*%
X-23663200Y-21476800D02*
X-28250000Y-16890000D01*
X-28250000Y-16890000D02*
X-28250000Y-12864100D01*
X-28250000Y-12864100D02*
X-25266400Y-9880500D01*
X-23663200Y-22813200D02*
X-23663200Y-21476800D01*
%TO.N,Net-(D7-Pad4)*%
X-28110000Y-2939022D02*
X-28624511Y-2424511D01*
X-28624511Y525489D02*
X-27550000Y1600000D01*
X-30166400Y-13080500D02*
X-28110000Y-11024100D01*
X-28110000Y-11024100D02*
X-28110000Y-2939022D01*
X-28624511Y-2424511D02*
X-28624511Y525489D01*
%TO.N,Net-(D10-Pad2)*%
X-30166400Y9880500D02*
X-30166400Y11210978D01*
X-18763200Y22614178D02*
X-18763200Y22813200D01*
X-30166400Y11210978D02*
X-18763200Y22614178D01*
%TD*%
M02*
