M48
; DRILL file {KiCad (6.0.5)} date Fri Nov 18 19:29:38 2022
; FORMAT={-:-/ absolute / inch / decimal}
; #@! TF.CreationDate,2022-11-18T19:29:38+05:30
; #@! TF.GenerationSoftware,Kicad,Pcbnew,(6.0.5)
; #@! TF.FileFunction,Plated,1,2,PTH
FMAT,2
INCH
; #@! TA.AperFunction,Plated,PTH,ViaDrill
T1C0.0157
; #@! TA.AperFunction,Plated,PTH,ComponentDrill
T2C0.0287
; #@! TA.AperFunction,Plated,PTH,ComponentDrill
T3C0.0315
; #@! TA.AperFunction,Plated,PTH,ComponentDrill
T4C0.0394
%
G90
G05
T1
X-1.1366Y-0.3969
X-1.0245Y-0.7123
X-0.8217Y-0.7761
X-0.787Y-0.9047
X-0.3744Y0.5445
X-0.2908Y0.6205
X-0.2398Y-0.5264
X-0.2303Y-0.2098
X-0.1732Y-0.3724
X0.1949Y0.7693
X0.2504Y0.8724
X0.2913Y1.1705
X0.4825Y1.0538
X0.4996Y1.1571
X0.8008Y0.7539
X0.861Y0.3528
X0.9181Y0.6874
X0.9327Y0.9787
X0.9933Y0.5646
X1.0654Y0.8181
T2
X-0.3193Y0.5409
X-0.3193Y0.2283
X-0.2193Y0.5409
X-0.2193Y0.2283
X-0.1193Y0.5409
X-0.1193Y0.2283
X-0.0193Y0.5409
X-0.0193Y0.2283
X0.0807Y0.5409
X0.0807Y0.2283
X0.1807Y0.5409
X0.1807Y0.2283
X0.2807Y0.5409
X0.2807Y0.2283
T3
X-0.7335Y-0.3138
X-0.7335Y-0.6138
X-0.7331Y0.1035
X-0.7331Y-0.1965
X-0.4717Y-0.3087
X-0.4717Y-0.6087
X-0.4713Y0.0925
X-0.4713Y-0.2075
X-0.3776Y0.8132
X-0.3776Y0.7344
X0.3821Y0.7583
X0.4472Y-0.4622
X0.4472Y-0.7622
X0.4608Y0.7583
X0.524Y0.489
X0.6028Y0.489
T4
X-0.7433Y0.2713
X-0.6228Y0.5331
X-0.5394Y-0.8142
X0.5Y0.1689
X0.5Y0.0689
X0.6717Y-0.2031
X0.6831Y0.1689
X0.6831Y0.0689
T4
G00X-0.0512Y-1.0236
M15
G01X0.0512Y-1.0236
M16
G05
G00X-0.0433Y-1.2717
M15
G01X0.0433Y-1.2717
M16
G05
G00X0.189Y-1.0945
M15
G01X0.189Y-1.1811
M16
G05
T0
M30
