%TF.GenerationSoftware,KiCad,Pcbnew,(6.0.5)*%
%TF.CreationDate,2022-11-18T19:29:44+05:30*%
%TF.ProjectId,Ball Lamp,42616c6c-204c-4616-9d70-2e6b69636164,rev?*%
%TF.SameCoordinates,Original*%
%TF.FileFunction,Copper,L2,Bot*%
%TF.FilePolarity,Positive*%
%FSLAX46Y46*%
G04 Gerber Fmt 4.6, Leading zero omitted, Abs format (unit mm)*
G04 Created by KiCad (PCBNEW (6.0.5)) date 2022-11-18 19:29:44*
%MOMM*%
%LPD*%
G01*
G04 APERTURE LIST*
%TA.AperFunction,ComponentPad*%
%ADD10R,1.600000X1.600000*%
%TD*%
%TA.AperFunction,ComponentPad*%
%ADD11C,1.600000*%
%TD*%
%TA.AperFunction,ComponentPad*%
%ADD12R,1.700000X1.700000*%
%TD*%
%TA.AperFunction,ComponentPad*%
%ADD13O,1.600000X1.600000*%
%TD*%
%TA.AperFunction,ComponentPad*%
%ADD14O,1.700000X1.700000*%
%TD*%
%TA.AperFunction,ComponentPad*%
%ADD15R,4.600000X2.000000*%
%TD*%
%TA.AperFunction,ComponentPad*%
%ADD16O,4.200000X2.000000*%
%TD*%
%TA.AperFunction,ComponentPad*%
%ADD17O,2.000000X4.200000*%
%TD*%
%TA.AperFunction,SMDPad,CuDef*%
%ADD18R,2.500000X1.000000*%
%TD*%
%TA.AperFunction,SMDPad,CuDef*%
%ADD19R,1.000000X1.800000*%
%TD*%
%TA.AperFunction,ComponentPad*%
%ADD20R,1.130000X1.130000*%
%TD*%
%TA.AperFunction,ComponentPad*%
%ADD21C,1.130000*%
%TD*%
%TA.AperFunction,SMDPad,CuDef*%
%ADD22R,2.000000X1.500000*%
%TD*%
%TA.AperFunction,SMDPad,CuDef*%
%ADD23R,2.000000X3.800000*%
%TD*%
%TA.AperFunction,ViaPad*%
%ADD24C,0.800000*%
%TD*%
%TA.AperFunction,Conductor*%
%ADD25C,0.250000*%
%TD*%
G04 APERTURE END LIST*
D10*
%TO.P,C2,1*%
%TO.N,3.3V*%
X13310000Y12420000D03*
D11*
%TO.P,C2,2*%
%TO.N,GND*%
X15310000Y12420000D03*
%TD*%
D12*
%TO.P,J5,1,Pin_1*%
%TO.N,Net-(J5-Pad1)*%
X-13700000Y-20680000D03*
%TD*%
D11*
%TO.P,R3,1*%
%TO.N,3.3V*%
X-18620000Y2630000D03*
D13*
%TO.P,R3,2*%
%TO.N,GPIO0*%
X-18620000Y-4990000D03*
%TD*%
D11*
%TO.P,R5,1*%
%TO.N,3.3V*%
X-11980000Y-7840000D03*
D13*
%TO.P,R5,2*%
%TO.N,Net-(J5-Pad1)*%
X-11980000Y-15460000D03*
%TD*%
D11*
%TO.P,R2,1*%
%TO.N,3.3V*%
X-11970000Y-5270000D03*
D13*
%TO.P,R2,2*%
%TO.N,Net-(R2-Pad2)*%
X-11970000Y2350000D03*
%TD*%
D11*
%TO.P,R4,1*%
%TO.N,Net-(R4-Pad1)*%
X-18630000Y-15590000D03*
D13*
%TO.P,R4,2*%
%TO.N,GND*%
X-18630000Y-7970000D03*
%TD*%
D12*
%TO.P,J9,1,Pin_1*%
%TO.N,Net-(J8-Pad4)*%
X17350000Y4290000D03*
D14*
%TO.P,J9,2,Pin_2*%
%TO.N,GND*%
X17350000Y1750000D03*
%TD*%
D10*
%TO.P,C1,1*%
%TO.N,VCC*%
X9704888Y19260000D03*
D11*
%TO.P,C1,2*%
%TO.N,GND*%
X11704888Y19260000D03*
%TD*%
D12*
%TO.P,J7,1,Pin_1*%
%TO.N,DataI{slash}P*%
X-15820000Y13540000D03*
%TD*%
%TO.P,J3,1,Pin_1*%
%TO.N,Net-(J3-Pad1)*%
X17060000Y-5160000D03*
%TD*%
%TO.P,J6,1,Pin_1*%
%TO.N,GPIO0*%
X12700000Y4290000D03*
D14*
%TO.P,J6,2,Pin_2*%
%TO.N,GND*%
X12700000Y1750000D03*
%TD*%
D12*
%TO.P,J4,1,Pin_1*%
%TO.N,Net-(J4-Pad1)*%
X-18880000Y6890000D03*
%TD*%
D10*
%TO.P,C3,1*%
%TO.N,VCC*%
X-9590000Y18654888D03*
D11*
%TO.P,C3,2*%
%TO.N,GND*%
X-9590000Y20654888D03*
%TD*%
%TO.P,R1,1*%
%TO.N,3.3V*%
X11360000Y-19360000D03*
D13*
%TO.P,R1,2*%
%TO.N,Net-(R1-Pad2)*%
X11360000Y-11740000D03*
%TD*%
D15*
%TO.P,J1,1*%
%TO.N,VCC*%
X0Y-26000000D03*
D16*
%TO.P,J1,2*%
%TO.N,GND*%
X0Y-32300000D03*
D17*
%TO.P,J1,3*%
%TO.N,N/C*%
X4800000Y-28900000D03*
%TD*%
D18*
%TO.P,U1,1,~{RST}*%
%TO.N,Net-(R2-Pad2)*%
X7400000Y-5360000D03*
%TO.P,U1,2,ADC*%
%TO.N,unconnected-(U1-Pad2)*%
X7400000Y-7360000D03*
%TO.P,U1,3,EN*%
%TO.N,Net-(R1-Pad2)*%
X7400000Y-9360000D03*
%TO.P,U1,4,GPIO16*%
%TO.N,unconnected-(U1-Pad4)*%
X7400000Y-11360000D03*
%TO.P,U1,5,GPIO14*%
%TO.N,unconnected-(U1-Pad5)*%
X7400000Y-13360000D03*
%TO.P,U1,6,GPIO12*%
%TO.N,unconnected-(U1-Pad6)*%
X7400000Y-15360000D03*
%TO.P,U1,7,GPIO13*%
%TO.N,unconnected-(U1-Pad7)*%
X7400000Y-17360000D03*
%TO.P,U1,8,VCC*%
%TO.N,3.3V*%
X7400000Y-19360000D03*
D19*
%TO.P,U1,9,CS0*%
%TO.N,unconnected-(U1-Pad9)*%
X4800000Y-20860000D03*
%TO.P,U1,10,MISO*%
%TO.N,unconnected-(U1-Pad10)*%
X2800000Y-20860000D03*
%TO.P,U1,11,GPIO9*%
%TO.N,unconnected-(U1-Pad11)*%
X800000Y-20860000D03*
%TO.P,U1,12,GPIO10*%
%TO.N,unconnected-(U1-Pad12)*%
X-1200000Y-20860000D03*
%TO.P,U1,13,MOSI*%
%TO.N,unconnected-(U1-Pad13)*%
X-3200000Y-20860000D03*
%TO.P,U1,14,SCLK*%
%TO.N,unconnected-(U1-Pad14)*%
X-5200000Y-20860000D03*
D18*
%TO.P,U1,15,GND*%
%TO.N,GND*%
X-7800000Y-19360000D03*
%TO.P,U1,16,GPIO15*%
%TO.N,Net-(R4-Pad1)*%
X-7800000Y-17360000D03*
%TO.P,U1,17,GPIO2*%
%TO.N,Net-(J5-Pad1)*%
X-7800000Y-15360000D03*
%TO.P,U1,18,GPIO0*%
%TO.N,GPIO0*%
X-7800000Y-13360000D03*
%TO.P,U1,19,GPIO4*%
%TO.N,unconnected-(U1-Pad19)*%
X-7800000Y-11360000D03*
%TO.P,U1,20,GPIO5*%
%TO.N,unconnected-(U1-Pad20)*%
X-7800000Y-9360000D03*
%TO.P,U1,21,GPIO3/RXD*%
%TO.N,Net-(J4-Pad1)*%
X-7800000Y-7360000D03*
%TO.P,U1,22,GPIO1/TXD*%
%TO.N,Net-(J3-Pad1)*%
X-7800000Y-5360000D03*
%TD*%
D20*
%TO.P,IC1,1,1~{OE}*%
%TO.N,GND*%
X-8110000Y13740000D03*
D21*
%TO.P,IC1,2,1A*%
%TO.N,DataI{slash}P*%
X-5570000Y13740000D03*
%TO.P,IC1,3,1Y*%
%TO.N,DataO{slash}P*%
X-3030000Y13740000D03*
%TO.P,IC1,4,2~{OE}*%
%TO.N,unconnected-(IC1-Pad4)*%
X-490000Y13740000D03*
%TO.P,IC1,5,2A*%
%TO.N,unconnected-(IC1-Pad5)*%
X2050000Y13740000D03*
%TO.P,IC1,6,2Y*%
%TO.N,unconnected-(IC1-Pad6)*%
X4590000Y13740000D03*
%TO.P,IC1,7,GND*%
%TO.N,GND*%
X7130000Y13740000D03*
%TO.P,IC1,8,3Y*%
%TO.N,unconnected-(IC1-Pad8)*%
X7130000Y5800000D03*
%TO.P,IC1,9,3A*%
%TO.N,unconnected-(IC1-Pad9)*%
X4590000Y5800000D03*
%TO.P,IC1,10,3~{OE}*%
%TO.N,unconnected-(IC1-Pad10)*%
X2050000Y5800000D03*
%TO.P,IC1,11,4Y*%
%TO.N,unconnected-(IC1-Pad11)*%
X-490000Y5800000D03*
%TO.P,IC1,12,4A*%
%TO.N,unconnected-(IC1-Pad12)*%
X-3030000Y5800000D03*
%TO.P,IC1,13,4~{OE}*%
%TO.N,unconnected-(IC1-Pad13)*%
X-5570000Y5800000D03*
%TO.P,IC1,14,VCC*%
%TO.N,VCC*%
X-8110000Y5800000D03*
%TD*%
D22*
%TO.P,U2,1,GND*%
%TO.N,GND*%
X2940000Y22090000D03*
%TO.P,U2,2,VO*%
%TO.N,3.3V*%
X2940000Y19790000D03*
D23*
X-3360000Y19790000D03*
D22*
%TO.P,U2,3,VI*%
%TO.N,VCC*%
X2940000Y17490000D03*
%TD*%
D24*
%TO.N,VCC*%
X-28870000Y-10080000D03*
X27060000Y20780000D03*
X-7385500Y15760000D03*
X21870000Y8960000D03*
X-26022701Y-18092701D03*
X25230000Y14340000D03*
X-9510000Y13830000D03*
%TO.N,GND*%
X6360000Y22160000D03*
X-20870000Y-19713211D03*
X-19990000Y-22980000D03*
%TO.N,3.3V*%
X4950000Y19540000D03*
%TO.N,Net-(D12-Pad4)*%
X7400000Y29730000D03*
X12690000Y29390000D03*
%TO.N,Net-(D13-Pad4)*%
X23690000Y24860000D03*
X12256150Y26766150D03*
%TO.N,Net-(D14-Pad4)*%
X20340000Y19150000D03*
X23320000Y17460000D03*
%TO.N,Net-(J3-Pad1)*%
X-5850000Y-5330000D03*
%TO.N,GPIO0*%
X-4400000Y-9460011D03*
X-6090000Y-13370000D03*
%TD*%
D25*
%TO.N,VCC*%
X21870000Y10980000D02*
X25230000Y14340000D01*
X27060000Y16170000D02*
X25230000Y14340000D01*
X21870000Y8960000D02*
X21870000Y10980000D01*
X-5655500Y17490000D02*
X-7385500Y15760000D01*
X-9590000Y13910000D02*
X-9510000Y13830000D01*
X7934888Y17490000D02*
X9704888Y19260000D01*
X-26022701Y-18092701D02*
X-26022701Y-12927299D01*
X-9590000Y18654888D02*
X-9590000Y13910000D01*
X-26022701Y-12927299D02*
X-28870000Y-10080000D01*
X2940000Y17490000D02*
X-5655500Y17490000D01*
X27060000Y20780000D02*
X27060000Y16170000D01*
X2940000Y17490000D02*
X7934888Y17490000D01*
%TO.N,GND*%
X-7800000Y-19360000D02*
X-7800000Y-24500000D01*
X-20870000Y-19713211D02*
X-20870000Y-22100000D01*
X2940000Y22090000D02*
X9123910Y22090000D01*
X-8110000Y13740000D02*
X-8110000Y19423910D01*
X12700000Y1750000D02*
X17350000Y1750000D01*
X6360000Y22160000D02*
X6290000Y22090000D01*
X-9340978Y20654888D02*
X-9590000Y20654888D01*
X11704888Y19509022D02*
X11704888Y19260000D01*
X-8110000Y19423910D02*
X-9340978Y20654888D01*
X17350000Y1750000D02*
X15310000Y3790000D01*
X6290000Y22090000D02*
X2940000Y22090000D01*
X15310000Y3790000D02*
X15310000Y12420000D01*
X-20870000Y-22100000D02*
X-19990000Y-22980000D01*
X-7800000Y-24500000D02*
X0Y-32300000D01*
X9123910Y22090000D02*
X11704888Y19509022D01*
%TO.N,3.3V*%
X-20150000Y11685188D02*
X-20150000Y4160000D01*
X-9635489Y-10184511D02*
X-2525489Y-10184511D01*
X-5349399Y21779399D02*
X-10055789Y21779399D01*
X3190000Y19540000D02*
X2940000Y19790000D01*
X-11970000Y-5270000D02*
X-11970000Y-7830000D01*
X-3360000Y19790000D02*
X-5349399Y21779399D01*
X-3360000Y19790000D02*
X2940000Y19790000D01*
X-20150000Y4160000D02*
X-18620000Y2630000D01*
X-11980000Y-7840000D02*
X-9635489Y-10184511D01*
X-11970000Y-7830000D02*
X-11980000Y-7840000D01*
X-10055789Y21779399D02*
X-20150000Y11685188D01*
X-2525489Y-10184511D02*
X6650000Y-19360000D01*
X11360000Y-19360000D02*
X7400000Y-19360000D01*
X6650000Y-19360000D02*
X7400000Y-19360000D01*
X-11970000Y-5270000D02*
X-11970000Y-4020000D01*
X4950000Y19540000D02*
X3190000Y19540000D01*
X-11970000Y-4020000D02*
X-18620000Y2630000D01*
%TO.N,Net-(D12-Pad4)*%
X7400000Y29730000D02*
X7740000Y29390000D01*
X7740000Y29390000D02*
X12690000Y29390000D01*
%TO.N,Net-(D13-Pad4)*%
X14162300Y24860000D02*
X23690000Y24860000D01*
X12256150Y26766150D02*
X14162300Y24860000D01*
%TO.N,Net-(D14-Pad4)*%
X23320000Y17460000D02*
X22030000Y17460000D01*
X22030000Y17460000D02*
X20340000Y19150000D01*
%TO.N,Net-(J3-Pad1)*%
X-5850000Y-5330000D02*
X-7770000Y-5330000D01*
X-7770000Y-5330000D02*
X-7800000Y-5360000D01*
%TO.N,Net-(J4-Pad1)*%
X-17495489Y5505489D02*
X-17495489Y2470978D01*
X-8320000Y-7360000D02*
X-7800000Y-7360000D01*
X-17495489Y2470978D02*
X-9374511Y-5650000D01*
X-18880000Y6890000D02*
X-17495489Y5505489D01*
X-9374511Y-5650000D02*
X-9374511Y-6305489D01*
X-9374511Y-6305489D02*
X-8320000Y-7360000D01*
%TO.N,Net-(J5-Pad1)*%
X-11980000Y-18960000D02*
X-13700000Y-20680000D01*
X-7900000Y-15460000D02*
X-7800000Y-15360000D01*
X-11980000Y-15460000D02*
X-7900000Y-15460000D01*
X-11980000Y-15460000D02*
X-11980000Y-18960000D01*
%TO.N,GPIO0*%
X-10250000Y-13360000D02*
X-7800000Y-13360000D01*
X-6090000Y-13370000D02*
X-7790000Y-13370000D01*
X-7790000Y-13370000D02*
X-7800000Y-13360000D01*
X8974511Y-6184511D02*
X-1124500Y-6184511D01*
X-18620000Y-4990000D02*
X-10250000Y-13360000D01*
X12700000Y4290000D02*
X8974511Y564511D01*
X-1124500Y-6184511D02*
X-4400000Y-9460011D01*
X8974511Y564511D02*
X8974511Y-6184511D01*
%TO.N,DataI{slash}P*%
X-6459511Y12850489D02*
X-5570000Y13740000D01*
X-15820000Y13540000D02*
X-15130489Y12850489D01*
X-15130489Y12850489D02*
X-6459511Y12850489D01*
%TO.N,Net-(R1-Pad2)*%
X7400000Y-9360000D02*
X8980000Y-9360000D01*
X8980000Y-9360000D02*
X11360000Y-11740000D01*
%TO.N,Net-(R2-Pad2)*%
X-11970000Y-586804D02*
X-11970000Y2350000D01*
X7400000Y-5360000D02*
X6225020Y-4185020D01*
X-8371784Y-4185020D02*
X-11970000Y-586804D01*
X6225020Y-4185020D02*
X-8371784Y-4185020D01*
%TO.N,Net-(R4-Pad1)*%
X-18630000Y-15590000D02*
X-18630000Y-18099022D01*
X-14874511Y-21854511D02*
X-12525489Y-21854511D01*
X-18630000Y-18099022D02*
X-14874511Y-21854511D01*
X-12525489Y-21854511D02*
X-8030978Y-17360000D01*
X-8030978Y-17360000D02*
X-7800000Y-17360000D01*
%TD*%
M02*
